<svg width="216" height="216" viewBox="0 0 216 216" fill="none" xmlns="http://www.w3.org/2000/svg">
<mask id="path-1-outside-1_2_15" maskUnits="userSpaceOnUse" x="33" y="66" width="92" height="88" fill="black">
<rect fill="white" x="33" y="66" width="92" height="88"/>
<path d="M36 143.023C36 140.738 36.7031 139.127 38.1094 138.189C39.5156 137.193 40.9512 136.695 42.416 136.695C43.1191 136.695 43.8223 136.812 44.5254 137.047C45.2285 137.223 45.9902 137.545 46.8105 138.014L49.8867 139.684C50.2969 139.918 50.6777 140.094 51.0293 140.211C51.4395 140.27 51.8789 140.299 52.3477 140.299C53.8125 140.299 54.9258 139.947 55.6875 139.244C56.5078 138.482 58.5586 135.904 61.8398 131.51C64.0078 128.639 68.9297 121.637 76.6055 110.504C76.6055 110.094 75.9316 106.959 74.584 101.1C73.2363 95.1816 72.0059 90.1719 70.8926 86.0703C69.7793 81.9102 68.7832 79.1855 67.9043 77.8965C67.0254 76.5488 65.3848 75.875 62.9824 75.875C62.1621 75.875 60.5508 76.168 58.1484 76.7539C56.625 77.1055 54.9844 77.5156 53.2266 77.9844L52.4355 75.2598L62.1914 71.9199C64.7109 71.041 67.0254 70.3379 69.1348 69.8105C71.3027 69.2832 73.1484 69.0195 74.6719 69.0195C77.1328 69.0195 78.9785 69.752 80.209 71.2168C82.084 73.5605 83.666 78.1895 84.9551 85.1035L86.8008 95.123C92.0742 87.0371 96.1758 81.3535 99.1055 78.0723C101.742 75.084 104.232 72.8574 106.576 71.3926C108.92 69.9277 111.146 69.1953 113.256 69.1953C115.248 69.1953 116.859 69.4883 118.09 70.0742C120.316 71.1289 121.43 73.1211 121.43 76.0508C121.43 78.043 120.873 79.5957 119.76 80.709C118.646 81.8223 117.211 82.3789 115.453 82.3789C114.809 82.3789 114.193 82.3203 113.607 82.2031C113.021 82.0273 112.406 81.793 111.762 81.5L109.477 80.5332C108.832 80.2402 108.217 80.0059 107.631 79.8301C107.045 79.5957 106.605 79.4785 106.312 79.4785C103.676 79.4785 100.014 82.9062 95.3262 89.7617C90.6387 96.5586 88.2949 100.484 88.2949 101.539C88.2949 102.418 88.8223 105.289 89.877 110.152C90.9902 114.957 92.1914 120.055 93.4805 125.445C94.6523 130.543 95.6484 134.059 96.4688 135.992C97.8164 139.156 99.3398 140.738 101.039 140.738C102.621 140.738 104.232 139.859 105.873 138.102C107.514 136.344 109.975 133.18 113.256 128.609L115.717 130.104C113.197 134.674 110.59 138.57 107.895 141.793C102.797 147.887 97.9336 150.934 93.3047 150.934C90.375 150.934 88.0605 149.527 86.3613 146.715C85.3652 145.074 84.3984 142.379 83.4609 138.629L78.0117 116.92L59.9941 140.562C56.4785 144.664 53.7539 147.418 51.8203 148.824C49.9453 150.23 47.6016 150.934 44.7891 150.934C41.0391 150.934 38.4902 149.762 37.1426 147.418C36.3809 146.188 36 144.723 36 143.023Z"/>
</mask>
<path d="M38.1094 138.189L39.7735 140.686L39.8088 140.662L39.8434 140.638L38.1094 138.189ZM44.5254 137.047L43.5767 139.893L43.686 139.929L43.7978 139.957L44.5254 137.047ZM46.8105 138.014L45.3221 140.618L45.3505 140.635L45.3793 140.65L46.8105 138.014ZM49.8867 139.684L51.3751 137.079L51.3467 137.063L51.318 137.047L49.8867 139.684ZM51.0293 140.211L50.0806 143.057L50.3372 143.143L50.605 143.181L51.0293 140.211ZM55.6875 139.244L57.7223 141.449L57.7289 141.443L55.6875 139.244ZM61.8398 131.51L59.4457 129.702L59.4408 129.708L59.436 129.715L61.8398 131.51ZM76.6055 110.504L79.0753 112.207L79.6055 111.438V110.504H76.6055ZM74.584 101.1L71.6589 101.766L71.6603 101.772L74.584 101.1ZM70.8926 86.0703L67.9945 86.8458L67.9973 86.8562L70.8926 86.0703ZM67.9043 77.8965L65.3915 79.5353L65.4083 79.5611L65.4256 79.5865L67.9043 77.8965ZM58.1484 76.7539L58.823 79.6771L58.8412 79.6729L58.8593 79.6685L58.1484 76.7539ZM53.2266 77.9844L50.3455 78.8208L51.1638 81.6393L53.9996 80.8831L53.2266 77.9844ZM52.4355 75.2598L51.4639 72.4215L48.7567 73.3483L49.5545 76.0962L52.4355 75.2598ZM62.1914 71.9199L63.1631 74.7582L63.1713 74.7554L63.1795 74.7525L62.1914 71.9199ZM69.1348 69.8105L68.4257 66.8955L68.4164 66.8978L68.4072 66.9001L69.1348 69.8105ZM80.209 71.2168L82.5516 69.3427L82.5292 69.3147L82.5061 69.2872L80.209 71.2168ZM84.9551 85.1035L87.9054 84.56L87.9043 84.5537L84.9551 85.1035ZM86.8008 95.123L83.8504 95.6665L85.211 103.053L89.3136 96.7619L86.8008 95.123ZM99.1055 78.0723L101.343 80.0703L101.349 80.0637L101.355 80.0571L99.1055 78.0723ZM118.09 70.0742L116.8 72.7828L116.806 72.7854L118.09 70.0742ZM113.607 82.2031L112.745 85.0766L112.881 85.1172L113.019 85.1449L113.607 82.2031ZM111.762 81.5L113.003 78.7689L112.967 78.7525L112.931 78.7371L111.762 81.5ZM109.477 80.5332L108.235 83.2643L108.271 83.2807L108.308 83.2961L109.477 80.5332ZM107.631 79.8301L106.517 82.6155L106.641 82.6651L106.769 82.7036L107.631 79.8301ZM95.3262 89.7617L97.7958 91.4649L97.8026 91.455L95.3262 89.7617ZM89.877 110.152L86.9451 110.788L86.9496 110.809L86.9544 110.83L89.877 110.152ZM93.4805 125.445L96.4042 124.773L96.4013 124.76L96.3982 124.748L93.4805 125.445ZM96.4688 135.992L93.707 137.164L93.7087 137.168L96.4688 135.992ZM113.256 128.609L114.813 126.045L112.439 124.604L110.819 126.86L113.256 128.609ZM115.717 130.104L118.344 131.552L119.733 129.032L117.274 127.539L115.717 130.104ZM107.895 141.793L110.196 143.718L110.196 143.718L107.895 141.793ZM86.3613 146.715L88.9291 145.163L88.9257 145.158L86.3613 146.715ZM83.4609 138.629L86.3714 137.901L86.3707 137.899L83.4609 138.629ZM78.0117 116.92L80.9215 116.19L79.4039 110.144L75.6256 115.102L78.0117 116.92ZM59.9941 140.562L62.2719 142.515L62.328 142.449L62.3802 142.381L59.9941 140.562ZM51.8203 148.824L50.0558 146.398L50.038 146.411L50.0203 146.424L51.8203 148.824ZM37.1426 147.418L39.7433 145.923L39.719 145.88L39.6934 145.839L37.1426 147.418ZM39 143.023C39 141.352 39.4807 140.881 39.7735 140.686L36.4453 135.693C33.9255 137.373 33 140.125 33 143.023H39ZM39.8434 140.638C40.8347 139.935 41.6763 139.695 42.416 139.695V133.695C40.2261 133.695 38.1966 134.451 36.3753 135.741L39.8434 140.638ZM42.416 139.695C42.7796 139.695 43.1628 139.755 43.5767 139.893L45.4741 134.201C44.4817 133.87 43.4587 133.695 42.416 133.695V139.695ZM43.7978 139.957C44.168 140.05 44.6723 140.247 45.3221 140.618L48.299 135.409C47.3082 134.843 46.289 134.395 45.253 134.136L43.7978 139.957ZM45.3793 140.65L48.4554 142.32L51.318 137.047L48.2418 135.377L45.3793 140.65ZM48.3983 142.288C48.9357 142.595 49.4988 142.863 50.0806 143.057L51.978 137.365C51.8567 137.324 51.658 137.241 51.3751 137.079L48.3983 142.288ZM50.605 143.181C51.1726 143.262 51.7551 143.299 52.3477 143.299V137.299C52.0028 137.299 51.7063 137.277 51.4536 137.241L50.605 143.181ZM52.3477 143.299C54.2553 143.299 56.2137 142.841 57.7223 141.449L53.6527 137.04C53.6378 137.053 53.3697 137.299 52.3477 137.299V143.299ZM57.7289 141.443C58.3315 140.883 59.185 139.868 60.1886 138.607C61.2414 137.283 62.595 135.513 64.2437 133.305L59.436 129.715C57.8034 131.901 56.491 133.617 55.493 134.872C54.4458 136.188 53.8638 136.844 53.6461 137.046L57.7289 141.443ZM64.234 133.318C66.4493 130.384 71.4117 123.322 79.0753 112.207L74.1356 108.801C66.4477 119.951 61.5663 126.894 59.4457 129.702L64.234 133.318ZM79.6055 110.504C79.6055 110.191 79.5568 109.881 79.5388 109.765C79.5102 109.579 79.4715 109.362 79.4264 109.125C79.3355 108.647 79.2034 108.007 79.0331 107.215C78.6916 105.626 78.1824 103.361 77.5076 100.427L71.6603 101.772C72.3332 104.698 72.8347 106.93 73.1671 108.476C73.3337 109.251 73.4543 109.837 73.5319 110.246C73.571 110.452 73.5955 110.592 73.609 110.68C73.6331 110.836 73.6055 110.715 73.6055 110.504H79.6055ZM77.5091 100.433C76.1558 94.4908 74.9153 89.4385 73.7878 85.2845L67.9973 86.8562C69.0964 90.9053 70.3168 95.8725 71.6589 101.766L77.5091 100.433ZM73.7906 85.2948C72.6927 81.1922 71.5912 77.9785 70.383 76.2065L65.4256 79.5865C65.9752 80.3926 66.8659 82.6282 67.9946 86.8458L73.7906 85.2948ZM70.4171 76.2577C68.7458 73.6949 65.8661 72.875 62.9824 72.875V78.875C64.9034 78.875 65.305 79.4027 65.3915 79.5353L70.4171 76.2577ZM62.9824 72.875C61.7409 72.875 59.7779 73.2685 57.4376 73.8393L58.8593 79.6685C61.3237 79.0674 62.5834 78.875 62.9824 78.875V72.875ZM57.4739 73.8307C55.9127 74.191 54.2389 74.6096 52.4536 75.0857L53.9996 80.8831C55.7298 80.4217 57.3373 80.0199 58.823 79.6771L57.4739 73.8307ZM56.1076 77.1479L55.3166 74.4233L49.5545 76.0962L50.3455 78.8208L56.1076 77.1479ZM53.4072 78.0981L63.1631 74.7582L61.2197 69.0816L51.4639 72.4215L53.4072 78.0981ZM63.1795 74.7525C65.6318 73.8971 67.858 73.2221 69.8624 72.721L68.4072 66.9001C66.1928 67.4537 63.79 68.185 61.2033 69.0873L63.1795 74.7525ZM69.8438 72.7255C71.8764 72.2311 73.4698 72.0195 74.6719 72.0195V66.0195C72.8271 66.0195 70.729 66.3353 68.4257 66.8955L69.8438 72.7255ZM74.6719 72.0195C76.5198 72.0195 77.4065 72.5447 77.9119 73.1464L82.5061 69.2872C80.5506 66.9592 77.7458 66.0195 74.6719 66.0195V72.0195ZM77.8664 73.0909C78.4944 73.8759 79.2226 75.2501 79.963 77.4165C80.6917 79.5486 81.3775 82.2829 82.0059 85.6534L87.9043 84.5537C87.2436 81.0101 86.4939 77.9728 85.6405 75.4761C84.7989 73.0135 83.7986 70.9015 82.5516 69.3427L77.8664 73.0909ZM82.0047 85.647L83.8504 95.6665L89.7511 94.5796L87.9054 84.56L82.0047 85.647ZM89.3136 96.7619C94.5781 88.6897 98.5756 83.1701 101.343 80.0703L96.8677 76.0742C93.776 79.5369 89.5704 85.3845 84.2879 93.4842L89.3136 96.7619ZM101.355 80.0571C103.877 77.199 106.15 75.1965 108.166 73.9366L104.986 68.8486C102.315 70.5183 99.6075 72.9689 96.856 76.0874L101.355 80.0571ZM108.166 73.9366C110.178 72.6791 111.858 72.1953 113.256 72.1953V66.1953C110.435 66.1953 107.662 67.1763 104.986 68.8486L108.166 73.9366ZM113.256 72.1953C114.992 72.1953 116.115 72.4564 116.8 72.7828L119.38 67.3656C117.604 66.5202 115.504 66.1953 113.256 66.1953V72.1953ZM116.806 72.7854C117.402 73.0681 117.748 73.4153 117.976 73.8228C118.221 74.2622 118.43 74.9563 118.43 76.0508H124.43C124.43 74.2156 124.081 72.4487 123.214 70.8959C122.328 69.3113 121.004 68.135 119.374 67.363L116.806 72.7854ZM118.43 76.0508C118.43 77.4694 118.049 78.1767 117.638 78.5877L121.881 82.8303C123.697 81.0147 124.43 78.6165 124.43 76.0508H118.43ZM117.638 78.5877C117.156 79.0705 116.517 79.3789 115.453 79.3789V85.3789C117.905 85.3789 120.137 84.574 121.881 82.8303L117.638 78.5877ZM115.453 79.3789C114.991 79.3789 114.574 79.3369 114.196 79.2614L113.019 85.1449C113.813 85.3037 114.626 85.3789 115.453 85.3789V79.3789ZM114.469 79.3296C114.031 79.1982 113.543 79.0144 113.003 78.7689L110.52 84.2311C111.269 84.5715 112.012 84.8565 112.745 85.0766L114.469 79.3296ZM112.931 78.7371L110.645 77.7703L108.308 83.2961L110.593 84.2629L112.931 78.7371ZM110.718 77.8021C109.969 77.4617 109.227 77.1767 108.493 76.9566L106.769 82.7036C107.207 82.835 107.695 83.0188 108.235 83.2643L110.718 77.8021ZM108.745 77.0446C108.119 76.7943 107.221 76.4785 106.312 76.4785V82.4785C106.192 82.4785 106.112 82.467 106.086 82.4628C106.057 82.4582 106.056 82.4565 106.089 82.4651C106.158 82.4836 106.296 82.5272 106.517 82.6155L108.745 77.0446ZM106.312 76.4785C103.79 76.4785 101.483 78.0386 99.5383 79.8591C97.4776 81.7878 95.2479 84.5611 92.8497 88.0684L97.8026 91.455C100.092 88.1069 102.037 85.7385 103.638 84.2396C105.356 82.6323 106.199 82.4785 106.312 82.4785V76.4785ZM92.8565 88.0585C90.5 91.4754 88.6989 94.219 87.4769 96.2659C86.8687 97.2845 86.3731 98.1819 86.0199 98.9323C85.8437 99.3068 85.6806 99.6915 85.5564 100.067C85.4475 100.397 85.2949 100.931 85.2949 101.539H91.2949C91.2949 101.883 91.2156 102.064 91.2532 101.951C91.2754 101.883 91.3321 101.735 91.4488 101.487C91.6816 100.992 92.0649 100.286 92.6286 99.3415C93.7503 97.4626 95.4648 94.8449 97.7958 91.4649L92.8565 88.0585ZM85.2949 101.539C85.2949 102.304 85.4883 103.524 85.7398 104.894C86.0118 106.375 86.415 108.344 86.9451 110.788L92.8088 109.517C92.2842 107.098 91.8964 105.2 91.6411 103.81C91.5132 103.114 91.4224 102.565 91.3646 102.154C91.3012 101.703 91.2949 101.535 91.2949 101.539H85.2949ZM86.9544 110.83C88.0694 115.642 89.2722 120.746 90.5627 126.143L96.3982 124.748C95.1106 119.363 93.911 114.272 92.7995 109.475L86.9544 110.83ZM90.5567 126.117C91.727 131.208 92.772 134.96 93.707 137.164L99.2305 134.821C98.5249 133.157 97.5777 129.878 96.4042 124.773L90.5567 126.117ZM93.7087 137.168C94.4538 138.917 95.3445 140.473 96.4611 141.633C97.6145 142.83 99.1536 143.738 101.039 143.738V137.738C101.225 137.738 101.153 137.855 100.783 137.471C100.376 137.048 99.8314 136.231 99.2288 134.817L93.7087 137.168ZM101.039 143.738C103.802 143.738 106.151 142.2 108.066 140.149L103.68 136.055C102.314 137.519 101.44 137.738 101.039 137.738V143.738ZM108.066 140.149C109.851 138.237 112.409 134.933 115.693 130.359L110.819 126.86C107.54 131.427 105.177 134.451 103.68 136.055L108.066 140.149ZM111.699 131.174L114.16 132.668L117.274 127.539L114.813 126.045L111.699 131.174ZM113.09 128.655C110.642 133.095 108.139 136.824 105.593 139.868L110.196 143.718C113.04 140.317 115.753 136.252 118.344 131.552L113.09 128.655ZM105.593 139.868C100.674 145.749 96.5762 147.934 93.3047 147.934V153.934C99.2909 153.934 104.92 150.024 110.196 143.718L105.593 139.868ZM93.3047 147.934C91.5697 147.934 90.164 147.208 88.9291 145.163L83.7936 148.266C85.9571 151.847 89.1803 153.934 93.3047 153.934V147.934ZM88.9257 145.158C88.1748 143.921 87.2941 141.592 86.3714 137.901L80.5505 139.357C81.5027 143.165 82.5556 146.227 83.797 148.272L88.9257 145.158ZM86.3707 137.899L80.9215 116.19L75.102 117.65L80.5512 139.359L86.3707 137.899ZM75.6256 115.102L57.608 138.744L62.3802 142.381L80.3978 118.738L75.6256 115.102ZM57.7164 138.61C54.2113 142.699 51.6815 145.216 50.0558 146.398L53.5848 151.25C55.8263 149.62 58.7457 146.629 62.2719 142.515L57.7164 138.61ZM50.0203 146.424C48.7621 147.368 47.086 147.934 44.7891 147.934V153.934C48.1172 153.934 51.1285 153.093 53.6203 151.224L50.0203 146.424ZM44.7891 147.934C41.6462 147.934 40.358 146.992 39.7433 145.923L34.5419 148.913C36.6225 152.532 40.4319 153.934 44.7891 153.934V147.934ZM39.6934 145.839C39.2732 145.16 39 144.263 39 143.023H33C33 145.182 33.4885 147.215 34.5918 148.997L39.6934 145.839Z" fill="white" mask="url(#path-1-outside-1_2_15)"/>
<rect x="132" y="52" width="50" height="50" rx="15" stroke="white" stroke-width="3" stroke-linecap="round" stroke-dasharray="2 5"/>
<rect x="132" y="112" width="50" height="50" rx="15" stroke="white" stroke-width="3" stroke-linecap="round" stroke-dasharray="2 5"/>
</svg>
