<svg width="216" height="216" viewBox="0 0 216 216" fill="none" xmlns="http://www.w3.org/2000/svg">
<g clip-path="url(#clip0_10_19)">
<rect x="78" y="100" width="60" height="60" rx="15" stroke="white" stroke-width="4" stroke-linecap="round" stroke-dasharray="2 5"/>
<mask id="path-2-outside-1_10_19" maskUnits="userSpaceOnUse" x="81" y="59" width="54" height="21" fill="black">
<rect fill="white" x="81" y="59" width="54" height="21"/>
<path d="M87.5898 63.9238H128.068C128.85 63.9238 129.436 64.1191 129.826 64.5098C130.249 64.9004 130.461 65.4701 130.461 66.2188V72.3223C130.461 73.0059 130.201 73.6243 129.68 74.1777C129.191 74.7311 128.654 75.0078 128.068 75.0078H87.5898C86.9388 75.0078 86.418 74.7637 86.0273 74.2754C85.6693 73.7871 85.4902 73.1361 85.4902 72.3223V66.2188C85.4902 65.5352 85.6855 64.9818 86.0762 64.5586C86.4668 64.1354 86.9714 63.9238 87.5898 63.9238Z"/>
</mask>
<path d="M129.826 64.5098L126.998 67.3382L127.054 67.3947L127.113 67.449L129.826 64.5098ZM129.68 74.1777L126.767 71.4363L126.723 71.4831L126.68 71.5312L129.68 74.1777ZM86.0273 74.2754L82.8017 76.6408L82.8514 76.7086L82.9039 76.7742L86.0273 74.2754ZM87.5898 67.9238H128.068V59.9238H87.5898V67.9238ZM128.068 67.9238C128.233 67.9238 127.622 67.9623 126.998 67.3382L132.655 61.6813C131.249 60.276 129.466 59.9238 128.068 59.9238V67.9238ZM127.113 67.449C126.837 67.1939 126.653 66.8943 126.553 66.6227C126.506 66.4966 126.483 66.3937 126.472 66.3247C126.466 66.2902 126.464 66.2637 126.462 66.2461C126.461 66.2286 126.461 66.2192 126.461 66.2188H134.461C134.461 64.7073 134.011 62.9289 132.539 61.5706L127.113 67.449ZM126.461 66.2188V72.3223H134.461V66.2188H126.461ZM126.461 72.3223C126.461 72.1411 126.498 71.938 126.579 71.7466C126.657 71.5623 126.743 71.4612 126.767 71.4363L132.592 76.9192C133.727 75.7137 134.461 74.1419 134.461 72.3223H126.461ZM126.68 71.5312C126.695 71.515 126.819 71.3782 127.079 71.2444C127.359 71.1003 127.704 71.0078 128.068 71.0078V79.0078C130.087 79.0078 131.643 77.998 132.679 76.8242L126.68 71.5312ZM128.068 71.0078H87.5898V79.0078H128.068V71.0078ZM87.5898 71.0078C87.7735 71.0078 88.0717 71.0449 88.4087 71.2029C88.7505 71.3631 88.9972 71.5845 89.1508 71.7766L82.9039 76.7742C84.089 78.2556 85.7816 79.0078 87.5898 79.0078V71.0078ZM89.253 71.9099C89.5456 72.309 89.4902 72.5744 89.4902 72.3223H81.4902C81.4902 73.6978 81.793 75.2652 82.8017 76.6408L89.253 71.9099ZM89.4902 72.3223V66.2188H81.4902V72.3223H89.4902ZM89.4902 66.2188C89.4902 66.2572 89.4845 66.4073 89.4087 66.6223C89.329 66.848 89.1957 67.0763 89.0154 67.2717L83.137 61.8455C81.9401 63.1421 81.4902 64.7291 81.4902 66.2188H89.4902ZM89.0154 67.2717C88.8428 67.4587 88.5985 67.6438 88.2945 67.7713C87.997 67.896 87.7427 67.9238 87.5898 67.9238V59.9238C85.9475 59.9238 84.3453 60.5364 83.137 61.8455L89.0154 67.2717Z" fill="#FFAE00" mask="url(#path-2-outside-1_10_19)"/>
</g>
<defs>
<clipPath id="clip0_10_19">
<rect width="216" height="216" fill="white"/>
</clipPath>
</defs>
</svg>
