<svg width="216" height="216" viewBox="0 0 216 216" fill="none" xmlns="http://www.w3.org/2000/svg">
<mask id="path-1-outside-1_9_4" maskUnits="userSpaceOnUse" x="66" y="69" width="83" height="91" fill="black">
<rect fill="white" x="66" y="69" width="83" height="91"/>
<path d="M70.9883 73.8379H92.0332V76.2305H83.1465C81.1934 76.2305 79.875 76.849 79.1914 78.0859C78.8008 78.737 78.6055 79.6322 78.6055 80.7715V148.008C78.6055 149.505 78.8171 150.612 79.2402 151.328C79.9564 152.598 81.3724 153.232 83.4883 153.232H92.0332V155.771H70.9883V73.8379ZM144.914 155.771H123.82V153.33H132.756C134.676 153.33 135.995 152.728 136.711 151.523C137.069 150.872 137.248 149.977 137.248 148.838V81.5527C137.248 79.9577 136.923 78.7044 136.271 77.793C135.653 76.849 134.367 76.377 132.414 76.377H123.82V73.8379H144.914V155.771Z"/>
</mask>
<path d="M70.9883 73.8379V69.8379H66.9883V73.8379H70.9883ZM92.0332 73.8379H96.0332V69.8379H92.0332V73.8379ZM92.0332 76.2305V80.2305H96.0332V76.2305H92.0332ZM79.1914 78.0859L82.6214 80.1439L82.658 80.0829L82.6924 80.0207L79.1914 78.0859ZM79.2402 151.328L82.7241 149.363L82.7044 149.328L82.6839 149.293L79.2402 151.328ZM92.0332 153.232H96.0332V149.232H92.0332V153.232ZM92.0332 155.771V159.771H96.0332V155.771H92.0332ZM70.9883 155.771H66.9883V159.771H70.9883V155.771ZM70.9883 77.8379H92.0332V69.8379H70.9883V77.8379ZM88.0332 73.8379V76.2305H96.0332V73.8379H88.0332ZM92.0332 72.2305H83.1465V80.2305H92.0332V72.2305ZM83.1465 72.2305C80.3673 72.2305 77.3377 73.1704 75.6904 76.1512L82.6924 80.0207C82.6648 80.0705 82.6151 80.1403 82.5422 80.2079C82.4702 80.2746 82.4106 80.3068 82.3918 80.3156C82.3704 80.3257 82.5668 80.2305 83.1465 80.2305V72.2305ZM75.7614 76.028C74.8559 77.5371 74.6055 79.2442 74.6055 80.7715H82.6055C82.6055 80.4223 82.6361 80.2078 82.66 80.0983C82.6835 79.9907 82.6907 80.0284 82.6214 80.1439L75.7614 76.028ZM74.6055 80.7715V148.008H82.6055V80.7715H74.6055ZM74.6055 148.008C74.6055 149.729 74.8214 151.713 75.7965 153.363L82.6839 149.293C82.7736 149.445 82.7409 149.46 82.693 149.21C82.647 148.969 82.6055 148.581 82.6055 148.008H74.6055ZM75.7563 153.293C77.4764 156.343 80.6504 157.232 83.4883 157.232V149.232C82.8012 149.232 82.5179 149.125 82.4756 149.106C82.4646 149.101 82.508 149.12 82.5731 149.178C82.6402 149.238 82.692 149.306 82.7241 149.363L75.7563 153.293ZM83.4883 157.232H92.0332V149.232H83.4883V157.232ZM88.0332 153.232V155.771H96.0332V153.232H88.0332ZM92.0332 151.771H70.9883V159.771H92.0332V151.771ZM74.9883 155.771V73.8379H66.9883V155.771H74.9883ZM144.914 155.771V159.771H148.914V155.771H144.914ZM123.82 155.771H119.82V159.771H123.82V155.771ZM123.82 153.33V149.33H119.82V153.33H123.82ZM136.711 151.523L140.149 153.568L140.183 153.51L140.216 153.451L136.711 151.523ZM136.271 77.793L132.926 79.9851L132.97 80.0524L133.017 80.1179L136.271 77.793ZM123.82 76.377H119.82V80.377H123.82V76.377ZM123.82 73.8379V69.8379H119.82V73.8379H123.82ZM144.914 73.8379H148.914V69.8379H144.914V73.8379ZM144.914 151.771H123.82V159.771H144.914V151.771ZM127.82 155.771V153.33H119.82V155.771H127.82ZM123.82 157.33H132.756V149.33H123.82V157.33ZM132.756 157.33C135.501 157.33 138.456 156.415 140.149 153.568L133.273 149.479C133.298 149.437 133.342 149.379 133.405 149.323C133.467 149.268 133.515 149.244 133.523 149.24C133.526 149.239 133.32 149.33 132.756 149.33V157.33ZM140.216 153.451C141.027 151.976 141.248 150.323 141.248 148.838H133.248C133.248 149.206 133.218 149.444 133.191 149.579C133.164 149.715 133.15 149.699 133.206 149.596L140.216 153.451ZM141.248 148.838V81.5527H133.248V148.838H141.248ZM141.248 81.5527C141.248 79.4649 140.828 77.2907 139.526 75.468L133.017 80.1179C133.017 80.1182 133.248 80.4505 133.248 81.5527H141.248ZM139.617 75.6009C137.848 72.8997 134.733 72.377 132.414 72.377V80.377C132.745 80.377 132.995 80.3972 133.177 80.4236C133.359 80.4502 133.447 80.4795 133.465 80.4859C133.48 80.4915 133.409 80.4677 133.296 80.3833C133.176 80.2946 133.041 80.1619 132.926 79.9851L139.617 75.6009ZM132.414 72.377H123.82V80.377H132.414V72.377ZM127.82 76.377V73.8379H119.82V76.377H127.82ZM123.82 77.8379H144.914V69.8379H123.82V77.8379ZM140.914 73.8379V155.771H148.914V73.8379H140.914Z" fill="#FFAE00" mask="url(#path-1-outside-1_9_4)"/>
</svg>
