<svg width="216" height="216" viewBox="0 0 216 216" fill="none" xmlns="http://www.w3.org/2000/svg">
<mask id="path-1-outside-1_9_10" maskUnits="userSpaceOnUse" x="49" y="68" width="118" height="94" fill="black">
<rect fill="white" x="49" y="68" width="118" height="94"/>
<path d="M53.6543 113.291C57.5931 112.868 60.6042 111.989 62.6875 110.654C65.8776 108.571 67.4727 105.251 67.4727 100.693L67.5703 87.2656C67.5703 81.2435 69.9303 77.1419 74.6504 74.9609C77.3848 73.6914 82.235 72.8451 89.2012 72.4219V74.6191C85.6855 75.0098 82.4629 76.1654 79.5332 78.0859C76.6361 79.974 75.1875 83.099 75.1875 87.4609V99.4238C75.1875 104.567 73.9505 108.099 71.4766 110.02C69.0026 111.94 64.6081 113.535 58.293 114.805L56.584 115.146V115.391C63.2572 115.911 68.0098 117.425 70.8418 119.932C73.6738 122.438 75.1224 125.742 75.1875 129.844L75.334 143.613C75.3665 147.65 77.0104 150.677 80.2656 152.695C82.1211 153.835 85.0996 154.811 89.2012 155.625V157.822C82.6582 157.822 77.4173 156.699 73.4785 154.453C69.5397 152.207 67.5703 148.431 67.5703 143.125L67.4727 128.086C67.4727 124.31 65.7799 121.462 62.3945 119.541C60.474 118.467 57.5605 117.572 53.6543 116.855V113.291ZM162.248 116.855C158.244 117.604 155.298 118.516 153.41 119.59C150.122 121.51 148.479 124.342 148.479 128.086L148.381 143.125C148.381 148.398 146.428 152.158 142.521 154.404C138.615 156.683 133.342 157.822 126.701 157.822V155.625C130.803 154.811 133.781 153.835 135.637 152.695C138.957 150.677 140.617 147.65 140.617 143.613L140.715 129.844C140.715 125.417 142.294 122.031 145.451 119.688C148.609 117.344 153.247 115.911 159.367 115.391V115.146C152.303 113.747 147.73 112.347 145.646 110.947C142.359 108.734 140.715 104.893 140.715 99.4238V87.4609C140.715 82.806 138.778 79.3555 134.904 77.1094C132.723 75.8398 129.989 75.0098 126.701 74.6191V72.4219C135.067 72.4219 140.764 73.7728 143.791 76.4746C146.851 79.1439 148.381 82.7409 148.381 87.2656L148.479 100.693C148.479 105.413 150.188 108.799 153.605 110.85C155.559 112.054 158.439 112.868 162.248 113.291V116.855Z"/>
</mask>
<path d="M53.6543 113.291L53.227 109.314L49.6543 109.698V113.291H53.6543ZM62.6875 110.654L64.8452 114.022L64.86 114.013L64.8747 114.003L62.6875 110.654ZM67.4727 100.693L63.4728 100.664L63.4727 100.679V100.693H67.4727ZM67.5703 87.2656L71.5702 87.2947L71.5703 87.2802V87.2656H67.5703ZM74.6504 74.9609L76.3282 78.592L76.3348 78.589L74.6504 74.9609ZM89.2012 72.4219H93.2012V68.1715L88.9586 68.4292L89.2012 72.4219ZM89.2012 74.6191L89.6429 78.5947L93.2012 78.1993V74.6191H89.2012ZM79.5332 78.0859L81.7171 81.4371L81.7262 81.4312L79.5332 78.0859ZM58.293 114.805L59.0774 118.727L59.0813 118.726L58.293 114.805ZM56.584 115.146L55.7995 111.224L52.584 111.867V115.146H56.584ZM56.584 115.391H52.584V119.091L56.2727 119.378L56.584 115.391ZM75.1875 129.844L79.1873 129.801L79.1872 129.791L79.187 129.78L75.1875 129.844ZM75.334 143.613L79.3339 143.581L79.3338 143.571L75.334 143.613ZM80.2656 152.695L78.1579 156.095L78.1652 156.099L78.1726 156.104L80.2656 152.695ZM89.2012 155.625H93.2012V152.341L89.9796 151.701L89.2012 155.625ZM89.2012 157.822V161.822H93.2012V157.822H89.2012ZM67.5703 143.125H71.5703V143.112L71.5702 143.099L67.5703 143.125ZM67.4727 128.086H63.4727V128.099L63.4727 128.112L67.4727 128.086ZM62.3945 119.541L64.3683 116.062L64.3577 116.056L64.3471 116.05L62.3945 119.541ZM53.6543 116.855H49.6543V120.189L52.933 120.79L53.6543 116.855ZM54.0816 117.268C58.3062 116.814 62.0182 115.833 64.8452 114.022L60.5298 107.286C59.1902 108.144 56.88 108.921 53.227 109.314L54.0816 117.268ZM64.8747 114.003C69.43 111.028 71.4727 106.296 71.4727 100.693H63.4727C63.4727 104.206 62.3252 106.113 60.5003 107.305L64.8747 114.003ZM71.4726 100.722L71.5702 87.2947L63.5704 87.2365L63.4728 100.664L71.4726 100.722ZM71.5703 87.2656C71.5703 84.7673 72.0594 82.9676 72.8074 81.6678C73.5338 80.4053 74.6417 79.3713 76.3282 78.592L72.9726 71.3298C69.9391 72.7315 67.5069 74.8389 65.8733 77.6779C64.2612 80.4797 63.5703 83.7418 63.5703 87.2656H71.5703ZM76.3348 78.589C78.3201 77.6672 82.491 76.8369 89.4437 76.4145L88.9586 68.4292C81.9791 68.8532 76.4494 69.7156 72.9659 71.3329L76.3348 78.589ZM85.2012 72.4219V74.6191H93.2012V72.4219H85.2012ZM88.7594 70.6436C84.625 71.103 80.8013 72.4718 77.3402 74.7407L81.7262 81.4312C84.1245 79.859 86.7461 78.9165 89.6429 78.5947L88.7594 70.6436ZM77.3493 74.7347C73.0199 77.5562 71.1875 82.1479 71.1875 87.4609H79.1875C79.1875 84.05 80.2523 82.3918 81.7171 81.4371L77.3493 74.7347ZM71.1875 87.4609V99.4238H79.1875V87.4609H71.1875ZM71.1875 99.4238C71.1875 104.118 70.0344 106.075 69.0237 106.86L73.9294 113.179C77.8667 110.123 79.1875 105.016 79.1875 99.4238H71.1875ZM69.0237 106.86C67.3282 108.176 63.7236 109.633 57.5046 110.883L59.0813 118.726C65.4926 117.437 70.677 115.704 73.9294 113.179L69.0237 106.86ZM57.5085 110.882L55.7995 111.224L57.3684 119.069L59.0774 118.727L57.5085 110.882ZM52.584 115.146V115.391H60.584V115.146H52.584ZM56.2727 119.378C62.6709 119.878 66.3464 121.295 68.1908 122.927L73.4928 116.936C69.6731 113.556 63.8434 111.945 56.8952 111.403L56.2727 119.378ZM68.1908 122.927C70.105 124.621 71.139 126.823 71.188 129.907L79.187 129.78C79.1058 124.662 77.2427 120.255 73.4928 116.936L68.1908 122.927ZM71.1877 129.886L71.3342 143.656L79.3338 143.571L79.1873 129.801L71.1877 129.886ZM71.3341 143.646C71.377 148.965 73.662 153.307 78.1579 156.095L82.3734 149.296C80.3589 148.047 79.3561 146.334 79.3339 143.581L71.3341 143.646ZM78.1726 156.104C80.6517 157.626 84.2029 158.711 88.4227 159.549L89.9796 151.701C85.9963 150.911 83.5905 150.043 82.3587 149.287L78.1726 156.104ZM85.2012 155.625V157.822H93.2012V155.625H85.2012ZM89.2012 153.822C83.0642 153.822 78.5858 152.761 75.46 150.978L71.4971 157.928C76.2488 160.638 82.2522 161.822 89.2012 161.822V153.822ZM75.46 150.978C73.0035 149.578 71.5703 147.286 71.5703 143.125H63.5703C63.5703 149.576 66.0759 154.836 71.4971 157.928L75.46 150.978ZM71.5702 143.099L71.4726 128.06L63.4727 128.112L63.5704 143.151L71.5702 143.099ZM71.4727 128.086C71.4727 122.816 68.9583 118.666 64.3683 116.062L60.4208 123.02C62.6016 124.257 63.4727 125.804 63.4727 128.086H71.4727ZM64.3471 116.05C61.8512 114.654 58.4249 113.663 54.3756 112.921L52.933 120.79C56.6962 121.48 59.0967 122.28 60.4419 123.032L64.3471 116.05ZM57.6543 116.855V113.291H49.6543V116.855H57.6543ZM162.248 116.855L162.983 120.787L166.248 120.177V116.855H162.248ZM153.41 119.59L151.432 116.113L151.412 116.124L151.393 116.136L153.41 119.59ZM148.479 128.086L152.478 128.112L152.479 128.099V128.086H148.479ZM148.381 143.125L144.381 143.099L144.381 143.112V143.125H148.381ZM142.521 154.404L140.528 150.937L140.517 150.943L140.506 150.949L142.521 154.404ZM126.701 157.822H122.701V161.822H126.701V157.822ZM126.701 155.625L125.923 151.701L122.701 152.341V155.625H126.701ZM135.637 152.695L133.559 149.277L133.551 149.282L133.544 149.287L135.637 152.695ZM140.617 143.613L136.617 143.585L136.617 143.599V143.613H140.617ZM140.715 129.844L144.715 129.872L144.715 129.858V129.844H140.715ZM159.367 115.391L159.706 119.376L163.367 119.065V115.391H159.367ZM159.367 115.146H163.367V111.861L160.145 111.223L159.367 115.146ZM145.646 110.947L143.413 114.265L143.416 114.267L145.646 110.947ZM134.904 77.1094L132.892 80.5664L132.898 80.5698L134.904 77.1094ZM126.701 74.6191H122.701V78.172L126.229 78.5912L126.701 74.6191ZM126.701 72.4219V68.4219H122.701V72.4219H126.701ZM143.791 76.4746L141.128 79.4589L141.144 79.474L141.162 79.4889L143.791 76.4746ZM148.381 87.2656H144.381V87.2802L144.381 87.2947L148.381 87.2656ZM148.479 100.693H152.479V100.679L152.478 100.664L148.479 100.693ZM153.605 110.85L155.705 107.445L155.684 107.432L155.663 107.42L153.605 110.85ZM162.248 113.291H166.248V109.711L162.69 109.315L162.248 113.291ZM161.513 112.924C157.385 113.696 153.909 114.704 151.432 116.113L155.388 123.066C156.687 122.328 159.104 121.513 162.983 120.787L161.513 112.924ZM151.393 116.136C146.903 118.759 144.479 122.891 144.479 128.086H152.479C152.479 125.794 153.342 124.262 155.428 123.044L151.393 116.136ZM144.479 128.06L144.381 143.099L152.381 143.151L152.478 128.112L144.479 128.06ZM144.381 143.125C144.381 147.257 142.96 149.538 140.528 150.937L144.515 157.872C149.895 154.778 152.381 149.54 152.381 143.125H144.381ZM140.506 150.949C137.433 152.742 132.943 153.822 126.701 153.822V161.822C133.74 161.822 139.798 160.624 144.537 157.859L140.506 150.949ZM130.701 157.822V155.625H122.701V157.822H130.701ZM127.48 159.549C131.699 158.711 135.251 157.626 137.73 156.104L133.544 149.287C132.312 150.043 129.906 150.911 125.923 151.701L127.48 159.549ZM137.714 156.113C142.284 153.336 144.617 148.98 144.617 143.613H136.617C136.617 146.319 135.63 148.018 133.559 149.277L137.714 156.113ZM144.617 143.642L144.715 129.872L136.715 129.815L136.617 143.585L144.617 143.642ZM144.715 129.844C144.715 126.5 145.833 124.386 147.835 122.899L143.067 116.476C138.755 119.677 136.715 124.334 136.715 129.844H144.715ZM147.835 122.899C150.15 121.181 153.946 119.866 159.706 119.376L159.028 111.405C152.549 111.956 147.068 113.506 143.067 116.476L147.835 122.899ZM163.367 115.391V115.146H155.367V115.391H163.367ZM160.145 111.223C156.686 110.537 153.92 109.868 151.81 109.222C149.624 108.553 148.418 107.99 147.877 107.627L143.416 114.267C144.959 115.304 147.081 116.141 149.469 116.872C151.932 117.626 154.984 118.356 158.59 119.07L160.145 111.223ZM147.88 107.629C146.087 106.422 144.715 104.114 144.715 99.4238H136.715C136.715 105.671 138.63 111.046 143.413 114.265L147.88 107.629ZM144.715 99.4238V87.4609H136.715V99.4238H144.715ZM144.715 87.4609C144.715 81.449 142.077 76.6448 136.911 73.649L132.898 80.5698C135.479 82.0662 136.715 84.1629 136.715 87.4609H144.715ZM136.917 73.6524C134.14 72.0362 130.843 71.0831 127.173 70.6471L126.229 78.5912C129.135 78.9365 131.307 79.6435 132.892 80.5664L136.917 73.6524ZM130.701 74.6191V72.4219H122.701V74.6191H130.701ZM126.701 76.4219C134.962 76.4219 139.295 77.8235 141.128 79.4589L146.454 73.4903C142.232 69.7221 135.172 68.4219 126.701 68.4219V76.4219ZM141.162 79.4889C143.245 81.3064 144.381 83.7486 144.381 87.2656H152.381C152.381 81.7332 150.457 76.9813 146.42 73.4603L141.162 79.4889ZM144.381 87.2947L144.479 100.722L152.478 100.664L152.381 87.2365L144.381 87.2947ZM144.479 100.693C144.479 106.514 146.685 111.362 151.547 114.28L155.663 107.42C153.69 106.236 152.479 104.313 152.479 100.693H144.479ZM151.506 114.254C154.192 115.91 157.754 116.816 161.806 117.267L162.69 109.315C159.125 108.919 156.926 108.198 155.705 107.445L151.506 114.254ZM158.248 113.291V116.855H166.248V113.291H158.248Z" fill="#FFAE00" mask="url(#path-1-outside-1_9_10)"/>
</svg>
