<svg width="216" height="216" viewBox="0 0 216 216" fill="none" xmlns="http://www.w3.org/2000/svg">
<mask id="path-1-outside-1_9_2" maskUnits="userSpaceOnUse" x="62" y="66" width="91" height="98" fill="black">
<rect fill="white" x="62" y="66" width="91" height="98"/>
<path d="M66.7891 114.902C66.7891 103.574 70.1745 93.6296 76.9453 85.0684C81.112 79.8275 86.0273 75.612 91.6914 72.4219L92.6191 74.0332C87.3783 78.1999 83.6348 82.2526 81.3887 86.1914C77.4499 93.0599 75.4805 102.207 75.4805 113.633C75.4805 122.096 76.2292 129.079 77.7266 134.58C80.3633 144.215 85.3275 151.426 92.6191 156.211L91.3496 157.822C87.3457 155.902 83.0163 152.142 78.3613 146.543C70.6465 137.266 66.7891 126.719 66.7891 114.902ZM148.967 115.391C148.967 120.241 148.332 124.831 147.062 129.16C145.793 133.49 143.938 137.575 141.496 141.416C138.924 145.518 135.49 149.342 131.193 152.891C128.361 155.234 125.985 156.878 124.064 157.822L123.137 156.211C128.15 152.402 131.812 148.512 134.123 144.541C138.225 137.51 140.275 128.216 140.275 116.66C140.275 107.318 139.331 99.6842 137.443 93.7598C134.807 85.3939 130.038 78.8184 123.137 74.0332L124.406 72.4219C129.549 75.2865 134.335 79.6159 138.762 85.4102C145.565 94.3294 148.967 104.323 148.967 115.391Z"/>
</mask>
<path d="M76.9453 85.0684L73.8143 82.5791L73.8079 82.5871L76.9453 85.0684ZM91.6914 72.4219L95.1579 70.426L93.1808 66.9922L89.7285 68.9366L91.6914 72.4219ZM92.6191 74.0332L95.1084 77.1643L97.8037 75.0214L96.0856 72.0373L92.6191 74.0332ZM81.3887 86.1914L84.8586 88.1813L84.8634 88.1729L81.3887 86.1914ZM77.7266 134.58L73.867 135.631L73.8684 135.636L77.7266 134.58ZM92.6191 156.211L95.7611 158.686L98.4607 155.26L94.8138 152.867L92.6191 156.211ZM91.3496 157.822L89.6196 161.429L92.5086 162.815L94.4916 160.298L91.3496 157.822ZM78.3613 146.543L81.4371 143.986L81.4369 143.985L78.3613 146.543ZM70.7891 114.902C70.7891 104.438 73.8929 95.3761 80.0827 87.5496L73.8079 82.5871C66.456 91.883 62.7891 102.71 62.7891 114.902H70.7891ZM80.0764 87.5576C83.9314 82.7087 88.4539 78.8361 93.6544 75.9071L89.7285 68.9366C83.6008 72.3878 78.2925 76.9463 73.8143 82.5791L80.0764 87.5576ZM88.2249 74.4177L89.1527 76.0291L96.0856 72.0373L95.1579 70.426L88.2249 74.4177ZM90.1299 70.9022C84.6631 75.2484 80.5025 79.6706 77.9139 84.2099L84.8634 88.1729C86.7671 84.8346 90.0934 81.1513 95.1084 77.1643L90.1299 70.9022ZM77.9187 84.2015C73.5121 91.8858 71.4805 101.799 71.4805 113.633H79.4805C79.4805 102.615 81.3876 94.234 84.8586 88.1813L77.9187 84.2015ZM71.4805 113.633C71.4805 122.297 72.2432 129.665 73.867 135.631L81.5861 133.53C80.2152 128.493 79.4805 121.895 79.4805 113.633H71.4805ZM73.8684 135.636C76.7225 146.066 82.2001 154.158 90.4245 159.555L94.8138 152.867C88.4548 148.694 84.0041 142.365 81.5847 133.524L73.8684 135.636ZM89.4772 153.735L88.2076 155.347L94.4916 160.298L95.7611 158.686L89.4772 153.735ZM93.0796 154.216C89.8231 152.654 85.9309 149.391 81.4371 143.986L75.2855 149.1C80.1016 154.893 84.8683 159.15 89.6196 161.429L93.0796 154.216ZM81.4369 143.985C74.3056 135.41 70.7891 125.763 70.7891 114.902H62.7891C62.7891 127.674 66.9873 139.121 75.2858 149.101L81.4369 143.985ZM141.496 141.416L138.12 139.27L138.114 139.281L138.107 139.291L141.496 141.416ZM131.193 152.891L128.646 149.806L128.643 149.809L131.193 152.891ZM124.064 157.822L120.598 159.818L122.467 163.064L125.829 161.412L124.064 157.822ZM123.137 156.211L120.717 153.026L117.914 155.156L119.67 158.207L123.137 156.211ZM134.123 144.541L130.668 142.526L130.666 142.529L134.123 144.541ZM137.443 93.7598L133.628 94.9622L133.632 94.9743L137.443 93.7598ZM123.137 74.0332L119.995 71.5577L117.363 74.8975L120.857 77.3203L123.137 74.0332ZM124.406 72.4219L126.353 68.9273L123.374 67.2685L121.264 69.9464L124.406 72.4219ZM138.762 85.4102L141.942 82.9842L141.94 82.9817L138.762 85.4102ZM144.967 115.391C144.967 119.888 144.379 124.097 143.224 128.035L150.901 130.286C152.285 125.564 152.967 120.593 152.967 115.391H144.967ZM143.224 128.035C142.061 132.001 140.362 135.743 138.12 139.27L144.872 143.562C147.513 139.407 149.525 134.978 150.901 130.286L143.224 128.035ZM138.107 139.291C135.794 142.98 132.662 146.49 128.646 149.806L133.74 155.975C138.318 152.195 142.055 148.055 144.885 143.541L138.107 139.291ZM128.643 149.809C125.907 152.074 123.81 153.49 122.3 154.232L125.829 161.412C128.16 160.266 130.816 158.395 133.744 155.972L128.643 149.809ZM127.531 155.826L126.603 154.215L119.67 158.207L120.598 159.818L127.531 155.826ZM125.557 159.396C130.844 155.379 134.925 151.115 137.58 146.553L130.666 142.529C128.698 145.91 125.456 149.426 120.717 153.026L125.557 159.396ZM137.578 146.556C142.156 138.709 144.275 128.643 144.275 116.66H136.275C136.275 127.789 134.294 136.31 130.668 142.526L137.578 146.556ZM144.275 116.66C144.275 107.091 143.314 99.0068 141.255 92.5452L133.632 94.9743C135.349 100.362 136.275 107.545 136.275 116.66H144.275ZM141.258 92.5574C138.368 83.386 133.08 76.0603 125.416 70.7461L120.857 77.3203C126.995 81.5764 131.246 87.4017 133.628 94.9622L141.258 92.5574ZM126.279 76.5087L127.548 74.8974L121.264 69.9464L119.995 71.5577L126.279 76.5087ZM122.46 75.9164C127.024 78.4583 131.412 82.3794 135.583 87.8386L141.94 82.9817C137.257 76.8524 132.075 72.1146 126.353 68.9273L122.46 75.9164ZM135.581 87.8361C141.861 96.0686 144.967 105.212 144.967 115.391H152.967C152.967 103.434 149.269 92.5903 141.942 82.9842L135.581 87.8361Z" fill="#FFAE00" mask="url(#path-1-outside-1_9_2)"/>
</svg>
