<svg width="216" height="216" viewBox="0 0 216 216" fill="none" xmlns="http://www.w3.org/2000/svg">
<rect x="78" y="100" width="60" height="60" rx="15" stroke="white" stroke-width="4" stroke-linecap="round" stroke-dasharray="2 5"/>
<mask id="path-2-outside-1_10_12" maskUnits="userSpaceOnUse" x="84" y="49" width="48" height="33" fill="black">
<rect fill="white" x="84" y="49" width="48" height="33"/>
<path d="M107.951 64.4824L92.9609 76.8848C92.7005 77.1126 92.3913 77.2917 92.0332 77.4219C91.7077 77.5521 91.3822 77.6172 91.0566 77.6172C90.2754 77.6172 89.6081 77.373 89.0547 76.8848C88.5339 76.3639 88.2734 75.7292 88.2734 74.9805C88.2734 74.5573 88.3874 74.0853 88.6152 73.5645C88.8431 73.0436 89.1686 72.5553 89.5918 72.0996L104.582 54.5215C104.94 54.0332 105.412 53.6589 105.998 53.3984C106.617 53.138 107.268 53.0078 107.951 53.0078C108.667 53.0078 109.318 53.138 109.904 53.3984C110.49 53.6589 110.979 54.0332 111.369 54.5215L126.457 72.0996C126.848 72.5228 127.141 73.0111 127.336 73.5645C127.564 74.0853 127.678 74.5898 127.678 75.0781C127.678 75.8268 127.401 76.4616 126.848 76.9824C126.327 77.4707 125.708 77.7148 124.992 77.7148C124.699 77.7148 124.423 77.6823 124.162 77.6172C123.934 77.5195 123.706 77.373 123.479 77.1777L107.951 64.4824Z"/>
</mask>
<path d="M107.951 64.4824L110.483 61.3857L107.936 59.3033L105.401 61.4005L107.951 64.4824ZM92.9609 76.8848L90.4111 73.8028L90.3685 73.8381L90.3269 73.8745L92.9609 76.8848ZM92.0332 77.4219L90.6662 73.6627L90.6066 73.6844L90.5476 73.708L92.0332 77.4219ZM89.0547 76.8848L86.2263 79.7132L86.3146 79.8015L86.4082 79.8841L89.0547 76.8848ZM89.5918 72.0996L92.523 74.8214L92.5805 74.7594L92.6354 74.6951L89.5918 72.0996ZM104.582 54.5215L107.626 57.117L107.721 57.0053L107.808 56.8869L104.582 54.5215ZM105.998 53.3984L104.446 49.7119L104.41 49.7272L104.373 49.7432L105.998 53.3984ZM111.369 54.5215L108.246 57.0203L108.289 57.0743L108.334 57.1267L111.369 54.5215ZM126.457 72.0996L123.422 74.7049L123.469 74.7597L123.518 74.8127L126.457 72.0996ZM127.336 73.5645L123.564 74.8957L123.613 75.0337L123.671 75.1677L127.336 73.5645ZM126.848 76.9824L129.583 79.9006L129.589 79.8952L126.848 76.9824ZM124.162 77.6172L122.586 81.2938L122.881 81.42L123.192 81.4978L124.162 77.6172ZM123.479 77.1777L126.082 74.1407L126.046 74.1105L126.01 74.081L123.479 77.1777ZM105.401 61.4005L90.4111 73.8028L95.5108 79.9667L110.501 67.5643L105.401 61.4005ZM90.3269 73.8745C90.4748 73.7451 90.6063 73.6845 90.6662 73.6627L93.4002 81.181C94.1763 80.8988 94.9263 80.4802 95.595 79.8951L90.3269 73.8745ZM90.5476 73.708C90.6579 73.6639 90.8352 73.6172 91.0566 73.6172V81.6172C91.9291 81.6172 92.7574 81.4403 93.5188 81.1358L90.5476 73.708ZM91.0566 73.6172C91.0883 73.6172 91.1962 73.6233 91.3445 73.6776C91.4964 73.7331 91.6193 73.8131 91.7012 73.8854L86.4082 79.8841C87.7377 81.0572 89.363 81.6172 91.0566 81.6172V73.6172ZM91.8831 74.0563C91.9695 74.1427 92.0841 74.2918 92.1694 74.4998C92.2542 74.7065 92.2734 74.8819 92.2734 74.9805H84.2734C84.2734 76.7704 84.9415 78.4285 86.2263 79.7132L91.8831 74.0563ZM92.2734 74.9805C92.2734 75.1274 92.2538 75.2204 92.2472 75.2476C92.2409 75.274 92.2444 75.2489 92.2799 75.1677L84.9506 71.9612C84.5734 72.8234 84.2734 73.8507 84.2734 74.9805H92.2734ZM92.2799 75.1677C92.3116 75.0951 92.3767 74.9789 92.523 74.8214L86.6606 69.3778C85.9605 70.1317 85.3746 70.9921 84.9506 71.9612L92.2799 75.1677ZM92.6354 74.6951L107.626 57.117L101.538 51.926L86.5482 69.5041L92.6354 74.6951ZM107.808 56.8869C107.777 56.9294 107.735 56.9726 107.69 57.0085C107.646 57.0436 107.618 57.0559 107.623 57.0537L104.373 49.7432C103.19 50.2694 102.151 51.0723 101.356 52.156L107.808 56.8869ZM107.55 57.085C107.668 57.0354 107.791 57.0078 107.951 57.0078V49.0078C106.745 49.0078 105.565 49.2407 104.446 49.7119L107.55 57.085ZM107.951 57.0078C108.173 57.0078 108.262 57.0458 108.28 57.0537L111.529 49.7432C110.375 49.2302 109.161 49.0078 107.951 49.0078V57.0078ZM108.28 57.0537C108.289 57.058 108.292 57.06 108.291 57.0588C108.289 57.0576 108.283 57.0544 108.276 57.0489C108.269 57.0435 108.262 57.0374 108.256 57.0314C108.25 57.0254 108.246 57.0212 108.246 57.0203L114.493 52.0227C113.692 51.0215 112.684 50.2567 111.529 49.7432L108.28 57.0537ZM108.334 57.1267L123.422 74.7049L129.492 69.4944L114.404 51.9162L108.334 57.1267ZM123.518 74.8127C123.533 74.8289 123.546 74.8448 123.564 74.8957L131.108 72.2332C130.735 71.1774 130.163 70.2166 129.396 69.3865L123.518 74.8127ZM123.671 75.1677C123.693 75.2181 123.695 75.233 123.691 75.2145C123.686 75.1947 123.678 75.1474 123.678 75.0781H131.678C131.678 73.9548 131.414 72.9053 131.001 71.9612L123.671 75.1677ZM123.678 75.0781C123.678 74.9476 123.705 74.744 123.803 74.5174C123.902 74.292 124.027 74.1438 124.106 74.0696L129.589 79.8952C130.932 78.6313 131.678 76.9484 131.678 75.0781H123.678ZM124.112 74.0643C124.192 73.9891 124.331 73.8875 124.524 73.8111C124.718 73.7348 124.887 73.7148 124.992 73.7148V81.7148C126.721 81.7148 128.319 81.0863 129.583 79.9006L124.112 74.0643ZM124.992 73.7148C124.997 73.7148 125.048 73.7155 125.132 73.7366L123.192 81.4978C123.797 81.649 124.402 81.7148 124.992 81.7148V73.7148ZM125.738 73.9406C125.952 74.0323 126.064 74.1256 126.082 74.1407L120.875 80.2148C121.349 80.6205 121.917 81.0068 122.586 81.2938L125.738 73.9406ZM126.01 74.081L110.483 61.3857L105.419 67.5791L120.947 80.2744L126.01 74.081Z" fill="#FFAE00" mask="url(#path-2-outside-1_10_12)"/>
</svg>
