<svg width="216" height="216" viewBox="0 0 216 216" fill="none" xmlns="http://www.w3.org/2000/svg">
<g clip-path="url(#clip0_2_49)">
<mask id="path-1-outside-1_2_49" maskUnits="userSpaceOnUse" x="35" y="20" width="109" height="158" fill="black">
<rect fill="white" x="35" y="20" width="109" height="158"/>
<path d="M48.4844 156.328C51.5573 156.328 53.4844 158.047 54.2656 161.484C55.099 164.922 56.4531 166.641 58.3281 166.641C61.6615 166.641 64.6562 163.594 67.3125 157.5C68.7708 154.01 70.4896 148.438 72.4688 140.781L88.4062 77.1094C91.8958 63.099 95.9062 52.0833 100.438 44.0625C107.938 30.6771 117.234 23.9844 128.328 23.9844C132.755 23.9844 136.01 24.8698 138.094 26.6406C140.177 28.3594 140.906 30.7292 140.281 33.75C139.76 36.25 138.667 38.2552 137 39.7656C135.333 41.276 133.172 42.0312 130.516 42.0312C127.339 42.0312 125.229 40.3125 124.188 36.875C123.146 33.4375 121.922 31.7188 120.516 31.7188C117.547 31.7188 114.969 33.8021 112.781 37.9688C111.375 40.5729 110.203 43.8542 109.266 47.8125L93.6406 110.781C89.0052 129.479 84.474 143.099 80.0469 151.641C72.0781 166.953 61.9479 174.609 49.6562 174.609C45.2812 174.609 42.2083 173.62 40.4375 171.641C38.6146 169.661 37.9896 167.344 38.5625 164.688C39.1354 161.771 40.3854 159.635 42.3125 158.281C44.1875 156.979 46.2448 156.328 48.4844 156.328Z"/>
</mask>
<path d="M54.2656 161.484L51.3402 162.149L51.345 162.17L51.3501 162.191L54.2656 161.484ZM67.3125 157.5L70.0626 158.699L70.0717 158.678L70.0805 158.657L67.3125 157.5ZM72.4688 140.781L75.3733 141.532L75.3762 141.521L75.379 141.51L72.4688 140.781ZM88.4062 77.1094L91.3165 77.8378L91.3173 77.8344L88.4062 77.1094ZM100.438 44.0625L103.05 45.5381L103.055 45.5289L100.438 44.0625ZM138.094 26.6406L136.151 28.9264L136.168 28.9407L136.185 28.9547L138.094 26.6406ZM140.281 33.75L143.218 34.3619L143.219 34.3578L140.281 33.75ZM112.781 37.9688L115.421 39.3942L115.429 39.3788L115.437 39.3633L112.781 37.9688ZM109.266 47.8125L112.177 48.535L112.181 48.5195L112.185 48.5039L109.266 47.8125ZM93.6406 110.781L90.7289 110.059L90.7288 110.059L93.6406 110.781ZM80.0469 151.641L82.7081 153.026L82.7104 153.021L80.0469 151.641ZM40.4375 171.641L42.6732 169.64L42.6588 169.624L42.6441 169.608L40.4375 171.641ZM38.5625 164.688L41.4951 165.32L41.5009 165.293L41.5062 165.266L38.5625 164.688ZM42.3125 158.281L40.6013 155.817L40.5945 155.822L40.5877 155.827L42.3125 158.281ZM48.4844 159.328C49.432 159.328 49.9246 159.577 50.2375 159.856C50.5928 160.173 51.0385 160.821 51.3402 162.149L57.191 160.82C56.7115 158.71 55.8031 156.78 54.2312 155.378C52.617 153.939 50.6097 153.328 48.4844 153.328V159.328ZM51.3501 162.191C51.813 164.101 52.4912 165.865 53.5498 167.208C54.6889 168.654 56.3117 169.641 58.3281 169.641V163.641C58.325 163.641 58.3402 163.641 58.3668 163.647C58.3938 163.654 58.4159 163.663 58.4291 163.67C58.4573 163.685 58.3935 163.661 58.2627 163.495C57.9672 163.12 57.5516 162.306 57.1812 160.778L51.3501 162.191ZM58.3281 169.641C61.0098 169.641 63.3192 168.386 65.2137 166.458C67.0704 164.57 68.6604 161.916 70.0626 158.699L64.5624 156.301C63.3084 159.178 62.0729 161.095 60.9347 162.253C59.8345 163.372 58.9798 163.641 58.3281 163.641V169.641ZM70.0805 158.657C71.6261 154.958 73.3881 149.211 75.3733 141.532L69.5642 140.03C67.591 147.664 65.9156 153.062 64.5445 156.343L70.0805 158.657ZM75.379 141.51L91.3165 77.8378L85.496 76.3809L69.5585 140.053L75.379 141.51ZM91.3173 77.8344C94.774 63.956 98.7043 53.2295 103.05 45.5381L97.8255 42.5869C93.1082 50.9371 89.0176 62.2419 85.4952 76.3843L91.3173 77.8344ZM103.055 45.5289C110.254 32.6809 118.72 26.9844 128.328 26.9844V20.9844C115.749 20.9844 105.621 28.6733 97.8203 42.5961L103.055 45.5289ZM128.328 26.9844C132.456 26.9844 134.858 27.8274 136.151 28.9264L140.037 24.3548C137.163 21.9122 133.055 20.9844 128.328 20.9844V26.9844ZM136.185 28.9547C136.816 29.4756 137.159 30.0151 137.336 30.5893C137.52 31.1872 137.578 32.0074 137.343 33.1422L143.219 34.3578C143.609 32.4717 143.616 30.5967 143.07 28.8248C142.518 27.0291 141.455 25.5244 140.003 24.3265L136.185 28.9547ZM137.344 33.1381C136.935 35.1047 136.12 36.5146 134.985 37.5427L139.015 41.9886C141.214 39.9958 142.586 37.3953 143.218 34.3619L137.344 33.1381ZM134.985 37.5427C133.968 38.4647 132.57 39.0312 130.516 39.0312V45.0312C133.774 45.0312 136.699 44.0873 139.015 41.9886L134.985 37.5427ZM130.516 39.0312C129.496 39.0312 128.878 38.7688 128.446 38.4165C127.981 38.0379 127.461 37.3323 127.059 36.005L121.316 37.745C121.956 39.8552 123.011 41.7277 124.656 43.0679C126.333 44.4343 128.358 45.0312 130.516 45.0312V39.0312ZM127.059 36.005C126.5 34.1612 125.82 32.5141 124.932 31.2676C124.052 30.0316 122.605 28.7188 120.516 28.7188V34.7188C119.833 34.7188 119.701 34.2653 120.045 34.748C120.381 35.2203 120.833 36.1513 121.316 37.745L127.059 36.005ZM120.516 28.7188C115.87 28.7188 112.503 32.0446 110.125 36.5742L115.437 39.3633C117.434 35.5596 119.224 34.7188 120.516 34.7188V28.7188ZM110.142 36.5433C108.574 39.4469 107.324 42.9951 106.346 47.1211L112.185 48.5039C113.083 44.7133 114.176 41.6989 115.421 39.3942L110.142 36.5433ZM106.354 47.09L90.7289 110.059L96.5523 111.504L112.177 48.535L106.354 47.09ZM90.7288 110.059C86.1054 128.709 81.6413 142.045 77.3834 150.26L82.7104 153.021C87.3067 144.153 91.905 130.25 96.5525 111.503L90.7288 110.059ZM77.3857 150.256C69.6957 165.033 60.3938 171.609 49.6562 171.609V177.609C63.502 177.609 74.4606 168.874 82.7081 153.026L77.3857 150.256ZM49.6562 171.609C45.6005 171.609 43.5961 170.672 42.6732 169.64L38.2018 173.641C40.8206 176.568 44.962 177.609 49.6562 177.609V171.609ZM42.6441 169.608C41.4898 168.355 41.1254 167.034 41.4951 165.32L35.6299 164.055C34.8538 167.653 35.7394 170.968 38.2309 173.673L42.6441 169.608ZM41.5062 165.266C41.9709 162.9 42.8978 161.537 44.0373 160.736L40.5877 155.827C37.873 157.734 36.2999 160.641 35.6188 164.109L41.5062 165.266ZM44.0237 160.745C45.4066 159.785 46.869 159.328 48.4844 159.328V153.328C45.6206 153.328 42.9684 154.173 40.6013 155.817L44.0237 160.745Z" fill="white" mask="url(#path-1-outside-1_2_49)"/>
<rect x="97" y="145" width="31" height="31" rx="8" stroke="white" stroke-width="2.5" stroke-linecap="round" stroke-dasharray="2 5"/>
<rect x="147" y="33" width="31" height="31" rx="8" stroke="white" stroke-width="2.5" stroke-linecap="round" stroke-dasharray="2 5"/>
</g>
<defs>
<clipPath id="clip0_2_49">
<rect width="216" height="216" fill="white"/>
</clipPath>
</defs>
</svg>
