<svg width="216" height="216" viewBox="0 0 216 216" fill="none" xmlns="http://www.w3.org/2000/svg">
<mask id="path-1-outside-1_2_44" maskUnits="userSpaceOnUse" x="40" y="68" width="138" height="75" fill="black">
<rect fill="white" x="40" y="68" width="138" height="75"/>
<path d="M43.3027 138.633C46.3301 138.34 48.3809 137.738 49.4551 136.826C50.5293 135.882 51.0664 134.059 51.0664 131.357V83.6523C51.0664 81.5039 50.8874 80.0228 50.5293 79.209C49.8783 77.8418 48.5599 77.1582 46.5742 77.1582C46.1185 77.1582 45.6139 77.207 45.0605 77.3047C44.5397 77.4023 43.8724 77.5488 43.0586 77.7441V76.1328C47.4531 74.9609 52.7428 73.3984 58.9277 71.4453C59.1556 71.4453 59.2858 71.543 59.3184 71.7383C59.3835 71.9336 59.416 72.3568 59.416 73.0078V131.553C59.416 134.385 59.9043 136.224 60.8809 137.07C61.8574 137.884 63.8757 138.405 66.9355 138.633V140H43.3027V138.633ZM77.2871 76.9629C77.2871 75.5632 77.7754 74.3587 78.752 73.3496C79.7285 72.3405 80.9329 71.8359 82.3652 71.8359C83.765 71.8359 84.9531 72.3405 85.9297 73.3496C86.9388 74.3262 87.4434 75.5306 87.4434 76.9629C87.4434 78.3626 86.9388 79.5671 85.9297 80.5762C84.9531 81.5527 83.765 82.041 82.3652 82.041C80.9329 82.041 79.7285 81.5527 78.752 80.5762C77.7754 79.5671 77.2871 78.3626 77.2871 76.9629ZM71.0371 138.633C74.5202 138.307 76.7174 137.721 77.6289 136.875C78.5404 135.996 78.9961 133.652 78.9961 129.844V106.553C78.9961 104.437 78.8496 102.972 78.5566 102.158C78.0684 100.824 77.043 100.156 75.4805 100.156C75.1224 100.156 74.7643 100.189 74.4062 100.254C74.0807 100.319 73.1042 100.579 71.4766 101.035V99.5215L73.5762 98.8379C79.2728 96.9824 83.2441 95.5827 85.4902 94.6387C86.4017 94.248 86.9876 94.0527 87.248 94.0527C87.3132 94.2806 87.3457 94.5247 87.3457 94.7852V129.844C87.3457 133.555 87.7852 135.882 88.6641 136.826C89.5755 137.77 91.61 138.372 94.7676 138.633V140H71.0371V138.633ZM98.5273 138.73C101.066 138.503 102.759 138.079 103.605 137.461C104.908 136.517 105.559 134.629 105.559 131.797V106.553C105.559 104.144 105.233 102.565 104.582 101.816C103.964 101.068 102.922 100.693 101.457 100.693C100.773 100.693 100.253 100.726 99.8945 100.791C99.569 100.856 99.1784 100.97 98.7227 101.133V99.4238L102.238 98.252C103.508 97.8288 105.591 97.0638 108.488 95.957C111.385 94.8503 112.915 94.2969 113.078 94.2969C113.241 94.2969 113.339 94.3783 113.371 94.541C113.404 94.7038 113.42 95.013 113.42 95.4688V102.061C116.643 99.1309 119.426 97.1126 121.77 96.0059C124.113 94.8665 126.522 94.2969 128.996 94.2969C132.349 94.2969 135.018 95.4362 137.004 97.7148C138.046 98.9518 138.908 100.628 139.592 102.744C142.001 100.303 144.1 98.4961 145.891 97.3242C148.983 95.306 152.141 94.2969 155.363 94.2969C160.604 94.2969 164.104 96.429 165.861 100.693C166.87 103.102 167.375 106.911 167.375 112.119V132.383C167.375 134.694 167.88 136.273 168.889 137.119C169.93 137.933 171.786 138.47 174.455 138.73V140H152.434V138.633C155.266 138.372 157.121 137.803 158 136.924C158.911 136.045 159.367 134.255 159.367 131.553V110.508C159.367 107.35 159.025 105.023 158.342 103.525C157.137 100.856 154.777 99.5215 151.262 99.5215C149.146 99.5215 147.046 100.221 144.963 101.621C143.758 102.435 142.277 103.737 140.52 105.527V130.527C140.52 133.164 140.975 135.166 141.887 136.533C142.831 137.9 144.8 138.633 147.795 138.73V140H125.383V138.73C128.475 138.34 130.445 137.591 131.291 136.484C132.137 135.378 132.561 132.66 132.561 128.33V114.658C132.561 109.645 132.235 106.195 131.584 104.307C130.51 101.117 128.231 99.5215 124.748 99.5215C122.762 99.5215 120.809 100.075 118.889 101.182C116.968 102.256 115.275 103.672 113.811 105.43V132.139C113.811 134.613 114.234 136.322 115.08 137.266C115.959 138.21 117.847 138.698 120.744 138.73V140H98.5273V138.73Z"/>
</mask>
<path d="M43.3027 138.633L43.0138 135.647L40.3027 135.909V138.633H43.3027ZM49.4551 136.826L51.396 139.114L51.4159 139.097L51.4354 139.08L49.4551 136.826ZM50.5293 79.209L53.2752 78.0008L53.2572 77.9597L53.2379 77.9192L50.5293 79.209ZM45.0605 77.3047L44.5392 74.3503L44.5234 74.3531L44.5077 74.3561L45.0605 77.3047ZM43.0586 77.7441H40.0586V81.5493L43.7587 80.6613L43.0586 77.7441ZM43.0586 76.1328L42.2856 73.2341L40.0586 73.828V76.1328H43.0586ZM58.9277 71.4453V68.4453H58.4653L58.0243 68.5846L58.9277 71.4453ZM59.3184 71.7383L56.3592 72.2315L56.3979 72.4637L56.4723 72.687L59.3184 71.7383ZM60.8809 137.07L58.9161 139.337L58.938 139.356L58.9603 139.375L60.8809 137.07ZM66.9355 138.633H69.9355V135.848L67.1583 135.641L66.9355 138.633ZM66.9355 140V143H69.9355V140H66.9355ZM43.3027 140H40.3027V143H43.3027V140ZM43.5917 141.619C46.6646 141.321 49.5571 140.674 51.396 139.114L47.5141 134.539C47.2047 134.801 45.9955 135.358 43.0138 135.647L43.5917 141.619ZM51.4354 139.08C53.543 137.228 54.0664 134.224 54.0664 131.357H48.0664C48.0664 133.895 47.5156 134.537 47.4747 134.573L51.4354 139.08ZM54.0664 131.357V83.6523H48.0664V131.357H54.0664ZM54.0664 83.6523C54.0664 81.5163 53.9142 79.453 53.2752 78.0008L47.7834 80.4172C47.779 80.4073 47.8055 80.4669 47.8432 80.6281C47.8798 80.7846 47.9189 81.0016 47.9538 81.2902C48.0241 81.872 48.0664 82.651 48.0664 83.6523H54.0664ZM53.2379 77.9192C51.9286 75.1697 49.2892 74.1582 46.5742 74.1582V80.1582C47.2416 80.1582 47.558 80.2754 47.6713 80.3342C47.7228 80.3609 47.7431 80.3804 47.7521 80.3897C47.7615 80.3995 47.7871 80.4282 47.8207 80.4988L53.2379 77.9192ZM46.5742 74.1582C45.9089 74.1582 45.2267 74.229 44.5392 74.3503L45.5819 80.259C46.0012 80.185 46.328 80.1582 46.5742 80.1582V74.1582ZM44.5077 74.3561C43.9178 74.4667 43.1967 74.6258 42.3585 74.827L43.7587 80.6613C44.5481 80.4718 45.1616 80.338 45.6134 80.2533L44.5077 74.3561ZM46.0586 77.7441V76.1328H40.0586V77.7441H46.0586ZM43.8316 79.0315C48.2839 77.8442 53.6196 76.2676 59.8311 74.3061L58.0243 68.5846C51.8661 70.5293 46.6224 72.0776 42.2856 73.2341L43.8316 79.0315ZM58.9277 74.4453C58.6459 74.4453 58.022 74.3878 57.3963 73.9186C56.7159 73.4083 56.4407 72.7205 56.3592 72.2315L62.2775 71.2451C62.1635 70.5608 61.8068 69.7265 60.9963 69.1186C60.2404 68.5516 59.4374 68.4453 58.9277 68.4453V74.4453ZM56.4723 72.687C56.4422 72.5965 56.4245 72.5253 56.4149 72.483C56.405 72.439 56.3999 72.4085 56.3978 72.3954C56.3941 72.3718 56.3964 72.3802 56.4004 72.4322C56.4086 72.5384 56.416 72.7233 56.416 73.0078H62.416C62.416 72.6413 62.4072 72.2891 62.3828 71.9721C62.3631 71.717 62.3195 71.2548 62.1644 70.7896L56.4723 72.687ZM56.416 73.0078V131.553H62.416V73.0078H56.416ZM56.416 131.553C56.416 133.115 56.548 134.565 56.8827 135.826C57.2121 137.067 57.8051 138.375 58.9161 139.337L62.8457 134.803C62.98 134.92 62.8406 134.885 62.6818 134.286C62.5282 133.708 62.416 132.822 62.416 131.553H56.416ZM58.9603 139.375C59.9402 140.192 61.1803 140.667 62.3773 140.976C63.6191 141.297 65.0798 141.503 66.7128 141.625L67.1583 135.641C65.7314 135.535 64.653 135.367 63.8766 135.166C63.0553 134.955 62.7981 134.763 62.8014 134.766L58.9603 139.375ZM63.9355 138.633V140H69.9355V138.633H63.9355ZM66.9355 137H43.3027V143H66.9355V137ZM46.3027 140V138.633H40.3027V140H46.3027ZM85.9297 73.3496L83.7739 75.4359L83.8081 75.4712L83.8434 75.5054L85.9297 73.3496ZM78.752 80.5762L76.5961 82.6624L76.6132 82.6801L76.6306 82.6975L78.752 80.5762ZM71.0371 138.633L70.758 135.646L68.0371 135.9V138.633H71.0371ZM77.6289 136.875L79.6703 139.073L79.691 139.054L79.7113 139.035L77.6289 136.875ZM78.5566 102.158L81.3793 101.142L81.3767 101.135L81.374 101.127L78.5566 102.158ZM74.4062 100.254L73.8696 97.3023L73.8437 97.307L73.8179 97.3122L74.4062 100.254ZM71.4766 101.035H68.4766V104.991L72.2855 103.924L71.4766 101.035ZM71.4766 99.5215L70.5478 96.6689L68.4766 97.3432V99.5215H71.4766ZM73.5762 98.8379L74.5049 101.691L74.5053 101.69L73.5762 98.8379ZM85.4902 94.6387L86.6526 97.4043L86.6623 97.4003L86.672 97.3961L85.4902 94.6387ZM87.248 94.0527L90.1326 93.2286L89.511 91.0527H87.248V94.0527ZM88.6641 136.826L86.4684 138.87L86.4869 138.89L86.5059 138.91L88.6641 136.826ZM94.7676 138.633H97.7676V135.87L95.0142 135.643L94.7676 138.633ZM94.7676 140V143H97.7676V140H94.7676ZM71.0371 140H68.0371V143H71.0371V140ZM80.2871 76.9629C80.2871 76.3446 80.4707 75.8875 80.9078 75.4359L76.5961 71.2633C75.0801 72.8299 74.2871 74.7817 74.2871 76.9629H80.2871ZM80.9078 75.4359C81.3066 75.0238 81.7274 74.8359 82.3652 74.8359V68.8359C80.1385 68.8359 78.1505 69.6572 76.5961 71.2633L80.9078 75.4359ZM82.3652 74.8359C82.9493 74.8359 83.3604 75.0086 83.7739 75.4359L88.0855 71.2633C86.5458 69.6724 84.5807 68.8359 82.3652 68.8359V74.8359ZM83.8434 75.5054C84.2555 75.9042 84.4434 76.325 84.4434 76.9629H90.4434C90.4434 74.7362 89.6221 72.7481 88.016 71.1938L83.8434 75.5054ZM84.4434 76.9629C84.4434 77.5497 84.2672 77.996 83.8084 78.4549L88.051 82.6975C89.6104 81.1381 90.4434 79.1756 90.4434 76.9629H84.4434ZM83.8084 78.4549C83.4029 78.8603 82.9814 79.041 82.3652 79.041V85.041C84.5485 85.041 86.5034 84.2451 88.051 82.6975L83.8084 78.4549ZM82.3652 79.041C81.6956 79.041 81.2643 78.8459 80.8733 78.4549L76.6306 82.6975C78.1927 84.2595 80.1702 85.041 82.3652 85.041V79.041ZM80.9078 78.4899C80.4707 78.0383 80.2871 77.5812 80.2871 76.9629H74.2871C74.2871 79.1441 75.0801 81.0958 76.5961 82.6624L80.9078 78.4899ZM71.3163 141.62C73.1459 141.449 74.7482 141.201 76.0704 140.848C77.3108 140.517 78.6679 140.004 79.6703 139.073L75.5876 134.677C75.6785 134.592 75.4812 134.795 74.5244 135.051C73.6493 135.284 72.4113 135.491 70.758 135.646L71.3163 141.62ZM79.7113 139.035C80.8573 137.929 81.3427 136.35 81.5991 135.031C81.8787 133.593 81.9961 131.841 81.9961 129.844H75.9961C75.9961 131.655 75.8856 132.979 75.7095 133.885C75.5102 134.91 75.312 134.942 75.5465 134.715L79.7113 139.035ZM81.9961 129.844V106.553H75.9961V129.844H81.9961ZM81.9961 106.553C81.9961 104.449 81.869 102.502 81.3793 101.142L75.734 103.174C75.8302 103.442 75.9961 104.425 75.9961 106.553H81.9961ZM81.374 101.127C80.9444 99.9532 80.1989 98.885 79.0578 98.1423C77.9396 97.4146 76.6829 97.1562 75.4805 97.1562V103.156C75.6599 103.156 75.7609 103.176 75.8026 103.186C75.84 103.196 75.8253 103.197 75.785 103.171C75.7427 103.144 75.7115 103.111 75.6967 103.092C75.6848 103.076 75.706 103.098 75.7393 103.189L81.374 101.127ZM75.4805 97.1562C74.9395 97.1562 74.4018 97.2055 73.8696 97.3023L74.9429 103.206C75.1268 103.172 75.3053 103.156 75.4805 103.156V97.1562ZM73.8179 97.3122C73.352 97.4053 72.2373 97.7068 70.6677 98.1463L72.2855 103.924C73.0941 103.698 73.7317 103.522 74.2027 103.397C74.4384 103.334 74.6255 103.285 74.7676 103.25C74.8385 103.232 74.8938 103.219 74.9354 103.209C74.9793 103.199 74.9965 103.195 74.9946 103.196L73.8179 97.3122ZM74.4766 101.035V99.5215H68.4766V101.035H74.4766ZM72.4053 102.374L74.5049 101.691L72.6474 95.9853L70.5478 96.6689L72.4053 102.374ZM74.5053 101.69C80.2001 99.8355 84.279 98.4019 86.6526 97.4043L84.3279 91.873C82.2093 92.7634 78.3455 94.1293 72.6471 95.9854L74.5053 101.69ZM86.672 97.3961C87.091 97.2165 87.3803 97.1058 87.562 97.0453C87.6526 97.0151 87.6825 97.0088 87.6663 97.0125C87.6564 97.0148 87.6189 97.0232 87.5594 97.0317C87.5039 97.0397 87.3946 97.0527 87.248 97.0527V91.0527C86.5827 91.0527 85.9588 91.2551 85.6646 91.3532C85.2603 91.4879 84.8009 91.6702 84.3085 91.8812L86.672 97.3961ZM84.3635 94.8769C84.3449 94.8117 84.3457 94.7762 84.3457 94.7852H90.3457C90.3457 94.2733 90.2815 93.7495 90.1326 93.2286L84.3635 94.8769ZM84.3457 94.7852V129.844H90.3457V94.7852H84.3457ZM84.3457 129.844C84.3457 131.794 84.4593 133.509 84.7274 134.929C84.977 136.251 85.437 137.763 86.4684 138.87L90.8597 134.782C91.0122 134.946 90.8131 134.822 90.6232 133.816C90.4518 132.908 90.3457 131.605 90.3457 129.844H84.3457ZM86.5059 138.91C87.4785 139.917 88.7829 140.496 90.0221 140.862C91.3074 141.243 92.8271 141.483 94.521 141.623L95.0142 135.643C93.5506 135.522 92.4742 135.331 91.725 135.109C90.9297 134.874 90.7611 134.679 90.8223 134.742L86.5059 138.91ZM91.7676 138.633V140H97.7676V138.633H91.7676ZM94.7676 137H71.0371V143H94.7676V137ZM74.0371 140V138.633H68.0371V140H74.0371ZM98.5273 138.73L98.2592 135.742L95.5273 135.988V138.73H98.5273ZM103.605 137.461L101.845 135.032L101.835 135.039L103.605 137.461ZM104.582 101.816L102.269 103.727L102.293 103.756L102.318 103.785L104.582 101.816ZM99.8945 100.791L99.3579 97.8394L99.332 97.8441L99.3062 97.8493L99.8945 100.791ZM98.7227 101.133H95.7227V105.39L99.7317 103.958L98.7227 101.133ZM98.7227 99.4238L97.774 96.5778L95.7227 97.2616V99.4238H98.7227ZM102.238 98.252L101.29 95.4059L102.238 98.252ZM113.42 102.061H110.42V108.842L115.438 104.28L113.42 102.061ZM121.77 96.0059L123.051 98.7186L123.066 98.7114L123.081 98.704L121.77 96.0059ZM137.004 97.7148L139.299 95.7824L139.282 95.763L139.266 95.7439L137.004 97.7148ZM139.592 102.744L136.737 103.666L138.256 108.369L141.727 104.851L139.592 102.744ZM145.891 97.3242L144.251 94.8119L144.248 94.8141L145.891 97.3242ZM165.861 100.693L163.088 101.837L163.091 101.845L163.094 101.853L165.861 100.693ZM168.889 137.119L166.961 139.418L167.001 139.451L167.042 139.483L168.889 137.119ZM174.455 138.73H177.455V136.009L174.746 135.745L174.455 138.73ZM174.455 140V143H177.455V140H174.455ZM152.434 140H149.434V143H152.434V140ZM152.434 138.633L152.159 135.645L149.434 135.896V138.633H152.434ZM158 136.924L155.918 134.764L155.898 134.783L155.879 134.803L158 136.924ZM158.342 103.525L155.607 104.759L155.613 104.771L158.342 103.525ZM144.963 101.621L143.29 99.1309L143.283 99.1353L144.963 101.621ZM140.52 105.527L138.379 103.426L137.52 104.301V105.527H140.52ZM141.887 136.533L139.391 138.197L139.404 138.218L139.418 138.238L141.887 136.533ZM147.795 138.73H150.795V135.827L147.893 135.732L147.795 138.73ZM147.795 140V143H150.795V140H147.795ZM125.383 140H122.383V143H125.383V140ZM125.383 138.73L125.007 135.754L122.383 136.086V138.73H125.383ZM131.584 104.307L128.741 105.264L128.744 105.274L128.748 105.285L131.584 104.307ZM118.889 101.182L120.353 103.8L120.37 103.791L120.387 103.781L118.889 101.182ZM113.811 105.43L111.506 103.509L110.811 104.344V105.43H113.811ZM115.08 137.266L112.846 139.268L112.865 139.289L112.884 139.31L115.08 137.266ZM120.744 138.73H123.744V135.764L120.778 135.731L120.744 138.73ZM120.744 140V143H123.744V140H120.744ZM98.5273 140H95.5273V143H98.5273V140ZM98.7955 141.718C100.156 141.596 101.38 141.415 102.429 141.153C103.434 140.901 104.499 140.523 105.376 139.883L101.835 135.039C101.865 135.017 101.661 135.16 100.974 135.332C100.33 135.493 99.4376 135.637 98.2592 135.742L98.7955 141.718ZM105.366 139.89C107.884 138.065 108.559 134.879 108.559 131.797H102.559C102.559 134.378 101.932 134.969 101.845 135.032L105.366 139.89ZM108.559 131.797V106.553H102.559V131.797H108.559ZM108.559 106.553C108.559 105.234 108.471 104.017 108.253 102.956C108.044 101.944 107.658 100.782 106.846 99.8479L102.318 103.785C102.157 103.599 102.259 103.601 102.376 104.168C102.483 104.686 102.559 105.462 102.559 106.553H108.559ZM106.895 99.9058C105.466 98.176 103.354 97.6934 101.457 97.6934V103.693C101.949 103.693 102.213 103.758 102.322 103.797C102.409 103.828 102.349 103.823 102.269 103.727L106.895 99.9058ZM101.457 97.6934C100.721 97.6934 99.9851 97.7254 99.3579 97.8394L100.431 103.743C100.52 103.726 100.826 103.693 101.457 103.693V97.6934ZM99.3062 97.8493C98.7894 97.9526 98.2505 98.1159 97.7136 98.3076L99.7317 103.958C100.106 103.824 100.349 103.76 100.483 103.733L99.3062 97.8493ZM101.723 101.133V99.4238H95.7227V101.133H101.723ZM99.6713 102.27L103.187 101.098L101.29 95.4059L97.774 96.5778L99.6713 102.27ZM103.187 101.098C104.524 100.652 106.66 99.867 109.559 98.7595L107.418 93.1546C104.522 94.2606 102.492 95.0051 101.29 95.4059L103.187 101.098ZM109.559 98.7595C111.003 98.2079 112.09 97.8005 112.829 97.533C113.202 97.3982 113.465 97.3068 113.632 97.2521C113.719 97.2237 113.751 97.2147 113.746 97.216C113.745 97.2163 113.705 97.2275 113.641 97.2409C113.629 97.2433 113.393 97.2969 113.078 97.2969V91.2969C112.743 91.2969 112.476 91.3548 112.423 91.3658C112.316 91.3878 112.224 91.4121 112.16 91.4296C112.029 91.4655 111.892 91.5084 111.767 91.5491C111.512 91.6328 111.18 91.749 110.788 91.8908C109.998 92.1767 108.871 92.5994 107.418 93.1546L109.559 98.7595ZM113.078 97.2969C112.658 97.2969 111.98 97.1848 111.353 96.6626C110.733 96.146 110.506 95.5126 110.429 95.1294L116.313 93.9527C116.204 93.4067 115.912 92.6512 115.194 92.0532C114.47 91.4496 113.661 91.2969 113.078 91.2969V97.2969ZM110.429 95.1294C110.421 95.0853 110.415 95.0521 110.413 95.0332C110.41 95.0137 110.409 95.0018 110.408 94.9992C110.408 94.9956 110.41 95.0116 110.412 95.0527C110.416 95.1367 110.42 95.2715 110.42 95.4688H116.42C116.42 95.0439 116.412 94.4485 116.313 93.9527L110.429 95.1294ZM110.42 95.4688V102.061H116.42V95.4688H110.42ZM115.438 104.28C118.569 101.434 121.097 99.6413 123.051 98.7186L120.489 93.2931C117.755 94.5839 114.717 96.8273 111.402 99.8407L115.438 104.28ZM123.081 98.704C125.039 97.7524 127.001 97.2969 128.996 97.2969V91.2969C126.043 91.2969 123.188 91.9806 120.458 93.3078L123.081 98.704ZM128.996 97.2969C131.588 97.2969 133.393 98.137 134.742 99.6858L139.266 95.7439C136.644 92.7354 133.11 91.2969 128.996 91.2969V97.2969ZM134.709 99.6473C135.426 100.498 136.131 101.791 136.737 103.666L142.447 101.822C141.685 99.4657 140.665 97.4056 139.299 95.7824L134.709 99.6473ZM141.727 104.851C144.065 102.482 145.995 100.842 147.534 99.8343L144.248 94.8141C142.206 96.1506 139.937 98.1232 137.456 100.637L141.727 104.851ZM147.53 99.8365C150.208 98.0889 152.804 97.2969 155.363 97.2969V91.2969C151.477 91.2969 147.758 92.5231 144.251 94.8119L147.53 99.8365ZM155.363 97.2969C157.584 97.2969 159.192 97.748 160.357 98.4579C161.495 99.151 162.42 100.217 163.088 101.837L168.635 99.55C167.545 96.9056 165.841 94.7732 163.479 93.3341C161.145 91.9118 158.383 91.2969 155.363 91.2969V97.2969ZM163.094 101.853C163.862 103.685 164.375 106.992 164.375 112.119H170.375C170.375 106.83 169.879 102.519 168.628 99.5342L163.094 101.853ZM164.375 112.119V132.383H170.375V112.119H164.375ZM164.375 132.383C164.375 134.945 164.902 137.691 166.961 139.418L170.817 134.821C170.846 134.845 170.735 134.775 170.611 134.387C170.482 133.984 170.375 133.341 170.375 132.383H164.375ZM167.042 139.483C168.8 140.857 171.404 141.447 174.164 141.716L174.746 135.745C172.168 135.493 171.06 135.009 170.736 134.755L167.042 139.483ZM171.455 138.73V140H177.455V138.73H171.455ZM174.455 137H152.434V143H174.455V137ZM155.434 140V138.633H149.434V140H155.434ZM152.708 141.62C154.244 141.479 155.637 141.244 156.83 140.878C157.988 140.523 159.194 139.972 160.121 139.045L155.879 134.803C155.927 134.754 155.766 134.928 155.069 135.142C154.406 135.346 153.455 135.526 152.159 135.645L152.708 141.62ZM160.082 139.083C161.084 138.118 161.627 136.864 161.933 135.662C162.243 134.442 162.367 133.05 162.367 131.553H156.367C156.367 132.758 156.263 133.612 156.118 134.182C155.968 134.77 155.828 134.851 155.918 134.764L160.082 139.083ZM162.367 131.553V110.508H156.367V131.553H162.367ZM162.367 110.508C162.367 107.244 162.031 104.382 161.071 102.28L155.613 104.771C156.02 105.663 156.367 107.457 156.367 110.508H162.367ZM161.076 102.292C160.234 100.425 158.925 98.9179 157.145 97.9111C155.4 96.9243 153.387 96.5215 151.262 96.5215V102.521C152.652 102.521 153.577 102.786 154.192 103.134C154.771 103.462 155.245 103.957 155.607 104.759L161.076 102.292ZM151.262 96.5215C148.446 96.5215 145.774 97.4619 143.29 99.1309L146.636 104.111C148.319 102.981 149.846 102.521 151.262 102.521V96.5215ZM143.283 99.1353C141.835 100.114 140.192 101.579 138.379 103.426L142.66 107.629C144.363 105.895 145.681 104.756 146.642 104.107L143.283 99.1353ZM137.52 105.527V130.527H143.52V105.527H137.52ZM137.52 130.527C137.52 133.429 138.007 136.122 139.391 138.197L144.383 134.869C143.944 134.21 143.52 132.899 143.52 130.527H137.52ZM139.418 138.238C141.215 140.84 144.483 141.624 147.697 141.729L147.893 135.732C145.117 135.642 144.447 134.961 144.355 134.829L139.418 138.238ZM144.795 138.73V140H150.795V138.73H144.795ZM147.795 137H125.383V143H147.795V137ZM128.383 140V138.73H122.383V140H128.383ZM125.759 141.707C127.44 141.494 128.96 141.169 130.245 140.68C131.504 140.202 132.78 139.475 133.674 138.307L128.908 134.662C128.955 134.6 128.824 134.801 128.113 135.072C127.429 135.332 126.418 135.576 125.007 135.754L125.759 141.707ZM133.674 138.307C134.576 137.128 134.98 135.537 135.207 134.077C135.452 132.505 135.561 130.572 135.561 128.33H129.561C129.561 130.417 129.457 132.009 129.279 133.154C129.083 134.412 128.853 134.734 128.908 134.662L133.674 138.307ZM135.561 128.33V114.658H129.561V128.33H135.561ZM135.561 114.658C135.561 109.667 135.254 105.748 134.42 103.329L128.748 105.285C129.216 106.642 129.561 109.624 129.561 114.658H135.561ZM134.427 103.349C133.73 101.278 132.557 99.4969 130.79 98.2601C129.032 97.0295 126.949 96.5215 124.748 96.5215V102.521C126.03 102.521 126.828 102.811 127.349 103.175C127.861 103.534 128.364 104.145 128.741 105.264L134.427 103.349ZM124.748 96.5215C122.177 96.5215 119.713 97.2443 117.391 98.5824L120.387 103.781C121.906 102.905 123.347 102.521 124.748 102.521V96.5215ZM117.424 98.5634C115.171 99.8239 113.196 101.481 111.506 103.509L116.115 107.35C117.355 105.863 118.766 104.688 120.353 103.8L117.424 98.5634ZM110.811 105.43V132.139H116.811V105.43H110.811ZM110.811 132.139C110.811 134.743 111.213 137.446 112.846 139.268L117.314 135.263C117.32 135.27 117.177 135.108 117.04 134.555C116.905 134.01 116.811 133.222 116.811 132.139H110.811ZM112.884 139.31C113.865 140.363 115.17 140.925 116.404 141.244C117.666 141.571 119.125 141.712 120.71 141.73L120.778 135.731C119.466 135.716 118.532 135.597 117.906 135.435C117.252 135.266 117.174 135.112 117.276 135.221L112.884 139.31ZM117.744 138.73V140H123.744V138.73H117.744ZM120.744 137H98.5273V143H120.744V137ZM101.527 140V138.73H95.5273V140H101.527Z" fill="white" mask="url(#path-1-outside-1_2_44)"/>
<rect x="92" y="157" width="31" height="31" rx="8" stroke="white" stroke-width="2.5" stroke-linecap="round" stroke-dasharray="2 5"/>
</svg>
