<svg width="1138" height="234" viewBox="0 0 1138 234" fill="none" xmlns="http://www.w3.org/2000/svg">
<g clip-path="url(#clip0_7_67)">
<mask id="path-1-outside-1_7_67" maskUnits="userSpaceOnUse" x="398.027" y="46.9836" width="726" height="133" fill="black">
<rect fill="white" x="398.027" y="46.9836" width="726" height="133"/>
<path d="M465.148 51.7825C472.121 51.7825 478.976 52.7493 485.715 54.6829C492.453 56.6165 496.32 57.5833 497.316 57.5833C499.894 57.5833 501.711 57.0852 502.766 56.0891C503.879 55.093 504.816 53.6575 505.578 51.7825H509.533L510.939 89.6633H506.808C503.117 80.9329 499.308 74.429 495.383 70.1516C488.293 62.6516 479.064 58.9016 467.697 58.9016C456.154 58.9016 445.988 63.2961 437.199 72.0852C428.469 80.8157 424.103 95.2297 424.103 115.327C424.103 131.909 428.469 144.859 437.199 154.175C445.93 163.491 456.711 168.15 469.543 168.15C471.711 168.15 474.26 167.945 477.189 167.534C480.119 167.124 482.902 166.48 485.539 165.601C489.816 164.195 492.482 162.993 493.537 161.997C494.592 160.943 495.119 159.419 495.119 157.427V128.687C495.119 121.773 494.123 117.466 492.131 115.767C490.197 114.068 485.92 113.013 479.299 112.603V109.263H525.178V112.603C520.724 112.896 517.766 113.628 516.301 114.8C513.84 116.675 512.609 120.542 512.609 126.402V161.822C512.609 163.931 507.424 166.743 497.053 170.259C486.74 173.775 476.808 175.532 467.258 175.532C449.68 175.532 434.855 170.406 422.785 160.152C409.484 148.843 402.834 133.667 402.834 114.624C402.834 97.8665 408.137 83.511 418.742 71.5579C430.402 58.3743 445.871 51.7825 465.148 51.7825ZM569.826 90.5422C578.088 90.5422 585.324 93.4133 591.535 99.1555C597.746 104.839 600.851 112.925 600.851 123.413H545.041C545.627 137.007 548.703 146.909 554.269 153.12C559.836 159.331 566.428 162.437 574.045 162.437C580.197 162.437 585.383 160.825 589.601 157.603C593.82 154.38 597.717 149.81 601.291 143.892L604.367 144.947C601.965 152.388 597.453 159.273 590.832 165.601C584.269 171.929 576.213 175.093 566.662 175.093C555.646 175.093 547.121 170.933 541.086 162.613C535.109 154.292 532.121 144.712 532.121 133.872C532.121 122.095 535.607 111.929 542.58 103.374C549.553 94.8196 558.635 90.5422 569.826 90.5422ZM564.728 96.9583C558.049 96.9583 552.951 99.9172 549.435 105.835C547.56 108.999 546.213 112.984 545.392 117.788H582.482C581.838 111.929 580.724 107.564 579.142 104.693C576.271 99.5364 571.467 96.9583 564.728 96.9583ZM611.838 170.523C615.998 169.995 618.898 168.97 620.539 167.447C622.238 165.865 623.088 162.378 623.088 156.988V112.427C623.088 108.677 622.736 106.04 622.033 104.517C620.92 102.29 618.635 101.177 615.178 101.177C614.65 101.177 614.094 101.206 613.508 101.265C612.98 101.323 612.307 101.411 611.486 101.529V98.4524C613.889 97.7493 619.572 95.9329 628.537 93.0032L636.799 90.2786C637.209 90.2786 637.443 90.425 637.502 90.718C637.619 91.011 637.678 91.4211 637.678 91.9485V104.868C643.068 99.8293 647.287 96.3723 650.334 94.4973C654.904 91.6262 659.65 90.1907 664.572 90.1907C668.557 90.1907 672.189 91.3333 675.471 93.6184C681.799 98.0715 684.963 106.011 684.963 117.437V158.482C684.963 162.7 685.812 165.747 687.512 167.622C689.211 169.497 692.053 170.464 696.037 170.523V172.984H658.508V170.523C662.785 169.937 665.773 168.765 667.473 167.007C669.172 165.191 670.021 161.294 670.021 155.318V117.788C670.021 112.749 669.084 108.589 667.209 105.308C665.334 101.968 661.877 100.298 656.838 100.298C653.381 100.298 649.865 101.47 646.291 103.814C644.299 105.161 641.721 107.388 638.557 110.493V159.712C638.557 163.931 639.494 166.773 641.369 168.238C643.244 169.644 646.203 170.406 650.246 170.523V172.984H611.838V170.523ZM739.807 90.5422C748.068 90.5422 755.305 93.4133 761.516 99.1555C767.726 104.839 770.832 112.925 770.832 123.413H715.021C715.607 137.007 718.683 146.909 724.25 153.12C729.816 159.331 736.408 162.437 744.025 162.437C750.178 162.437 755.363 160.825 759.582 157.603C763.801 154.38 767.697 149.81 771.271 143.892L774.348 144.947C771.945 152.388 767.433 159.273 760.812 165.601C754.25 171.929 746.193 175.093 736.642 175.093C725.627 175.093 717.101 170.933 711.066 162.613C705.09 154.292 702.101 144.712 702.101 133.872C702.101 122.095 705.588 111.929 712.56 103.374C719.533 94.8196 728.615 90.5422 739.807 90.5422ZM734.709 96.9583C728.029 96.9583 722.932 99.9172 719.416 105.835C717.541 108.999 716.193 112.984 715.373 117.788H752.463C751.818 111.929 750.705 107.564 749.123 104.693C746.252 99.5364 741.447 96.9583 734.709 96.9583ZM779.357 170.083C784.748 169.615 788.322 168.677 790.08 167.271C791.838 165.806 792.717 162.73 792.717 158.042V118.404C792.717 112.603 792.16 108.472 791.047 106.011C789.992 103.491 788.029 102.232 785.158 102.232C784.572 102.232 783.781 102.32 782.785 102.495C781.848 102.613 780.851 102.788 779.797 103.023V100.122C783.137 98.9504 786.564 97.7493 790.08 96.5188C793.596 95.2883 796.027 94.4094 797.375 93.8821C800.305 92.7688 803.322 91.509 806.428 90.1028C806.838 90.1028 807.072 90.2493 807.131 90.5422C807.248 90.8352 807.307 91.4504 807.307 92.3879V106.802C811.057 101.587 814.66 97.5149 818.117 94.5852C821.633 91.6555 825.266 90.1907 829.016 90.1907C832.004 90.1907 834.435 91.0989 836.31 92.9153C838.185 94.6731 839.123 96.8997 839.123 99.595C839.123 101.997 838.391 104.019 836.926 105.659C835.519 107.3 833.732 108.12 831.564 108.12C829.338 108.12 827.082 107.095 824.797 105.044C822.57 102.993 820.812 101.968 819.523 101.968C817.473 101.968 814.953 103.638 811.965 106.978C808.976 110.259 807.482 113.657 807.482 117.173V156.812C807.482 161.851 808.654 165.366 810.998 167.359C813.342 169.292 817.238 170.2 822.687 170.083V172.984H779.357V170.083ZM890.099 124.292C883.361 126.519 877.795 128.98 873.4 131.675C864.963 136.89 860.744 142.808 860.744 149.429C860.744 154.761 862.502 158.687 866.017 161.206C868.303 162.847 870.851 163.667 873.664 163.667C877.531 163.667 881.223 162.583 884.738 160.415C888.312 158.247 890.099 155.493 890.099 152.154V124.292ZM845.099 155.493C845.099 146.997 849.348 139.907 857.844 134.224C863.234 130.708 873.986 125.933 890.099 119.898V112.427C890.099 106.45 889.514 102.29 888.342 99.9465C886.349 96.0208 882.219 94.0579 875.949 94.0579C872.961 94.0579 870.119 94.8196 867.424 96.343C864.728 97.925 863.381 100.093 863.381 102.847C863.381 103.55 863.527 104.751 863.82 106.45C864.113 108.091 864.26 109.146 864.26 109.615C864.26 112.896 863.176 115.181 861.008 116.47C859.777 117.232 858.312 117.613 856.613 117.613C853.976 117.613 851.955 116.763 850.549 115.064C849.142 113.306 848.439 111.372 848.439 109.263C848.439 105.161 850.959 100.884 855.998 96.4309C861.096 91.9192 868.537 89.6633 878.322 89.6633C889.689 89.6633 897.394 93.3547 901.437 100.738C903.605 104.781 904.689 110.669 904.689 118.404V153.648C904.689 157.046 904.924 159.39 905.392 160.679C906.154 162.964 907.736 164.107 910.139 164.107C911.486 164.107 912.599 163.902 913.478 163.491C914.357 163.081 915.881 162.085 918.049 160.503V165.073C916.174 167.359 914.152 169.234 911.984 170.698C908.703 172.925 905.363 174.038 901.965 174.038C897.98 174.038 895.08 172.749 893.264 170.171C891.506 167.593 890.539 164.517 890.363 160.943C885.91 164.81 882.101 167.681 878.937 169.556C873.605 172.72 868.537 174.302 863.732 174.302C858.693 174.302 854.328 172.544 850.637 169.029C846.945 165.454 845.099 160.943 845.099 155.493ZM964.279 91.9485V98.2766H946.349L946.174 148.902C946.174 153.355 946.555 156.724 947.316 159.009C948.723 163.052 951.476 165.073 955.578 165.073C957.687 165.073 959.504 164.575 961.027 163.579C962.609 162.583 964.396 161.001 966.389 158.833L968.674 160.767L966.74 163.404C963.693 167.505 960.471 170.406 957.072 172.105C953.674 173.804 950.392 174.654 947.228 174.654C940.314 174.654 935.627 171.577 933.166 165.425C931.818 162.085 931.144 157.456 931.144 151.538V98.2766H921.564C921.271 98.1008 921.037 97.925 920.861 97.7493C920.744 97.5735 920.685 97.3391 920.685 97.0461C920.685 96.4602 920.803 96.0208 921.037 95.7278C921.33 95.3762 922.18 94.6145 923.586 93.4426C927.629 90.1028 930.529 87.4075 932.287 85.3567C934.103 83.2473 938.322 77.7395 944.943 68.8333C945.705 68.8333 946.144 68.8918 946.262 69.009C946.437 69.1262 946.525 69.5657 946.525 70.3274V91.9485H964.279ZM973.156 132.202C973.156 120.542 976.848 110.698 984.23 102.671C991.672 94.5852 1001.22 90.5422 1012.88 90.5422C1024.48 90.5422 1034.09 94.3508 1041.71 101.968C1049.33 109.585 1053.14 119.722 1053.14 132.378C1053.14 144.038 1049.45 154.175 1042.06 162.788C1034.68 171.402 1025.13 175.708 1013.41 175.708C1002.16 175.708 992.639 171.577 984.846 163.316C977.053 155.054 973.156 144.683 973.156 132.202ZM1010.42 95.8157C1005.79 95.8157 1001.78 97.3391 998.381 100.386C992.521 105.718 989.592 114.917 989.592 127.984C989.592 138.413 991.935 148.14 996.623 157.163C1001.37 166.187 1007.93 170.698 1016.31 170.698C1022.87 170.698 1027.91 167.681 1031.43 161.646C1035 155.611 1036.79 147.7 1036.79 137.915C1036.79 127.779 1034.53 118.228 1030.02 109.263C1025.51 100.298 1018.98 95.8157 1010.42 95.8157ZM1059.38 170.083C1064.77 169.615 1068.34 168.677 1070.1 167.271C1071.86 165.806 1072.74 162.73 1072.74 158.042V118.404C1072.74 112.603 1072.18 108.472 1071.07 106.011C1070.01 103.491 1068.05 102.232 1065.18 102.232C1064.59 102.232 1063.8 102.32 1062.8 102.495C1061.87 102.613 1060.87 102.788 1059.82 103.023V100.122C1063.16 98.9504 1066.58 97.7493 1070.1 96.5188C1073.62 95.2883 1076.05 94.4094 1077.39 93.8821C1080.32 92.7688 1083.34 91.509 1086.45 90.1028C1086.86 90.1028 1087.09 90.2493 1087.15 90.5422C1087.27 90.8352 1087.33 91.4504 1087.33 92.3879V106.802C1091.08 101.587 1094.68 97.5149 1098.14 94.5852C1101.65 91.6555 1105.29 90.1907 1109.04 90.1907C1112.02 90.1907 1114.45 91.0989 1116.33 92.9153C1118.2 94.6731 1119.14 96.8997 1119.14 99.595C1119.14 101.997 1118.41 104.019 1116.95 105.659C1115.54 107.3 1113.75 108.12 1111.58 108.12C1109.36 108.12 1107.1 107.095 1104.82 105.044C1102.59 102.993 1100.83 101.968 1099.54 101.968C1097.49 101.968 1094.97 103.638 1091.98 106.978C1089 110.259 1087.5 113.657 1087.5 117.173V156.812C1087.5 161.851 1088.67 165.366 1091.02 167.359C1093.36 169.292 1097.26 170.2 1102.71 170.083V172.984H1059.38V170.083Z"/>
</mask>
<path d="M502.766 56.0891L500.098 53.1081L500.058 53.1441L500.019 53.1811L502.766 56.0891ZM505.578 51.7825V47.7825H502.886L501.872 50.277L505.578 51.7825ZM509.533 51.7825L513.53 51.6341L513.387 47.7825H509.533V51.7825ZM510.939 89.6633V93.6633H515.091L514.937 89.5149L510.939 89.6633ZM506.808 89.6633L503.124 91.2211L504.157 93.6633H506.808V89.6633ZM495.383 70.1516L498.33 67.4469L498.31 67.4252L498.289 67.4038L495.383 70.1516ZM485.539 165.601L484.29 161.801L484.282 161.803L484.274 161.806L485.539 165.601ZM493.537 161.997L496.283 164.905L496.325 164.866L496.365 164.826L493.537 161.997ZM492.131 115.767L489.49 118.772L489.512 118.791L489.535 118.81L492.131 115.767ZM479.299 112.603H475.299V116.363L479.051 116.595L479.299 112.603ZM479.299 109.263V105.263H475.299V109.263H479.299ZM525.178 109.263H529.178V105.263H525.178V109.263ZM525.178 112.603L525.44 116.594L529.178 116.348V112.603H525.178ZM516.301 114.8L518.725 117.982L518.762 117.953L518.799 117.924L516.301 114.8ZM497.053 170.259L495.768 166.471L495.762 166.473L497.053 170.259ZM422.785 160.152L420.194 163.199L420.195 163.2L422.785 160.152ZM418.742 71.5579L421.734 74.2126L421.738 74.2079L418.742 71.5579ZM465.148 55.7825C471.746 55.7825 478.23 56.6965 484.611 58.5277L486.818 50.838C479.723 48.8021 472.496 47.7825 465.148 47.7825V55.7825ZM484.611 58.5277C487.997 59.4992 490.699 60.2389 492.699 60.7387C493.696 60.988 494.553 61.1865 495.251 61.3252C495.848 61.4439 496.628 61.5833 497.316 61.5833V53.5833C497.506 53.5833 497.43 53.6018 496.811 53.4787C496.293 53.3758 495.576 53.2117 494.639 52.9776C492.771 52.5106 490.171 51.8001 486.818 50.838L484.611 58.5277ZM497.316 61.5833C500.193 61.5833 503.318 61.0695 505.512 58.9972L500.019 53.1811C500.089 53.1147 500.013 53.2263 499.554 53.3521C499.091 53.4791 498.37 53.5833 497.316 53.5833V61.5833ZM505.433 59.0701C507.132 57.55 508.37 55.5374 509.284 53.288L501.872 50.277C501.263 51.7776 500.626 52.636 500.098 53.1081L505.433 59.0701ZM505.578 55.7825H509.533V47.7825H505.578V55.7825ZM505.536 51.9309L506.942 89.8117L514.937 89.5149L513.53 51.6341L505.536 51.9309ZM510.939 85.6633H506.808V93.6633H510.939V85.6633ZM510.493 88.1056C506.721 79.1853 502.699 72.2073 498.33 67.4469L492.436 72.8563C495.918 76.6507 499.513 82.6804 503.124 91.2211L510.493 88.1056ZM498.289 67.4038C490.363 59.0189 480.041 54.9016 467.697 54.9016V62.9016C478.088 62.9016 486.223 66.2843 492.476 72.8994L498.289 67.4038ZM467.697 54.9016C455.007 54.9016 443.846 59.7813 434.371 69.2568L440.028 74.9136C448.13 66.811 457.302 62.9016 467.697 62.9016V54.9016ZM434.371 69.2568C424.536 79.0915 420.103 94.8051 420.103 115.327H428.103C428.103 95.6544 432.401 82.5399 440.028 74.9136L434.371 69.2568ZM420.103 115.327C420.103 132.612 424.667 146.652 434.28 156.91L440.118 151.44C432.27 143.066 428.103 131.207 428.103 115.327H420.103ZM434.28 156.91C443.771 167.038 455.611 172.15 469.543 172.15V164.15C457.81 164.15 448.088 159.945 440.118 151.44L434.28 156.91ZM469.543 172.15C471.949 172.15 474.692 171.923 477.744 171.496L476.635 163.573C473.828 163.966 471.472 164.15 469.543 164.15V172.15ZM477.744 171.496C480.9 171.054 483.922 170.356 486.804 169.396L484.274 161.806C481.883 162.603 479.338 163.195 476.635 163.573L477.744 171.496ZM486.788 169.401C488.998 168.674 490.879 167.973 492.39 167.292C493.803 166.655 495.247 165.884 496.283 164.905L490.79 159.089C490.821 159.06 490.73 159.149 490.41 159.339C490.106 159.518 489.679 159.739 489.103 159.998C487.948 160.519 486.358 161.121 484.29 161.801L486.788 169.401ZM496.365 164.826C498.395 162.796 499.119 160.112 499.119 157.427H491.119C491.119 158.726 490.788 159.089 490.709 159.169L496.365 164.826ZM499.119 157.427V128.687H491.119V157.427H499.119ZM499.119 128.687C499.119 125.076 498.863 121.936 498.269 119.37C497.698 116.901 496.688 114.397 494.727 112.724L489.535 118.81C489.525 118.802 489.659 118.914 489.857 119.312C490.055 119.71 490.275 120.311 490.475 121.173C490.877 122.913 491.119 125.384 491.119 128.687H499.119ZM494.771 112.762C493.093 111.287 490.807 110.404 488.43 109.818C485.973 109.212 482.989 108.824 479.546 108.61L479.051 116.595C482.229 116.792 484.694 117.136 486.515 117.585C488.416 118.054 489.235 118.547 489.49 118.772L494.771 112.762ZM483.299 112.603V109.263H475.299V112.603H483.299ZM479.299 113.263H525.178V105.263H479.299V113.263ZM521.178 109.263V112.603H529.178V109.263H521.178ZM524.915 108.611C522.551 108.767 520.445 109.047 518.657 109.489C516.926 109.918 515.182 110.573 513.802 111.677L518.799 117.924C518.884 117.856 519.352 117.558 520.58 117.255C521.751 116.965 523.352 116.732 525.44 116.594L524.915 108.611ZM513.876 111.618C509.817 114.712 508.609 120.332 508.609 126.402H516.609C516.609 120.752 517.863 118.639 518.725 117.982L513.876 111.618ZM508.609 126.402V161.822H516.609V126.402H508.609ZM508.609 161.822C508.609 160.695 509.259 160.278 508.883 160.634C508.6 160.903 507.973 161.368 506.813 161.997C504.522 163.239 500.888 164.735 495.768 166.471L498.337 174.047C503.588 172.267 507.733 170.599 510.627 169.029C512.06 168.252 513.378 167.398 514.391 166.437C515.312 165.563 516.609 164.003 516.609 161.822H508.609ZM495.762 166.473C485.807 169.867 476.312 171.532 467.258 171.532V179.532C477.305 179.532 487.673 177.683 498.343 174.045L495.762 166.473ZM467.258 171.532C450.517 171.532 436.641 166.674 425.375 157.103L420.195 163.2C433.069 174.137 448.842 179.532 467.258 179.532V171.532ZM425.376 157.104C413.057 146.63 406.834 132.614 406.834 114.624H398.834C398.834 134.72 405.912 151.056 420.194 163.199L425.376 157.104ZM406.834 114.624C406.834 98.7928 411.812 85.3958 421.734 74.2126L415.75 68.9031C404.461 81.6262 398.834 96.9401 398.834 114.624H406.834ZM421.738 74.2079C432.562 61.9704 446.894 55.7825 465.148 55.7825V47.7825C444.848 47.7825 428.243 54.7781 415.746 68.9079L421.738 74.2079ZM591.535 99.1555L588.82 102.093L588.827 102.1L588.835 102.106L591.535 99.1555ZM600.851 123.413V127.413H604.851V123.413H600.851ZM545.041 123.413V119.413H540.865L541.045 123.586L545.041 123.413ZM601.291 143.892L602.588 140.108L599.535 139.061L597.867 141.824L601.291 143.892ZM604.367 144.947L608.174 146.175L609.381 142.437L605.664 141.163L604.367 144.947ZM590.832 165.601L588.068 162.709L588.062 162.715L588.055 162.721L590.832 165.601ZM541.086 162.613L537.837 164.946L537.842 164.954L537.848 164.961L541.086 162.613ZM549.435 105.835L545.996 103.792L545.994 103.796L549.435 105.835ZM545.392 117.788L541.45 117.115L540.652 121.788H545.392V117.788ZM582.482 117.788V121.788H586.946L586.458 117.351L582.482 117.788ZM579.142 104.693L582.646 102.762L582.642 102.754L582.637 102.747L579.142 104.693ZM569.826 94.5422C577.055 94.5422 583.328 97.0158 588.82 102.093L594.25 96.2184C587.32 89.8109 579.121 86.5422 569.826 86.5422V94.5422ZM588.835 102.106C594.022 106.853 596.851 113.752 596.851 123.413H604.851C604.851 112.099 601.47 102.825 594.235 96.2046L588.835 102.106ZM600.851 119.413H545.041V127.413H600.851V119.413ZM541.045 123.586C541.647 137.562 544.821 148.572 551.291 155.79L557.248 150.451C552.585 145.247 549.607 136.452 549.037 123.241L541.045 123.586ZM551.291 155.79C557.535 162.758 565.175 166.437 574.045 166.437V158.437C567.68 158.437 562.136 155.905 557.248 150.451L551.291 155.79ZM574.045 166.437C580.929 166.437 587.006 164.619 592.03 160.781L587.173 154.424C583.759 157.032 579.465 158.437 574.045 158.437V166.437ZM592.03 160.781C596.747 157.178 600.956 152.184 604.715 145.96L597.867 141.824C594.478 147.436 590.893 151.583 587.173 154.424L592.03 160.781ZM599.994 147.676L603.07 148.73L605.664 141.163L602.588 140.108L599.994 147.676ZM600.561 143.718C598.395 150.426 594.291 156.761 588.068 162.709L593.596 168.493C600.615 161.784 605.535 154.349 608.174 146.175L600.561 143.718ZM588.055 162.721C582.277 168.294 575.232 171.093 566.662 171.093V179.093C577.194 179.093 586.262 175.564 593.608 168.48L588.055 162.721ZM566.662 171.093C556.82 171.093 549.545 167.463 544.324 160.264L537.848 164.961C544.696 174.403 554.472 179.093 566.662 179.093V171.093ZM544.335 160.279C538.876 152.679 536.121 143.926 536.121 133.872H528.121C528.121 145.498 531.343 155.905 537.837 164.946L544.335 160.279ZM536.121 133.872C536.121 122.949 539.33 113.692 545.681 105.901L539.479 100.847C531.884 110.165 528.121 121.241 528.121 133.872H536.121ZM545.681 105.901C551.881 98.2938 559.817 94.5422 569.826 94.5422V86.5422C557.452 86.5422 547.224 91.3453 539.479 100.847L545.681 105.901ZM564.728 92.9583C556.585 92.9583 550.206 96.7064 545.996 103.792L552.874 107.878C555.696 103.128 559.512 100.958 564.728 100.958V92.9583ZM545.994 103.796C543.803 107.493 542.327 111.976 541.45 117.115L549.335 118.462C550.099 113.991 551.317 110.505 552.877 107.874L545.994 103.796ZM545.392 121.788H582.482V113.788H545.392V121.788ZM586.458 117.351C585.795 111.319 584.61 106.327 582.646 102.762L575.639 106.623C576.839 108.8 577.881 112.539 578.506 118.226L586.458 117.351ZM582.637 102.747C578.947 96.1193 572.67 92.9583 564.728 92.9583V100.958C570.264 100.958 573.596 102.953 575.648 106.639L582.637 102.747ZM611.838 170.523L611.335 166.554L607.838 166.998V170.523H611.838ZM620.539 167.447L623.261 170.378L623.265 170.374L620.539 167.447ZM622.033 104.517L625.665 102.841L625.639 102.784L625.611 102.728L622.033 104.517ZM613.508 101.265L613.11 97.2847L613.088 97.2869L613.066 97.2894L613.508 101.265ZM611.486 101.529H607.486V106.141L612.052 105.488L611.486 101.529ZM611.486 98.4524L610.363 94.6134L607.486 95.4553V98.4524H611.486ZM628.537 93.0032L629.78 96.8053L629.79 96.8019L628.537 93.0032ZM636.799 90.2786V86.2786H636.156L635.546 86.4798L636.799 90.2786ZM637.502 90.718L633.58 91.5025L633.652 91.8626L633.788 92.2036L637.502 90.718ZM637.678 104.868H633.678V114.083L640.409 107.791L637.678 104.868ZM650.334 94.4973L652.43 97.9039L652.446 97.8943L652.462 97.8844L650.334 94.4973ZM675.471 93.6184L677.773 90.3472L677.765 90.3416L677.757 90.336L675.471 93.6184ZM696.037 170.523H700.037V166.581L696.096 166.523L696.037 170.523ZM696.037 172.984V176.984H700.037V172.984H696.037ZM658.508 172.984H654.508V176.984H658.508V172.984ZM658.508 170.523L657.965 166.56L654.508 167.033V170.523H658.508ZM667.473 167.007L670.348 169.787L670.371 169.764L670.394 169.74L667.473 167.007ZM667.209 105.308L663.721 107.266L663.728 107.279L663.736 107.292L667.209 105.308ZM646.291 103.814L644.097 100.469L644.073 100.484L644.05 100.501L646.291 103.814ZM638.557 110.493L635.755 107.639L634.557 108.815V110.493H638.557ZM641.369 168.238L638.906 171.39L638.937 171.414L638.969 171.438L641.369 168.238ZM650.246 170.523H654.246V166.637L650.362 166.524L650.246 170.523ZM650.246 172.984V176.984H654.246V172.984H650.246ZM611.838 172.984H607.838V176.984H611.838V172.984ZM612.341 174.491C616.708 173.937 620.668 172.785 623.261 170.378L617.817 164.515C617.128 165.155 615.288 166.053 611.335 166.554L612.341 174.491ZM623.265 170.374C624.919 168.833 625.82 166.711 626.337 164.592C626.865 162.426 627.088 159.86 627.088 156.988H619.088C619.088 159.506 618.886 161.378 618.564 162.698C618.231 164.066 617.858 164.478 617.813 164.519L623.265 170.374ZM627.088 156.988V112.427H619.088V156.988H627.088ZM627.088 112.427C627.088 108.641 626.765 105.225 625.665 102.841L618.401 106.193C618.707 106.856 619.088 108.713 619.088 112.427H627.088ZM625.611 102.728C623.562 98.6307 619.471 97.177 615.178 97.177V105.177C617.798 105.177 618.277 105.95 618.455 106.306L625.611 102.728ZM615.178 97.177C614.503 97.177 613.813 97.2144 613.11 97.2847L613.906 105.245C614.374 105.198 614.797 105.177 615.178 105.177V97.177ZM613.066 97.2894C612.481 97.3543 611.762 97.4486 610.921 97.5688L612.052 105.488C612.851 105.374 613.48 105.293 613.949 105.24L613.066 97.2894ZM615.486 101.529V98.4524H607.486V101.529H615.486ZM612.61 102.291C615.085 101.567 620.834 99.7286 629.78 96.8053L627.294 89.2011C618.31 92.1372 612.692 93.9316 610.363 94.6134L612.61 102.291ZM629.79 96.8019L638.051 94.0773L635.546 86.4798L627.284 89.2044L629.79 96.8019ZM636.799 94.2786C636.594 94.2786 635.918 94.2526 635.162 93.7804C634.264 93.2191 633.747 92.3388 633.58 91.5025L641.424 89.9336C641.198 88.8043 640.535 87.7043 639.402 86.9964C638.412 86.3778 637.414 86.2786 636.799 86.2786V94.2786ZM633.788 92.2036C633.741 92.0865 633.714 91.9922 633.698 91.9299C633.682 91.8671 633.676 91.8258 633.674 91.811C633.67 91.7863 633.678 91.8257 633.678 91.9485H641.678C641.678 91.2078 641.607 90.2111 641.216 89.2325L633.788 92.2036ZM633.678 91.9485V104.868H641.678V91.9485H633.678ZM640.409 107.791C645.765 102.784 649.742 99.5582 652.43 97.9039L648.237 91.0907C644.832 93.1864 640.372 96.8744 634.946 101.946L640.409 107.791ZM652.462 97.8844C656.458 95.3737 660.475 94.1907 664.572 94.1907V86.1907C658.826 86.1907 653.35 87.8787 648.206 91.1102L652.462 97.8844ZM664.572 94.1907C667.736 94.1907 670.572 95.081 673.185 96.9008L677.757 90.336C673.807 87.5855 669.377 86.1907 664.572 86.1907V94.1907ZM673.169 96.8896C677.991 100.283 680.963 106.658 680.963 117.437H688.963C688.963 105.364 685.607 95.8602 677.773 90.3472L673.169 96.8896ZM680.963 117.437V158.482H688.963V117.437H680.963ZM680.963 158.482C680.963 163.076 681.859 167.342 684.548 170.308L690.476 164.936C689.766 164.153 688.963 162.325 688.963 158.482H680.963ZM684.548 170.308C687.326 173.375 691.509 174.457 695.978 174.522L696.096 166.523C692.596 166.472 691.095 165.62 690.476 164.936L684.548 170.308ZM692.037 170.523V172.984H700.037V170.523H692.037ZM696.037 168.984H658.508V176.984H696.037V168.984ZM662.508 172.984V170.523H654.508V172.984H662.508ZM659.051 174.486C663.609 173.861 667.704 172.523 670.348 169.787L664.597 164.227C663.843 165.007 661.961 166.012 657.965 166.56L659.051 174.486ZM670.394 169.74C671.949 168.078 672.798 165.843 673.292 163.575C673.8 161.245 674.021 158.466 674.021 155.318H666.021C666.021 158.146 665.818 160.303 665.476 161.87C665.121 163.498 664.696 164.12 664.551 164.274L670.394 169.74ZM674.021 155.318V117.788H666.021V155.318H674.021ZM674.021 117.788C674.021 112.277 672.999 107.378 670.682 103.323L663.736 107.292C665.169 109.801 666.021 113.221 666.021 117.788H674.021ZM670.697 103.35C667.89 98.3493 662.798 96.2981 656.838 96.2981V104.298C660.956 104.298 662.778 105.587 663.721 107.266L670.697 103.35ZM656.838 96.2981C652.435 96.2981 648.169 97.799 644.097 100.469L648.484 107.159C651.561 105.141 654.326 104.298 656.838 104.298V96.2981ZM644.05 100.501C641.755 102.053 638.973 104.48 635.755 107.639L641.358 113.348C644.468 110.296 646.842 108.27 648.532 107.127L644.05 100.501ZM634.557 110.493V159.712H642.557V110.493H634.557ZM634.557 159.712C634.557 164.252 635.519 168.743 638.906 171.39L643.832 165.085C643.47 164.803 642.557 163.61 642.557 159.712H634.557ZM638.969 171.438C641.831 173.584 645.795 174.395 650.13 174.521L650.362 166.524C646.611 166.416 644.657 165.703 643.769 165.038L638.969 171.438ZM646.246 170.523V172.984H654.246V170.523H646.246ZM650.246 168.984H611.838V176.984H650.246V168.984ZM615.838 172.984V170.523H607.838V172.984H615.838ZM761.516 99.1555L758.8 102.093L758.808 102.1L758.815 102.106L761.516 99.1555ZM770.832 123.413V127.413H774.832V123.413H770.832ZM715.021 123.413V119.413H710.845L711.025 123.586L715.021 123.413ZM771.271 143.892L772.569 140.108L769.516 139.061L767.847 141.824L771.271 143.892ZM774.348 144.947L778.154 146.175L779.361 142.437L775.645 141.163L774.348 144.947ZM760.812 165.601L758.049 162.709L758.042 162.715L758.036 162.721L760.812 165.601ZM711.066 162.613L707.818 164.946L707.823 164.954L707.828 164.961L711.066 162.613ZM719.416 105.835L715.977 103.792L715.975 103.796L719.416 105.835ZM715.373 117.788L711.43 117.115L710.632 121.788H715.373V117.788ZM752.463 117.788V121.788H756.927L756.439 117.351L752.463 117.788ZM749.123 104.693L752.626 102.762L752.622 102.754L752.618 102.747L749.123 104.693ZM739.807 94.5422C747.035 94.5422 753.309 97.0158 758.8 102.093L764.231 96.2184C757.3 89.8109 749.101 86.5422 739.807 86.5422V94.5422ZM758.815 102.106C764.002 106.853 766.832 113.752 766.832 123.413H774.832C774.832 112.099 771.451 102.825 764.216 96.2046L758.815 102.106ZM770.832 119.413H715.021V127.413H770.832V119.413ZM711.025 123.586C711.628 137.562 714.802 148.572 721.271 155.79L727.229 150.451C722.565 145.247 719.587 136.452 719.018 123.241L711.025 123.586ZM721.271 155.79C727.516 162.758 735.156 166.437 744.025 166.437V158.437C737.66 158.437 732.117 155.905 727.229 150.451L721.271 155.79ZM744.025 166.437C750.91 166.437 756.987 164.619 762.01 160.781L757.154 154.424C753.74 157.032 749.445 158.437 744.025 158.437V166.437ZM762.01 160.781C766.728 157.178 770.936 152.184 774.695 145.96L767.847 141.824C764.458 147.436 760.873 151.583 757.154 154.424L762.01 160.781ZM769.974 147.676L773.05 148.73L775.645 141.163L772.569 140.108L769.974 147.676ZM770.541 143.718C768.375 150.426 764.272 156.761 758.049 162.709L763.576 168.493C770.595 161.784 775.515 154.349 778.154 146.175L770.541 143.718ZM758.036 162.721C752.257 168.294 745.212 171.093 736.642 171.093V179.093C747.174 179.093 756.242 175.564 763.589 168.48L758.036 162.721ZM736.642 171.093C726.801 171.093 719.526 167.463 714.304 160.264L707.828 164.961C714.677 174.403 724.453 179.093 736.642 179.093V171.093ZM714.315 160.279C708.856 152.679 706.101 143.926 706.101 133.872H698.101C698.101 145.498 701.323 155.905 707.818 164.946L714.315 160.279ZM706.101 133.872C706.101 122.949 709.311 113.692 715.661 105.901L709.46 100.847C701.865 110.165 698.101 121.241 698.101 133.872H706.101ZM715.661 105.901C721.862 98.2938 729.798 94.5422 739.807 94.5422V86.5422C727.432 86.5422 717.204 91.3453 709.46 100.847L715.661 105.901ZM734.709 92.9583C726.566 92.9583 720.186 96.7064 715.977 103.792L722.855 107.878C725.677 103.128 729.493 100.958 734.709 100.958V92.9583ZM715.975 103.796C713.784 107.493 712.307 111.976 711.43 117.115L719.316 118.462C720.079 113.991 721.298 110.505 722.857 107.874L715.975 103.796ZM715.373 121.788H752.463V113.788H715.373V121.788ZM756.439 117.351C755.775 111.319 754.591 106.327 752.626 102.762L745.62 106.623C746.819 108.8 747.861 112.539 748.487 118.226L756.439 117.351ZM752.618 102.747C748.927 96.1193 742.65 92.9583 734.709 92.9583V100.958C740.244 100.958 743.576 102.953 745.628 106.639L752.618 102.747ZM779.357 170.083L779.011 166.098L775.357 166.416V170.083H779.357ZM790.08 167.271L792.579 170.394L792.61 170.369L792.641 170.344L790.08 167.271ZM791.047 106.011L787.357 107.556L787.379 107.608L787.402 107.66L791.047 106.011ZM782.785 102.495L783.281 106.464L783.381 106.452L783.48 106.434L782.785 102.495ZM779.797 103.023H775.797V108.009L780.664 106.927L779.797 103.023ZM779.797 100.122L778.472 96.3479L775.797 97.2867V100.122H779.797ZM797.375 93.8821L795.954 90.1429L795.936 90.1499L795.917 90.1571L797.375 93.8821ZM806.428 90.1028V86.1028H805.564L804.778 86.459L806.428 90.1028ZM807.131 90.5422L803.208 91.3267L803.28 91.6868L803.417 92.0278L807.131 90.5422ZM807.307 106.802H803.307V119.216L810.554 109.137L807.307 106.802ZM818.117 94.5852L815.556 91.5123L815.544 91.5229L815.531 91.5336L818.117 94.5852ZM836.31 92.9153L833.527 95.7882L833.551 95.811L833.575 95.8334L836.31 92.9153ZM836.926 105.659L833.942 102.995L833.915 103.026L833.889 103.056L836.926 105.659ZM824.797 105.044L822.087 107.986L822.106 108.004L822.125 108.021L824.797 105.044ZM811.965 106.978L814.922 109.671L814.934 109.658L814.946 109.645L811.965 106.978ZM810.998 167.359L808.407 170.406L808.43 170.425L808.452 170.444L810.998 167.359ZM822.687 170.083H826.687V165.996L822.601 166.084L822.687 170.083ZM822.687 172.984V176.984H826.687V172.984H822.687ZM779.357 172.984H775.357V176.984H779.357V172.984ZM779.704 174.068C782.531 173.822 785.014 173.444 787.096 172.898C789.12 172.367 791.07 171.601 792.579 170.394L787.581 164.147C787.332 164.347 786.616 164.753 785.066 165.159C783.573 165.551 781.574 165.875 779.011 166.098L779.704 174.068ZM792.641 170.344C794.337 168.93 795.328 166.977 795.904 164.964C796.481 162.945 796.717 160.602 796.717 158.042H788.717C788.717 160.17 788.513 161.709 788.211 162.766C787.908 163.829 787.58 164.147 787.519 164.198L792.641 170.344ZM796.717 158.042V118.404H788.717V158.042H796.717ZM796.717 118.404C796.717 112.54 796.183 107.66 794.691 104.362L787.402 107.66C788.137 109.284 788.717 112.666 788.717 118.404H796.717ZM794.737 104.466C793.951 102.59 792.719 100.949 790.944 99.8102C789.183 98.6802 787.182 98.2317 785.158 98.2317V106.232C786.005 106.232 786.421 106.413 786.623 106.543C786.811 106.664 787.088 106.913 787.357 107.556L794.737 104.466ZM785.158 98.2317C784.231 98.2317 783.176 98.3645 782.09 98.5562L783.48 106.434C784.386 106.275 784.913 106.232 785.158 106.232V98.2317ZM782.289 98.5262C781.21 98.6611 780.089 98.8601 778.929 99.118L780.664 106.927C781.613 106.717 782.485 106.564 783.281 106.464L782.289 98.5262ZM783.797 103.023V100.122H775.797V103.023H783.797ZM781.121 103.897C784.46 102.725 787.887 101.524 791.401 100.294L788.759 92.7434C785.242 93.9742 781.813 95.1757 778.472 96.3479L781.121 103.897ZM791.401 100.294C794.914 99.065 797.409 98.1642 798.832 97.6071L795.917 90.1571C794.646 90.6547 792.278 91.5117 788.759 92.7434L791.401 100.294ZM798.796 97.6212C801.809 96.4761 804.903 95.1841 808.078 93.7466L804.778 86.459C801.741 87.834 798.8 89.0615 795.954 90.1429L798.796 97.6212ZM806.428 94.1028C806.223 94.1028 805.547 94.0768 804.791 93.6046C803.893 93.0433 803.376 92.163 803.208 91.3267L811.053 89.7578C810.827 88.6285 810.164 87.5285 809.031 86.8207C808.041 86.202 807.043 86.1028 806.428 86.1028V94.1028ZM803.417 92.0278C803.365 91.8979 803.333 91.793 803.315 91.7261C803.296 91.6574 803.285 91.6076 803.281 91.5825C803.272 91.5363 803.274 91.5371 803.281 91.6026C803.286 91.6641 803.293 91.7599 803.298 91.8961C803.303 92.0309 803.307 92.194 803.307 92.3879H811.307C811.307 91.85 811.29 91.3244 811.245 90.8442C811.207 90.4468 811.123 89.7523 810.845 89.0567L803.417 92.0278ZM803.307 92.3879V106.802H811.307V92.3879H803.307ZM810.554 109.137C814.186 104.087 817.574 100.288 820.703 97.6368L815.531 91.5336C811.746 94.7415 807.927 99.0875 804.059 104.467L810.554 109.137ZM820.678 97.6581C823.639 95.1906 826.395 94.1907 829.016 94.1907V86.1907C824.136 86.1907 819.627 88.1204 815.556 91.5123L820.678 97.6581ZM829.016 94.1907C831.127 94.1907 832.507 94.8003 833.527 95.7882L839.094 90.0423C836.363 87.3974 832.88 86.1907 829.016 86.1907V94.1907ZM833.575 95.8334C834.6 96.7946 835.123 97.9447 835.123 99.595H843.123C843.123 95.8546 841.771 92.5516 839.046 89.9971L833.575 95.8334ZM835.123 99.595C835.123 101.113 834.69 102.158 833.942 102.995L839.909 108.323C842.091 105.88 843.123 102.882 843.123 99.595H835.123ZM833.889 103.056C833.245 103.807 832.569 104.12 831.564 104.12V112.12C834.896 112.12 837.794 110.793 839.963 108.263L833.889 103.056ZM831.564 104.12C830.644 104.12 829.299 103.71 827.468 102.067L822.125 108.021C824.865 110.48 828.031 112.12 831.564 112.12V104.12ZM827.507 102.102C826.273 100.966 825.041 99.9919 823.824 99.2819C822.655 98.5999 821.173 97.968 819.523 97.968V105.968C819.163 105.968 819.204 105.849 819.793 106.192C820.334 106.508 821.094 107.072 822.087 107.986L827.507 102.102ZM819.523 97.968C817.422 97.968 815.508 98.8114 813.886 99.8863C812.24 100.977 810.607 102.496 808.984 104.311L814.946 109.645C816.311 108.12 817.431 107.134 818.305 106.555C819.203 105.96 819.574 105.968 819.523 105.968V97.968ZM809.007 104.284C805.531 108.102 803.482 112.42 803.482 117.173H811.482C811.482 114.895 812.422 112.416 814.922 109.671L809.007 104.284ZM803.482 117.173V156.812H811.482V117.173H803.482ZM803.482 156.812C803.482 162.292 804.732 167.282 808.407 170.406L813.589 164.311C812.577 163.451 811.482 161.409 811.482 156.812H803.482ZM808.452 170.444C811.931 173.314 817.047 174.205 822.773 174.082L822.601 166.084C817.429 166.195 814.752 165.271 813.543 164.273L808.452 170.444ZM818.687 170.083V172.984H826.687V170.083H818.687ZM822.687 168.984H779.357V176.984H822.687V168.984ZM783.357 172.984V170.083H775.357V172.984H783.357ZM890.099 124.292H894.099V118.758L888.844 120.494L890.099 124.292ZM873.4 131.675L871.309 128.265L871.297 128.272L873.4 131.675ZM866.017 161.206L868.35 157.957L868.348 157.955L866.017 161.206ZM884.738 160.415L882.664 156.995L882.651 157.003L882.639 157.011L884.738 160.415ZM857.844 134.224L855.659 130.873L855.639 130.886L855.62 130.899L857.844 134.224ZM890.099 119.898L891.502 123.644L894.099 122.671V119.898H890.099ZM888.342 99.9465L891.919 98.1577L891.914 98.147L891.909 98.1364L888.342 99.9465ZM867.424 96.343L865.455 92.8608L865.427 92.8768L865.399 92.8934L867.424 96.343ZM863.82 106.45L859.878 107.13L859.88 107.142L859.882 107.154L863.82 106.45ZM861.008 116.47L858.963 113.032L858.933 113.05L858.902 113.069L861.008 116.47ZM850.549 115.064L847.425 117.563L847.446 117.588L847.467 117.614L850.549 115.064ZM855.998 96.4309L858.647 99.4282L858.649 99.4262L855.998 96.4309ZM901.437 100.738L904.963 98.8472L904.954 98.8317L904.946 98.8163L901.437 100.738ZM905.392 160.679L909.187 159.414L909.17 159.363L909.152 159.312L905.392 160.679ZM918.049 160.503H922.049V152.632L915.691 157.272L918.049 160.503ZM918.049 165.073L921.141 167.611L922.049 166.504V165.073H918.049ZM911.984 170.698L909.745 167.384L909.738 167.389L911.984 170.698ZM893.264 170.171L889.959 172.424L889.976 172.45L889.994 172.475L893.264 170.171ZM890.363 160.943L894.358 160.746L893.954 152.526L887.74 157.922L890.363 160.943ZM878.937 169.556L876.898 166.115L876.896 166.116L878.937 169.556ZM850.637 169.029L847.854 171.902L847.866 171.914L847.878 171.925L850.637 169.029ZM888.844 120.494C881.915 122.784 876.044 125.361 871.309 128.265L875.492 135.085C879.546 132.598 884.808 130.253 891.354 128.09L888.844 120.494ZM871.297 128.272C862.311 133.826 856.744 140.814 856.744 149.429H864.744C864.744 144.802 867.614 139.954 875.503 135.078L871.297 128.272ZM856.744 149.429C856.744 155.713 858.877 161.01 863.687 164.458L868.348 157.955C866.127 156.364 864.744 153.809 864.744 149.429H856.744ZM863.685 164.456C866.65 166.584 870.014 167.667 873.664 167.667V159.667C871.689 159.667 869.956 159.11 868.35 157.957L863.685 164.456ZM873.664 167.667C878.323 167.667 882.736 166.35 886.838 163.82L882.639 157.011C879.709 158.817 876.739 159.667 873.664 159.667V167.667ZM886.813 163.835C891.235 161.153 894.099 157.255 894.099 152.154H886.099C886.099 153.732 885.389 155.342 882.664 156.995L886.813 163.835ZM894.099 152.154V124.292H886.099V152.154H894.099ZM849.099 155.493C849.099 148.616 852.423 142.663 860.068 137.549L855.62 130.899C846.272 137.152 841.099 145.378 841.099 155.493H849.099ZM860.029 137.574C865 134.332 875.354 129.692 891.502 123.644L888.696 116.152C872.618 122.174 861.469 127.084 855.659 130.873L860.029 137.574ZM894.099 119.898V112.427H886.099V119.898H894.099ZM894.099 112.427C894.099 106.43 893.55 101.419 891.919 98.1577L884.764 101.735C885.477 103.162 886.099 106.471 886.099 112.427H894.099ZM891.909 98.1364C888.959 92.3232 882.998 90.0579 875.949 90.0579V98.0579C881.439 98.0579 883.74 99.7183 884.775 101.757L891.909 98.1364ZM875.949 90.0579C872.246 90.0579 868.729 91.0107 865.455 92.8608L869.392 99.8253C871.509 98.6285 873.676 98.0579 875.949 98.0579V90.0579ZM865.399 92.8934C861.678 95.0776 859.381 98.4591 859.381 102.847H867.381C867.381 101.727 867.779 100.773 869.449 99.7927L865.399 92.8934ZM859.381 102.847C859.381 103.93 859.586 105.436 859.878 107.13L867.762 105.771C867.468 104.066 867.381 103.17 867.381 102.847H859.381ZM859.882 107.154C860.024 107.948 860.124 108.566 860.188 109.022C860.259 109.537 860.26 109.68 860.26 109.615H868.26C868.26 108.719 868.033 107.285 867.758 105.747L859.882 107.154ZM860.26 109.615C860.26 111.97 859.553 112.681 858.963 113.032L863.052 119.908C866.798 117.681 868.26 113.822 868.26 109.615H860.26ZM858.902 113.069C858.407 113.375 857.7 113.613 856.613 113.613V121.613C858.925 121.613 861.147 121.088 863.113 119.871L858.902 113.069ZM856.613 113.613C854.911 113.613 854.126 113.113 853.63 112.513L847.467 117.614C849.784 120.413 853.042 121.613 856.613 121.613V113.613ZM853.672 112.565C852.792 111.465 852.439 110.401 852.439 109.263H844.439C844.439 112.344 845.492 115.147 847.425 117.563L853.672 112.565ZM852.439 109.263C852.439 106.866 853.933 103.594 858.647 99.4282L853.349 93.4336C847.984 98.1745 844.439 103.456 844.439 109.263H852.439ZM858.649 99.4262C862.751 95.7953 869.092 93.6633 878.322 93.6633V85.6633C867.982 85.6633 859.44 88.043 853.347 93.4356L858.649 99.4262ZM878.322 93.6633C888.814 93.6633 894.83 97.0007 897.929 102.659L904.946 98.8163C899.958 89.7088 890.565 85.6633 878.322 85.6633V93.6633ZM897.912 102.628C899.623 105.819 900.689 110.932 900.689 118.404H908.689C908.689 110.407 907.587 103.742 904.963 98.8472L897.912 102.628ZM900.689 118.404V153.648H908.689V118.404H900.689ZM900.689 153.648C900.689 157.022 900.896 160.019 901.633 162.046L909.152 159.312C908.951 158.76 908.689 157.07 908.689 153.648H900.689ZM901.598 161.944C902.181 163.693 903.192 165.325 904.808 166.492C906.425 167.66 908.294 168.107 910.139 168.107V160.107C909.853 160.107 909.681 160.073 909.593 160.047C909.55 160.035 909.524 160.024 909.511 160.018C909.499 160.012 909.494 160.008 909.492 160.007C909.49 160.006 909.485 160.002 909.475 159.991C909.465 159.981 909.446 159.959 909.419 159.921C909.366 159.843 909.279 159.688 909.187 159.414L901.598 161.944ZM910.139 168.107C911.857 168.107 913.597 167.85 915.17 167.116L911.787 159.867C911.602 159.953 911.115 160.107 910.139 160.107V168.107ZM915.17 167.116C916.452 166.518 918.273 165.291 920.407 163.734L915.691 157.272C913.488 158.879 912.262 159.645 911.787 159.867L915.17 167.116ZM914.049 160.503V165.073H922.049V160.503H914.049ZM914.956 162.536C913.295 164.561 911.554 166.162 909.745 167.384L914.224 174.013C916.75 172.306 919.052 170.157 921.141 167.611L914.956 162.536ZM909.738 167.389C907.006 169.242 904.435 170.038 901.965 170.038V178.038C906.291 178.038 910.4 176.608 914.23 174.008L909.738 167.389ZM901.965 170.038C898.898 170.038 897.404 169.103 896.533 167.867L889.994 172.475C892.756 176.395 897.062 178.038 901.965 178.038V170.038ZM896.568 167.918C895.284 166.034 894.503 163.695 894.358 160.746L886.368 161.139C886.575 165.339 887.728 169.152 889.959 172.424L896.568 167.918ZM887.74 157.922C883.374 161.714 879.77 164.413 876.898 166.115L880.977 172.997C884.433 170.949 888.446 167.906 892.986 163.963L887.74 157.922ZM876.896 166.116C872.006 169.018 867.639 170.302 863.732 170.302V178.302C869.435 178.302 875.205 176.422 880.979 172.996L876.896 166.116ZM863.732 170.302C859.734 170.302 856.353 168.948 853.395 166.132L847.878 171.925C852.304 176.14 857.653 178.302 863.732 178.302V170.302ZM853.419 166.155C850.557 163.384 849.099 159.933 849.099 155.493H841.099C841.099 161.953 843.334 167.525 847.854 171.902L853.419 166.155ZM964.279 91.9485H968.279V87.9485H964.279V91.9485ZM964.279 98.2766V102.277H968.279V98.2766H964.279ZM946.349 98.2766V94.2766H942.363L942.35 98.2627L946.349 98.2766ZM946.174 148.902L942.174 148.888V148.902H946.174ZM947.316 159.009L943.522 160.274L943.53 160.299L943.538 160.323L947.316 159.009ZM961.027 163.579L958.896 160.194L958.867 160.213L958.838 160.231L961.027 163.579ZM966.389 158.833L968.972 155.78L966.041 153.3L963.443 156.127L966.389 158.833ZM968.674 160.767L971.899 163.132L974.106 160.123L971.257 157.713L968.674 160.767ZM966.74 163.404L969.951 165.789L969.958 165.779L969.966 165.769L966.74 163.404ZM933.166 165.425L936.88 163.939L936.875 163.928L933.166 165.425ZM931.144 98.2766H935.144V94.2766H931.144V98.2766ZM921.564 98.2766L919.506 101.707L920.456 102.277H921.564V98.2766ZM920.861 97.7493L917.533 99.9681L917.753 100.298L918.033 100.578L920.861 97.7493ZM921.037 95.7278L917.964 93.167L917.938 93.1978L917.914 93.229L921.037 95.7278ZM923.586 93.4426L921.038 90.3588L921.032 90.3642L921.025 90.3697L923.586 93.4426ZM932.287 85.3567L929.256 82.7466L929.25 82.7535L932.287 85.3567ZM944.943 68.8333V64.8333H942.933L941.733 66.4468L944.943 68.8333ZM946.262 69.009L943.433 71.8375L943.713 72.1175L944.043 72.3372L946.262 69.009ZM946.525 91.9485H942.525V95.9485H946.525V91.9485ZM960.279 91.9485V98.2766H968.279V91.9485H960.279ZM964.279 94.2766H946.349V102.277H964.279V94.2766ZM942.35 98.2627L942.174 148.888L950.174 148.916L950.349 98.2905L942.35 98.2627ZM942.174 148.902C942.174 153.485 942.554 157.37 943.522 160.274L951.111 157.744C950.555 156.078 950.174 153.225 950.174 148.902H942.174ZM943.538 160.323C944.44 162.915 945.891 165.183 948.069 166.782C950.262 168.391 952.851 169.073 955.578 169.073V161.073C954.203 161.073 953.365 160.745 952.803 160.333C952.228 159.91 951.599 159.146 951.094 157.695L943.538 160.323ZM955.578 169.073C958.338 169.073 960.944 168.413 963.216 166.927L958.838 160.231C958.064 160.738 957.036 161.073 955.578 161.073V169.073ZM963.158 166.964C965.161 165.703 967.222 163.838 969.334 161.54L963.443 156.127C961.57 158.165 960.057 159.463 958.896 160.194L963.158 166.964ZM963.805 161.887L966.09 163.82L971.257 157.713L968.972 155.78L963.805 161.887ZM965.448 158.401L963.514 161.038L969.966 165.769L971.899 163.132L965.448 158.401ZM963.529 161.018C960.733 164.782 957.962 167.188 955.283 168.527L958.861 175.682C962.98 173.623 966.653 170.228 969.951 165.789L963.529 161.018ZM955.283 168.527C952.33 170.004 949.659 170.654 947.228 170.654V178.654C951.126 178.654 955.018 177.604 958.861 175.682L955.283 168.527ZM947.228 170.654C944.369 170.654 942.276 170.022 940.722 169.002C939.18 167.991 937.863 166.397 936.88 163.939L929.452 166.911C930.93 170.606 933.187 173.626 936.333 175.691C939.466 177.747 943.174 178.654 947.228 178.654V170.654ZM936.875 163.928C935.804 161.273 935.144 157.231 935.144 151.538H927.144C927.144 157.682 927.833 162.897 929.456 166.922L936.875 163.928ZM935.144 151.538V98.2766H927.144V151.538H935.144ZM931.144 94.2766H921.564V102.277H931.144V94.2766ZM923.622 94.8466C923.575 94.8182 923.56 94.8062 923.569 94.8129C923.577 94.8192 923.623 94.8538 923.69 94.9208L918.033 100.578C918.508 101.053 919.029 101.42 919.506 101.707L923.622 94.8466ZM924.189 95.5305C924.649 96.2206 924.685 96.8446 924.685 97.0461H916.685C916.685 97.8336 916.839 98.9264 917.533 99.9681L924.189 95.5305ZM924.685 97.0461C924.685 97.0067 924.691 97.1109 924.638 97.3078C924.584 97.5123 924.455 97.8587 924.16 98.2266L917.914 93.229C916.871 94.5326 916.685 96.0328 916.685 97.0461H924.685ZM924.11 98.2885C924.053 98.3566 924.048 98.3543 924.153 98.2521C924.243 98.1641 924.377 98.0388 924.564 97.8711C924.938 97.5356 925.461 97.0866 926.147 96.5155L921.025 90.3697C919.724 91.4538 918.543 92.4727 917.964 93.167L924.11 98.2885ZM926.133 96.5265C930.221 93.1496 933.337 90.2786 935.324 87.9599L929.25 82.7535C927.722 84.5363 925.036 87.0559 921.038 90.3588L926.133 96.5265ZM935.318 87.9668C937.249 85.7242 941.564 80.0832 948.153 71.2197L941.733 66.4468C935.08 75.3958 930.958 80.7704 929.256 82.7466L935.318 87.9668ZM944.943 72.8333C945.253 72.8333 945.352 72.8469 945.315 72.8421C945.301 72.8402 945.142 72.82 944.909 72.7465C944.787 72.7081 944.592 72.6386 944.361 72.5189C944.139 72.4034 943.789 72.1932 943.433 71.8375L949.09 66.1806C948.381 65.4719 947.6 65.2068 947.318 65.1178C946.946 65.0003 946.607 64.9435 946.373 64.9123C945.897 64.8489 945.395 64.8333 944.943 64.8333V72.8333ZM944.043 72.3372C943.268 71.821 942.906 71.1737 942.762 70.8697C942.607 70.5432 942.553 70.2904 942.537 70.211C942.506 70.0551 942.525 70.0546 942.525 70.3274H950.525C950.525 69.8384 950.501 69.2374 950.382 68.642C950.322 68.3429 950.212 67.9107 949.992 67.445C949.782 67.0019 949.343 66.2557 948.48 65.6808L944.043 72.3372ZM942.525 70.3274V91.9485H950.525V70.3274H942.525ZM946.525 95.9485H964.279V87.9485H946.525V95.9485ZM984.23 102.671L981.287 99.9625L981.286 99.9634L984.23 102.671ZM998.381 100.386L995.711 97.4077L995.7 97.4176L995.689 97.4276L998.381 100.386ZM996.623 157.163L993.073 159.007L993.078 159.016L993.083 159.025L996.623 157.163ZM1031.43 161.646L1027.99 159.607L1027.98 159.62L1027.97 159.632L1031.43 161.646ZM977.156 132.202C977.156 121.469 980.52 112.614 987.174 105.379L981.286 99.9634C973.175 108.783 969.156 119.615 969.156 132.202H977.156ZM987.174 105.38C993.807 98.1718 1002.26 94.5422 1012.88 94.5422V86.5422C1000.18 86.5422 989.536 90.9986 981.287 99.9625L987.174 105.38ZM1012.88 94.5422C1023.51 94.5422 1032.08 97.9909 1038.88 104.796L1044.54 99.1396C1036.11 90.7108 1025.45 86.5422 1012.88 86.5422V94.5422ZM1038.88 104.796C1045.62 111.533 1049.14 120.583 1049.14 132.378H1057.14C1057.14 118.861 1053.04 107.637 1044.54 99.1396L1038.88 104.796ZM1049.14 132.378C1049.14 143.113 1045.77 152.319 1039.03 160.185L1045.1 165.391C1053.12 156.031 1057.14 144.964 1057.14 132.378H1049.14ZM1039.03 160.185C1032.43 167.879 1024.01 171.708 1013.41 171.708V179.708C1026.25 179.708 1036.93 174.924 1045.1 165.391L1039.03 160.185ZM1013.41 171.708C1003.27 171.708 994.801 168.04 987.755 160.571L981.936 166.06C990.476 175.115 1001.05 179.708 1013.41 179.708V171.708ZM987.755 160.571C980.735 153.128 977.156 143.772 977.156 132.202H969.156C969.156 145.593 973.371 156.98 981.936 166.06L987.755 160.571ZM1010.42 91.8157C1004.82 91.8157 999.854 93.6927 995.711 97.4077L1001.05 103.364C1003.7 100.985 1006.76 99.8157 1010.42 99.8157V91.8157ZM995.689 97.4276C988.588 103.889 985.592 114.496 985.592 127.984H993.592C993.592 115.339 996.454 107.547 1001.07 103.344L995.689 97.4276ZM985.592 127.984C985.592 139.038 988.082 149.399 993.073 159.007L1000.17 155.319C995.789 146.881 993.592 137.789 993.592 127.984H985.592ZM993.083 159.025C998.341 169.023 1006.1 174.698 1016.31 174.698V166.698C1009.77 166.698 1004.4 163.351 1000.16 155.301L993.083 159.025ZM1016.31 174.698C1024.4 174.698 1030.71 170.828 1034.88 163.659L1027.97 159.632C1025.12 164.534 1021.34 166.698 1016.31 166.698V174.698ZM1034.87 163.684C1038.93 156.835 1040.79 148.147 1040.79 137.915H1032.79C1032.79 147.253 1031.08 154.386 1027.99 159.607L1034.87 163.684ZM1040.79 137.915C1040.79 127.161 1038.39 116.993 1033.59 107.465L1026.45 111.061C1030.68 119.462 1032.79 128.397 1032.79 137.915H1040.79ZM1033.59 107.465C1031.11 102.537 1027.95 98.5906 1024 95.8792C1020.01 93.1441 1015.44 91.8157 1010.42 91.8157V99.8157C1013.96 99.8157 1016.93 100.728 1019.47 102.476C1022.06 104.247 1024.42 107.024 1026.45 111.061L1033.59 107.465ZM1059.38 170.083L1059.03 166.098L1055.38 166.416V170.083H1059.38ZM1070.1 167.271L1072.6 170.394L1072.63 170.369L1072.66 170.344L1070.1 167.271ZM1071.07 106.011L1067.38 107.556L1067.4 107.608L1067.42 107.66L1071.07 106.011ZM1062.8 102.495L1063.3 106.464L1063.4 106.452L1063.5 106.434L1062.8 102.495ZM1059.82 103.023H1055.82V108.009L1060.68 106.927L1059.82 103.023ZM1059.82 100.122L1058.49 96.3479L1055.82 97.2867V100.122H1059.82ZM1077.39 93.8821L1075.97 90.1429L1075.96 90.1499L1075.94 90.1571L1077.39 93.8821ZM1086.45 90.1028V86.1028H1085.58L1084.8 86.459L1086.45 90.1028ZM1087.15 90.5422L1083.23 91.3267L1083.3 91.6868L1083.44 92.0278L1087.15 90.5422ZM1087.33 106.802H1083.33V119.216L1090.57 109.137L1087.33 106.802ZM1098.14 94.5852L1095.58 91.5123L1095.56 91.5229L1095.55 91.5336L1098.14 94.5852ZM1116.33 92.9153L1113.55 95.7882L1113.57 95.811L1113.59 95.8334L1116.33 92.9153ZM1116.95 105.659L1113.96 102.995L1113.93 103.026L1113.91 103.056L1116.95 105.659ZM1104.82 105.044L1102.11 107.986L1102.13 108.004L1102.14 108.021L1104.82 105.044ZM1091.98 106.978L1094.94 109.671L1094.95 109.658L1094.97 109.645L1091.98 106.978ZM1091.02 167.359L1088.43 170.406L1088.45 170.425L1088.47 170.444L1091.02 167.359ZM1102.71 170.083H1106.71V165.996L1102.62 166.084L1102.71 170.083ZM1102.71 172.984V176.984H1106.71V172.984H1102.71ZM1059.38 172.984H1055.38V176.984H1059.38V172.984ZM1059.72 174.068C1062.55 173.822 1065.03 173.444 1067.12 172.898C1069.14 172.367 1071.09 171.601 1072.6 170.394L1067.6 164.147C1067.35 164.347 1066.64 164.753 1065.09 165.159C1063.59 165.551 1061.59 165.875 1059.03 166.098L1059.72 174.068ZM1072.66 170.344C1074.36 168.93 1075.35 166.977 1075.92 164.964C1076.5 162.945 1076.74 160.602 1076.74 158.042H1068.74C1068.74 160.17 1068.53 161.709 1068.23 162.766C1067.93 163.829 1067.6 164.147 1067.54 164.198L1072.66 170.344ZM1076.74 158.042V118.404H1068.74V158.042H1076.74ZM1076.74 118.404C1076.74 112.54 1076.2 107.66 1074.71 104.362L1067.42 107.66C1068.16 109.284 1068.74 112.666 1068.74 118.404H1076.74ZM1074.76 104.466C1073.97 102.59 1072.74 100.949 1070.96 99.8102C1069.2 98.6802 1067.2 98.2317 1065.18 98.2317V106.232C1066.02 106.232 1066.44 106.413 1066.64 106.543C1066.83 106.664 1067.11 106.913 1067.38 107.556L1074.76 104.466ZM1065.18 98.2317C1064.25 98.2317 1063.2 98.3645 1062.11 98.5562L1063.5 106.434C1064.41 106.275 1064.93 106.232 1065.18 106.232V98.2317ZM1062.31 98.5262C1061.23 98.6611 1060.11 98.8601 1058.95 99.118L1060.68 106.927C1061.63 106.717 1062.5 106.564 1063.3 106.464L1062.31 98.5262ZM1063.82 103.023V100.122H1055.82V103.023H1063.82ZM1061.14 103.897C1064.48 102.725 1067.91 101.524 1071.42 100.294L1068.78 92.7434C1065.26 93.9742 1061.83 95.1757 1058.49 96.3479L1061.14 103.897ZM1071.42 100.294C1074.93 99.065 1077.43 98.1642 1078.85 97.6071L1075.94 90.1571C1074.67 90.6547 1072.3 91.5117 1068.78 92.7434L1071.42 100.294ZM1078.82 97.6212C1081.83 96.4761 1084.92 95.1841 1088.1 93.7466L1084.8 86.459C1081.76 87.834 1078.82 89.0615 1075.97 90.1429L1078.82 97.6212ZM1086.45 94.1028C1086.24 94.1028 1085.57 94.0768 1084.81 93.6046C1083.91 93.0433 1083.4 92.163 1083.23 91.3267L1091.07 89.7578C1090.85 88.6285 1090.18 87.5285 1089.05 86.8207C1088.06 86.202 1087.06 86.1028 1086.45 86.1028V94.1028ZM1083.44 92.0278C1083.38 91.8979 1083.35 91.793 1083.33 91.7261C1083.32 91.6574 1083.3 91.6076 1083.3 91.5825C1083.29 91.5363 1083.29 91.5371 1083.3 91.6026C1083.31 91.6641 1083.31 91.7599 1083.32 91.8961C1083.32 92.0309 1083.33 92.194 1083.33 92.3879H1091.33C1091.33 91.85 1091.31 91.3244 1091.26 90.8442C1091.23 90.4468 1091.14 89.7523 1090.86 89.0567L1083.44 92.0278ZM1083.33 92.3879V106.802H1091.33V92.3879H1083.33ZM1090.57 109.137C1094.21 104.087 1097.59 100.288 1100.72 97.6368L1095.55 91.5336C1091.77 94.7415 1087.95 99.0875 1084.08 104.467L1090.57 109.137ZM1100.7 97.6581C1103.66 95.1906 1106.41 94.1907 1109.04 94.1907V86.1907C1104.16 86.1907 1099.65 88.1204 1095.58 91.5123L1100.7 97.6581ZM1109.04 94.1907C1111.15 94.1907 1112.53 94.8003 1113.55 95.7882L1119.11 90.0423C1116.38 87.3974 1112.9 86.1907 1109.04 86.1907V94.1907ZM1113.59 95.8334C1114.62 96.7946 1115.14 97.9447 1115.14 99.595H1123.14C1123.14 95.8546 1121.79 92.5516 1119.07 89.9971L1113.59 95.8334ZM1115.14 99.595C1115.14 101.113 1114.71 102.158 1113.96 102.995L1119.93 108.323C1122.11 105.88 1123.14 102.882 1123.14 99.595H1115.14ZM1113.91 103.056C1113.26 103.807 1112.59 104.12 1111.58 104.12V112.12C1114.92 112.12 1117.81 110.793 1119.98 108.263L1113.91 103.056ZM1111.58 104.12C1110.66 104.12 1109.32 103.71 1107.49 102.067L1102.14 108.021C1104.88 110.48 1108.05 112.12 1111.58 112.12V104.12ZM1107.53 102.102C1106.29 100.966 1105.06 99.9919 1103.84 99.2819C1102.67 98.5999 1101.19 97.968 1099.54 97.968V105.968C1099.18 105.968 1099.22 105.849 1099.81 106.192C1100.35 106.508 1101.11 107.072 1102.11 107.986L1107.53 102.102ZM1099.54 97.968C1097.44 97.968 1095.53 98.8114 1093.91 99.8863C1092.26 100.977 1090.63 102.496 1089 104.311L1094.97 109.645C1096.33 108.12 1097.45 107.134 1098.32 106.555C1099.22 105.96 1099.59 105.968 1099.54 105.968V97.968ZM1089.03 104.284C1085.55 108.102 1083.5 112.42 1083.5 117.173H1091.5C1091.5 114.895 1092.44 112.416 1094.94 109.671L1089.03 104.284ZM1083.5 117.173V156.812H1091.5V117.173H1083.5ZM1083.5 156.812C1083.5 162.292 1084.75 167.282 1088.43 170.406L1093.61 164.311C1092.6 163.451 1091.5 161.409 1091.5 156.812H1083.5ZM1088.47 170.444C1091.95 173.314 1097.07 174.205 1102.79 174.082L1102.62 166.084C1097.45 166.195 1094.77 165.271 1093.56 164.273L1088.47 170.444ZM1098.71 170.083V172.984H1106.71V170.083H1098.71ZM1102.71 168.984H1059.38V176.984H1102.71V168.984ZM1063.38 172.984V170.083H1055.38V172.984H1063.38Z" fill="white" mask="url(#path-1-outside-1_7_67)"/>
<path d="M986.295 187.135V187.692C985.543 187.701 985.03 187.75 984.757 187.838C984.278 187.994 984.039 188.312 984.039 188.79C984.039 189.034 984.122 189.376 984.288 189.816C984.464 190.255 984.786 190.992 985.255 192.028L989.942 202.472L994.205 191.163C994.391 190.665 994.532 190.245 994.63 189.904C994.727 189.562 994.776 189.283 994.776 189.069C994.776 188.492 994.527 188.102 994.029 187.897C993.736 187.78 993.253 187.711 992.579 187.692V187.135H998.717V187.648C998.082 187.736 997.613 187.906 997.31 188.16C996.851 188.541 996.397 189.308 995.948 190.46L989.312 207.335H988.858L981.461 190.841C980.836 189.445 980.333 188.575 979.952 188.234C979.581 187.892 979.034 187.697 978.311 187.648V187.135H986.295ZM1003.04 193.243C1004.41 193.243 1005.62 193.722 1006.66 194.679C1007.69 195.626 1008.21 196.974 1008.21 198.722H998.907C999.005 200.988 999.517 202.638 1000.45 203.673C1001.37 204.708 1002.47 205.226 1003.74 205.226C1004.77 205.226 1005.63 204.957 1006.33 204.42C1007.04 203.883 1007.69 203.121 1008.28 202.135L1008.79 202.311C1008.39 203.551 1007.64 204.698 1006.54 205.753C1005.45 206.808 1004.1 207.335 1002.51 207.335C1000.67 207.335 999.254 206.642 998.248 205.255C997.252 203.868 996.754 202.272 996.754 200.465C996.754 198.502 997.335 196.808 998.497 195.382C999.659 193.956 1001.17 193.243 1003.04 193.243ZM1002.19 194.313C1001.08 194.313 1000.23 194.806 999.64 195.792C999.327 196.32 999.102 196.984 998.966 197.784H1005.15C1005.04 196.808 1004.85 196.08 1004.59 195.602C1004.11 194.742 1003.31 194.313 1002.19 194.313ZM1009.63 206.5C1010.53 206.422 1011.12 206.266 1011.42 206.031C1011.71 205.787 1011.86 205.275 1011.86 204.493V197.887C1011.86 196.92 1011.76 196.232 1011.58 195.822C1011.4 195.402 1011.08 195.192 1010.6 195.192C1010.5 195.192 1010.37 195.206 1010.2 195.236C1010.04 195.255 1009.88 195.284 1009.7 195.323V194.84C1010.26 194.645 1010.83 194.445 1011.42 194.24C1012 194.034 1012.41 193.888 1012.63 193.8C1013.12 193.615 1013.62 193.405 1014.14 193.17C1014.21 193.17 1014.25 193.195 1014.26 193.243C1014.28 193.292 1014.29 193.395 1014.29 193.551V195.953C1014.91 195.084 1015.51 194.406 1016.09 193.917C1016.68 193.429 1017.28 193.185 1017.91 193.185C1018.4 193.185 1018.81 193.336 1019.12 193.639C1019.43 193.932 1019.59 194.303 1019.59 194.752C1019.59 195.153 1019.47 195.49 1019.22 195.763C1018.99 196.036 1018.69 196.173 1018.33 196.173C1017.96 196.173 1017.58 196.002 1017.2 195.66C1016.83 195.319 1016.54 195.148 1016.32 195.148C1015.98 195.148 1015.56 195.426 1015.06 195.983C1014.57 196.53 1014.32 197.096 1014.32 197.682V204.288C1014.32 205.128 1014.51 205.714 1014.9 206.046C1015.29 206.368 1015.94 206.52 1016.85 206.5V206.984H1009.63V206.5ZM1021.04 202.369H1021.52C1021.75 203.483 1022.05 204.337 1022.43 204.933C1023.12 206.027 1024.12 206.573 1025.44 206.573C1026.17 206.573 1026.74 206.373 1027.16 205.973C1027.59 205.563 1027.81 205.035 1027.81 204.391C1027.81 203.981 1027.69 203.585 1027.44 203.204C1027.2 202.823 1026.77 202.452 1026.15 202.091L1024.51 201.154C1023.31 200.509 1022.43 199.86 1021.86 199.205C1021.29 198.551 1021.01 197.78 1021.01 196.891C1021.01 195.797 1021.4 194.899 1022.18 194.196C1022.96 193.492 1023.95 193.141 1025.13 193.141C1025.65 193.141 1026.21 193.239 1026.83 193.434C1027.45 193.629 1027.8 193.727 1027.88 193.727C1028.06 193.727 1028.18 193.702 1028.26 193.654C1028.34 193.605 1028.41 193.527 1028.47 193.419H1028.82L1028.92 197.506H1028.47C1028.27 196.559 1028.01 195.822 1027.68 195.294C1027.07 194.318 1026.2 193.829 1025.05 193.829C1024.37 193.829 1023.83 194.039 1023.44 194.459C1023.05 194.879 1022.86 195.372 1022.86 195.939C1022.86 196.837 1023.53 197.638 1024.88 198.341L1026.81 199.381C1028.89 200.514 1029.93 201.832 1029.93 203.336C1029.93 204.489 1029.5 205.431 1028.63 206.163C1027.77 206.896 1026.64 207.262 1025.24 207.262C1024.66 207.262 1023.99 207.164 1023.25 206.969C1022.51 206.774 1022.07 206.676 1021.93 206.676C1021.82 206.676 1021.71 206.72 1021.63 206.808C1021.54 206.886 1021.47 206.984 1021.42 207.101H1021.04V202.369ZM1033.64 188.073C1033.64 187.653 1033.79 187.291 1034.08 186.989C1034.37 186.686 1034.73 186.534 1035.16 186.534C1035.58 186.534 1035.94 186.686 1036.23 186.989C1036.53 187.281 1036.69 187.643 1036.69 188.073C1036.69 188.492 1036.53 188.854 1036.23 189.156C1035.94 189.449 1035.58 189.596 1035.16 189.596C1034.73 189.596 1034.37 189.449 1034.08 189.156C1033.79 188.854 1033.64 188.492 1033.64 188.073ZM1031.76 206.573C1032.81 206.476 1033.47 206.3 1033.74 206.046C1034.01 205.782 1034.15 205.079 1034.15 203.937V196.949C1034.15 196.315 1034.11 195.875 1034.02 195.631C1033.87 195.231 1033.57 195.031 1033.1 195.031C1032.99 195.031 1032.88 195.04 1032.77 195.06C1032.68 195.079 1032.38 195.157 1031.9 195.294V194.84L1032.53 194.635C1034.23 194.078 1035.43 193.658 1036.1 193.375C1036.37 193.258 1036.55 193.199 1036.63 193.199C1036.65 193.268 1036.66 193.341 1036.66 193.419V203.937C1036.66 205.05 1036.79 205.748 1037.05 206.031C1037.33 206.315 1037.94 206.495 1038.88 206.573V206.984H1031.76V206.573ZM1040.29 200.187C1040.29 198.243 1040.9 196.603 1042.13 195.265C1043.37 193.917 1044.97 193.243 1046.91 193.243C1048.84 193.243 1050.45 193.878 1051.71 195.148C1052.98 196.417 1053.62 198.107 1053.62 200.216C1053.62 202.159 1053 203.849 1051.77 205.284C1050.54 206.72 1048.95 207.438 1047 207.438C1045.12 207.438 1043.54 206.749 1042.24 205.372C1040.94 203.995 1040.29 202.267 1040.29 200.187ZM1046.5 194.122C1045.73 194.122 1045.06 194.376 1044.49 194.884C1043.52 195.773 1043.03 197.306 1043.03 199.484C1043.03 201.222 1043.42 202.843 1044.2 204.347C1044.99 205.851 1046.08 206.603 1047.48 206.603C1048.58 206.603 1049.41 206.1 1050 205.094C1050.6 204.088 1050.89 202.77 1050.89 201.139C1050.89 199.449 1050.52 197.858 1049.77 196.364C1049.01 194.869 1047.93 194.122 1046.5 194.122ZM1055.07 206.573C1055.76 206.486 1056.25 206.315 1056.52 206.061C1056.8 205.797 1056.94 205.216 1056.94 204.318V196.891C1056.94 196.266 1056.89 195.826 1056.77 195.573C1056.58 195.201 1056.2 195.016 1055.63 195.016C1055.54 195.016 1055.45 195.021 1055.35 195.031C1055.26 195.04 1055.15 195.055 1055.01 195.074V194.562C1055.41 194.445 1056.36 194.142 1057.85 193.654L1059.23 193.199C1059.3 193.199 1059.34 193.224 1059.35 193.273C1059.37 193.322 1059.38 193.39 1059.38 193.478V195.631C1060.27 194.791 1060.98 194.215 1061.49 193.903C1062.25 193.424 1063.04 193.185 1063.86 193.185C1064.52 193.185 1065.13 193.375 1065.67 193.756C1066.73 194.498 1067.26 195.822 1067.26 197.726V204.567C1067.26 205.27 1067.4 205.778 1067.68 206.09C1067.96 206.403 1068.44 206.564 1069.1 206.573V206.984H1062.85V206.573C1063.56 206.476 1064.06 206.281 1064.34 205.988C1064.62 205.685 1064.77 205.035 1064.77 204.039V197.784C1064.77 196.945 1064.61 196.251 1064.3 195.704C1063.99 195.148 1063.41 194.869 1062.57 194.869C1061.99 194.869 1061.41 195.065 1060.81 195.455C1060.48 195.68 1060.05 196.051 1059.52 196.569V204.772C1059.52 205.475 1059.68 205.948 1059.99 206.193C1060.3 206.427 1060.8 206.554 1061.47 206.573V206.984H1055.07V206.573ZM1078.4 186.857C1078.44 186.906 1078.46 186.945 1078.46 186.974C1078.47 186.993 1078.48 187.047 1078.48 187.135V204.772C1078.48 205.524 1078.68 206.002 1079.08 206.207C1079.48 206.412 1080.23 206.534 1081.32 206.573V206.984H1073.06V206.544C1074.24 206.486 1075.01 206.324 1075.37 206.061C1075.73 205.797 1075.91 205.226 1075.91 204.347V190.782C1075.91 190.314 1075.86 189.957 1075.74 189.713C1075.62 189.469 1075.37 189.347 1074.98 189.347C1074.72 189.347 1074.39 189.42 1073.98 189.567C1073.58 189.703 1073.2 189.85 1072.85 190.006V189.596L1078.23 186.857H1078.4ZM1089.42 207.335C1088.95 207.335 1088.56 207.174 1088.23 206.852C1087.91 206.52 1087.75 206.124 1087.75 205.665C1087.75 205.206 1087.91 204.816 1088.23 204.493C1088.57 204.171 1088.96 204.01 1089.42 204.01C1089.88 204.01 1090.27 204.171 1090.59 204.493C1090.91 204.816 1091.08 205.206 1091.08 205.665C1091.08 206.124 1090.91 206.52 1090.59 206.852C1090.28 207.174 1089.89 207.335 1089.42 207.335ZM1099.2 206.442C1100.64 206.442 1101.63 205.656 1102.16 204.083C1102.7 202.511 1102.97 200.236 1102.97 197.257C1102.97 194.884 1102.81 192.99 1102.49 191.573C1101.88 188.937 1100.75 187.618 1099.09 187.618C1097.43 187.618 1096.29 188.976 1095.67 191.691C1095.35 193.136 1095.19 195.04 1095.19 197.404C1095.19 199.62 1095.36 201.393 1095.69 202.721C1096.31 205.201 1097.49 206.442 1099.2 206.442ZM1099.16 186.827C1101.41 186.827 1103.15 188.004 1104.39 190.358C1105.38 192.262 1105.87 194.449 1105.87 196.92C1105.87 198.864 1105.57 200.695 1104.96 202.413C1103.82 205.646 1101.84 207.262 1099.03 207.262C1097.11 207.262 1095.52 206.388 1094.28 204.64C1092.95 202.775 1092.29 200.24 1092.29 197.037C1092.29 194.518 1092.74 192.35 1093.62 190.533C1094.83 188.063 1096.67 186.827 1099.16 186.827Z" fill="white"/>
<path d="M36.3577 14.7067C32.153 14.7067 29.9271 14.4591 29.6797 13.964C29.5561 13.7165 29.4942 13.2214 29.4942 12.4787C29.4942 9.50812 30.1744 7.46584 31.5347 6.35187C31.782 6.22809 32.7095 6.1662 34.3172 6.1662C40.9951 6.53753 48.8479 6.72319 57.8755 6.72319C75.3123 6.72319 85.3292 6.53753 87.9262 6.1662H90.1522C90.8942 6.90885 91.2652 7.46584 91.2652 7.83716C91.2652 8.20849 91.1415 9.32246 90.8942 11.1791C90.2758 13.0357 89.7193 14.2116 89.2247 14.7067H82.1757C73.6428 14.8304 68.6344 15.3874 67.1504 16.3776C66.2847 16.8727 65.4191 18.6056 64.5534 21.5762C63.6877 24.5468 59.5449 40.885 52.125 70.591C50.1464 78.6363 48.0441 87.1768 45.8181 96.2124C43.5921 105.248 41.9226 112.056 40.8096 116.635L39.1401 123.319C39.1401 123.814 39.6966 124.062 40.8096 124.062C41.9226 124.062 45.5707 124.185 51.754 124.433H54.9075C58.8648 124.433 62.0183 124.371 64.3679 124.247C66.7175 124.124 69.7474 123.69 73.4573 122.948C77.1673 122.205 80.2589 121.091 82.7322 119.606C85.2055 118.12 87.9262 116.016 90.8942 113.293C93.8621 110.57 96.4591 107.166 98.6851 103.082C100.664 99.3686 102.519 95.2222 104.25 90.6425C105.981 86.0628 107.033 83.4635 107.404 82.8447C108.022 82.4733 109.073 82.2877 110.557 82.2877H112.968C113.71 83.4017 114.081 84.0824 114.081 84.33C114.081 84.5775 112.845 88.2289 110.371 95.284C107.898 102.339 105.178 109.766 102.21 117.563C99.2416 125.361 97.6339 129.941 97.3866 131.302C97.1393 131.921 96.8919 132.293 96.6446 132.416C96.3973 132.54 95.4079 132.726 93.6766 132.973C91.9453 133.221 89.2865 133.283 85.7002 133.159C84.3399 133.159 79.6406 133.159 71.6023 133.159C63.5641 133.159 55.8968 133.097 48.6005 132.973H15.5819C5.19395 132.973 0 132.355 0 131.117C0 130.25 0.123666 129.384 0.370997 128.518C0.989324 126.166 1.60765 124.866 2.22598 124.619C2.72064 124.495 3.64813 124.433 5.00845 124.433H6.12144C9.46041 124.433 13.1704 124.247 17.2513 123.876C18.9827 123.505 20.1575 122.762 20.7758 121.648C21.1468 121.153 25.5988 103.948 34.1317 70.034C42.6646 36.1197 46.9311 18.2342 46.9311 16.3776C46.9311 15.5112 43.4066 14.9542 36.3577 14.7067Z" fill="white"/>
<path d="M87.3801 84.2709C87.3801 86.3711 89.391 87.5962 93.4128 87.9463C94.9866 87.9463 95.7735 88.4276 95.7735 89.3902C95.7735 89.4777 95.6861 90.0465 95.5112 91.0966C95.2489 92.3217 94.9866 93.1093 94.7243 93.4593C94.462 93.8094 93.8937 93.9844 93.0194 93.9844C92.8445 93.9844 92.3199 93.9844 91.4456 93.9844C90.5713 93.9844 89.085 93.9406 86.9866 93.8531C84.8883 93.7656 82.0905 93.7218 78.5932 93.7218C72.3856 93.7218 68.4074 93.8094 66.6588 93.9844H65.6096C64.9976 93.3718 64.6916 92.8905 64.6916 92.5405C64.8665 90.1777 65.4348 88.6463 66.3965 87.9463H68.2326C74.3528 87.6837 78.8118 85.496 81.6096 81.3831C82.1342 80.8581 90.0467 67.513 105.347 41.3479C120.648 15.1827 128.429 1.92515 128.691 1.57512C129.303 0.525011 130.353 -4.16636e-05 131.839 -4.16636e-05H132.888H135.118C135.642 0.787537 135.905 1.22508 135.905 1.31259L139.577 43.7106C142.025 71.9759 143.336 86.2398 143.511 86.5024C143.948 87.465 146.79 87.9463 152.036 87.9463C154.221 87.9463 155.314 88.3838 155.314 89.2589C155.314 89.4339 155.183 90.0465 154.921 91.0966C154.659 92.4092 154.44 93.1968 154.265 93.4593C154.09 93.7218 153.478 93.8969 152.429 93.9844C152.167 93.9844 151.555 93.9844 150.593 93.9844C149.631 93.9844 147.926 93.9406 145.478 93.8531C143.03 93.7656 139.839 93.7218 135.905 93.7218C127.686 93.7218 122.309 93.8094 119.773 93.9844H118.2C117.675 93.4593 117.413 93.0655 117.413 92.803C117.413 92.5405 117.5 91.7529 117.675 90.4403C118.025 89.3027 118.287 88.6026 118.462 88.3401L118.987 87.9463H121.61C126.331 87.6837 129.129 86.9399 130.003 85.7148L128.429 66.0253H97.2161L92.7571 73.6386C89.1724 79.6767 87.3801 83.2208 87.3801 84.2709ZM127.773 59.856C127.773 58.8934 127.249 52.0677 126.2 39.3789C125.15 26.6901 124.538 20.302 124.364 20.2145L120.823 25.8588C119.424 28.2215 116.67 32.9033 112.56 39.904L100.757 59.856L114.265 59.9872C123.271 59.9872 127.773 59.9435 127.773 59.856Z" fill="white"/>
<path d="M134.356 51.8391C132.007 51.8391 130.832 51.344 130.832 50.3538C130.832 49.7349 131.821 46.2692 133.8 39.9567C135.779 33.6442 137.881 27.3936 140.107 21.2048L143.26 12.1074C143.879 9.87943 144.682 8.27036 145.672 7.28016H232.485H249.18C253.137 7.28016 255.487 7.34205 256.229 7.46583C256.971 7.5896 257.404 8.14659 257.527 9.13679C257.527 9.87943 256.476 16.9346 254.374 30.3023C252.271 43.6699 251.097 50.4157 250.849 50.5394C250.849 51.4059 249.674 51.8391 247.325 51.8391C246.212 51.8391 245.47 51.8391 245.099 51.8391C244.728 51.8391 244.357 51.5296 243.986 50.9108L243.615 50.3538C243.615 49.6111 243.986 46.8262 244.728 41.999C245.47 37.1718 245.841 33.3966 245.841 30.6736C245.841 26.3415 245.037 23.0614 243.429 20.8335C241.822 18.6056 238.421 17.0584 233.227 16.1919C232.609 16.0682 229.022 15.9444 222.468 15.8206C216.779 15.8206 213.193 15.8825 211.709 16.0063C210.225 16.1301 209.112 16.6252 208.37 17.4916C208.247 17.6154 203.856 34.8819 195.2 69.2913C186.543 103.701 182.215 121.215 182.215 121.834C182.215 123.319 187.656 124.185 198.539 124.433C202.496 124.433 205.031 124.495 206.144 124.619C207.257 124.742 207.814 125.299 207.814 126.29C207.814 126.908 207.628 127.775 207.257 128.889C206.763 131.117 206.206 132.416 205.588 132.788L205.217 132.973C204.846 132.973 204.413 132.973 203.918 132.973C203.3 132.973 200.085 132.912 194.272 132.788C188.46 132.664 180.113 132.602 169.23 132.602C153.277 132.602 143.137 132.726 138.808 132.973H136.026C135.284 132.231 134.913 131.674 134.913 131.302C134.913 130.931 135.037 129.817 135.284 127.961C135.779 126.351 136.397 125.176 137.139 124.433H142.333H144.373C154.267 124.433 160.141 123.876 161.996 122.762C162.119 122.638 162.243 122.576 162.367 122.576C162.985 122.205 163.603 120.967 164.222 118.863C164.84 116.759 167.313 107.043 171.642 89.7142C173.744 81.2975 175.475 74.428 176.835 69.1057C185.492 35.0676 189.82 17.6772 189.82 16.9346C189.82 16.3157 188.027 16.0063 184.441 16.0063H178.69C170.405 16.0063 164.964 16.3776 162.367 17.1203C156.802 18.358 152.473 20.8954 149.382 24.7324C146.29 28.5694 142.951 35.7484 139.365 46.2692C138.499 48.9923 137.881 50.6013 137.51 51.0964C137.139 51.5915 136.273 51.8391 134.913 51.8391H134.356Z" fill="white"/>
<path d="M322.823 133.438C320.349 133.438 319.113 132.633 319.113 131.024C319.113 130.529 319.422 129.044 320.04 126.568C320.659 124.093 320.968 121.927 320.968 120.07C320.968 116.233 319.669 113.881 317.072 113.015C314.475 112.148 308.477 111.715 299.079 111.715H289.433C289.309 111.963 287.145 120.503 282.941 137.337C278.736 154.17 276.634 162.834 276.634 163.329C276.634 163.824 277.314 164.072 278.674 164.072C280.034 164.072 284.981 164.196 293.514 164.443C305.139 164.443 312.806 164.319 316.516 164.072C320.226 163.824 323.936 163.02 327.646 161.658C333.705 159.678 338.714 156.212 342.671 151.261C346.628 146.31 351.018 138.203 355.841 126.939C357.078 124.216 357.882 122.731 358.253 122.484C359.119 122.236 360.046 122.112 361.035 122.112C363.509 122.112 364.745 122.917 364.745 124.526C351.76 155.965 344.959 171.993 344.34 172.612C343.969 172.86 326.285 172.984 291.288 172.984H256.229C243.615 172.984 237.308 172.303 237.308 170.941C237.308 170.694 237.493 169.827 237.864 168.342C238.359 166.362 238.854 165.248 239.348 165C239.843 164.753 241.265 164.567 243.615 164.443C246.954 164.443 250.664 164.258 254.745 163.886C256.476 163.515 257.651 162.772 258.269 161.658C258.517 161.039 262.907 143.649 271.44 109.487C279.973 75.3254 284.301 57.9969 284.425 57.5018C284.425 56.6354 284.177 56.2021 283.683 56.2021C282.693 55.8308 279.416 55.5214 273.851 55.2738H268.101C267.359 54.5312 266.988 54.0361 266.988 53.7885C266.988 53.541 267.111 52.4889 267.359 50.6323C267.853 48.5281 268.472 47.2285 269.214 46.7334H371.98C372.845 47.2285 373.278 47.9092 373.278 48.7757C373.278 49.3945 372.474 56.3259 370.867 69.5698C369.259 82.8137 368.393 89.6213 368.27 89.9927C368.022 90.8591 366.786 91.2923 364.56 91.2923H362.334C361.468 90.6734 361.035 89.8689 361.035 88.8787L361.592 84.6085C361.963 81.6379 362.148 78.4197 362.148 74.954C362.148 71.2408 361.715 68.1464 360.85 65.6709C359.984 63.1954 358.809 61.2769 357.325 59.9154C355.841 58.5539 353.677 57.5637 350.833 56.9448C347.989 56.3259 345.082 55.8927 342.115 55.6452C339.147 55.3976 335.189 55.2738 330.243 55.2738H321.524C310.642 55.3976 304.891 55.5833 304.273 55.8308C303.778 56.0784 303.407 56.6354 303.16 57.5018C303.036 57.8731 301.119 65.4853 297.409 80.3382C293.699 95.1912 291.783 102.741 291.659 102.989C294.503 103.113 297.471 103.175 300.563 103.175H305.386C313.548 103.175 319.175 102.246 322.266 100.39C325.358 98.5331 328.14 93.5202 330.614 85.3511C331.108 83.3707 331.479 82.2567 331.727 82.0092C331.974 81.7616 333.025 81.576 334.88 81.4522C335.498 81.4522 335.993 81.4522 336.364 81.4522C336.735 81.4522 337.044 81.5141 337.292 81.6379C337.539 81.7616 337.663 81.8235 337.663 81.8235C337.663 81.8235 337.786 82.0711 338.034 82.5662C338.281 83.0613 338.466 83.3088 338.59 83.3088L332.469 107.816C328.388 124.278 326.162 132.633 325.791 132.881C325.42 133.252 324.43 133.438 322.823 133.438Z" fill="white"/>
<path d="M359.737 132.973H359.366C357.634 132.973 356.769 132.293 356.769 130.931C356.769 130.436 356.954 129.446 357.325 127.961C357.82 126.228 358.253 125.238 358.624 124.99C358.995 124.742 360.17 124.557 362.148 124.433C372.783 124.062 381.131 120.844 387.191 114.779C388.427 113.541 395.6 105.743 408.708 91.3851C421.817 77.0272 428.309 69.7245 428.186 69.477C414.706 35.0676 407.657 17.5535 407.039 16.9346C405.926 15.5731 402.03 14.8304 395.352 14.7066H390.158C389.416 13.964 389.045 13.4689 389.045 13.2213C389.045 12.9738 389.169 11.7979 389.416 9.69376C389.911 8.08469 390.529 6.90883 391.271 6.16618H393.868C398.073 6.41373 405.555 6.53751 416.314 6.53751C420.395 6.53751 424.167 6.53751 427.629 6.53751C431.092 6.53751 433.874 6.47562 435.977 6.35184C438.079 6.22807 439.316 6.22807 439.687 6.35184C441.789 6.35184 442.84 7.0326 442.84 8.39413C442.84 8.5179 442.716 9.32244 442.469 10.8077C441.974 12.6644 441.542 13.7783 441.171 14.1497C440.8 14.521 439.81 14.7066 438.203 14.7066C434.369 15.078 431.03 16.1301 428.186 17.8629L442.469 53.8814L452.3 42.9273C465.285 28.9407 471.778 21.2048 471.778 19.7195C471.778 17.4916 470.294 15.9444 467.326 15.078C466.707 15.078 465.904 14.9542 464.914 14.7066C463.059 14.7066 462.132 14.0259 462.132 12.6644C462.132 12.4168 462.255 11.4266 462.503 9.69376C462.997 8.08469 463.616 6.90883 464.358 6.16618H466.584C466.707 6.16618 468.253 6.16618 471.221 6.16618C474.189 6.16618 477.528 6.28996 481.238 6.53751C484.948 6.78505 487.483 6.84694 488.844 6.72317C499.973 6.72317 506.095 6.53751 507.208 6.16618H508.692C509.558 7.0326 509.99 7.71337 509.99 8.20846C509.743 11.3028 509.001 13.4689 507.764 14.7066H504.796C500.592 14.8304 496.82 15.3874 493.481 16.3776C490.142 17.3678 487.607 18.4199 485.876 19.5339C484.144 20.6478 482.66 21.7618 481.424 22.8758L479.383 24.5467C479.383 24.423 473.509 30.8593 461.761 43.8556L445.622 61.6792C445.622 61.8029 447.539 66.7539 451.373 76.5321C455.207 86.3104 459.226 96.3361 463.43 106.609C467.635 116.883 469.923 122.205 470.294 122.576C471.53 123.69 475.302 124.309 481.609 124.433C485.937 124.433 488.102 124.99 488.102 126.104C488.102 126.351 487.978 127.218 487.731 128.703C487.236 130.684 486.803 131.859 486.432 132.231C486.061 132.602 485.195 132.788 483.835 132.788C483.464 132.788 481.424 132.788 477.714 132.788C474.004 132.788 468.501 132.726 461.204 132.602C453.661 132.602 447.91 132.602 443.953 132.602C439.996 132.602 437.832 132.664 437.461 132.788C435.358 132.788 434.307 132.231 434.307 131.117C434.307 130.993 434.431 130.065 434.678 128.332C434.925 127.094 435.173 126.228 435.42 125.733C435.667 125.238 435.977 124.928 436.348 124.804C436.719 124.681 437.275 124.557 438.017 124.433C438.759 124.309 439.748 124.247 440.985 124.247C442.222 124.247 443.829 123.814 445.808 122.948C447.91 121.957 448.961 121.339 448.961 121.091C448.838 121.091 445.932 113.85 440.243 99.3686L431.525 77.4605C408.275 102.711 396.342 116.016 395.723 117.378C395.229 118.368 394.981 119.111 394.981 119.606C394.981 121.957 396.775 123.505 400.361 124.247C400.485 124.247 400.856 124.247 401.474 124.247C402.092 124.247 402.463 124.309 402.587 124.433C402.958 124.433 403.205 124.433 403.329 124.433C403.453 124.433 403.638 124.495 403.885 124.619C404.133 124.742 404.318 124.928 404.442 125.176C404.566 125.423 404.627 125.856 404.627 126.475C404.627 127.589 404.504 128.579 404.256 129.446C403.885 131.055 403.514 131.983 403.143 132.231C402.772 132.478 401.845 132.664 400.361 132.788C399.99 132.788 398.877 132.788 397.022 132.788C395.167 132.788 392.57 132.726 389.231 132.602C385.892 132.478 382.244 132.478 378.287 132.602C368.641 132.602 362.457 132.726 359.737 132.973Z" fill="white"/>
</g>
<defs>
<clipPath id="clip0_7_67">
<rect width="1138" height="234" fill="white"/>
</clipPath>
</defs>
</svg>
