<svg width="216" height="216" viewBox="0 0 216 216" fill="none" xmlns="http://www.w3.org/2000/svg">
<mask id="path-1-outside-1_2_39" maskUnits="userSpaceOnUse" x="54" y="59" width="108" height="96" fill="black">
<rect fill="white" x="54" y="59" width="108" height="96"/>
<path d="M57.7266 149.397C63.3971 149.397 67.1846 148.403 69.0889 146.414C70.9932 144.51 71.903 140.574 71.8184 134.607V77.6689C71.8184 72.4639 70.7604 68.9938 68.6445 67.2588C66.4863 65.6084 62.847 64.8255 57.7266 64.9102V62.3076H158.21V64.9102C153.132 64.8255 149.493 65.6084 147.292 67.2588C145.134 68.9938 144.097 72.4639 144.182 77.6689V134.607C144.097 140.574 145.049 144.51 147.038 146.414C149.027 148.403 152.751 149.397 158.21 149.397V152H116.252V149.397C121.711 149.397 125.435 148.445 127.424 146.541C129.328 144.637 130.238 140.913 130.153 135.369V74.8125C130.323 70.1999 128.545 67.8512 124.821 67.7666H91.1787C89.1898 67.7666 87.7933 68.3802 86.9893 69.6074C86.2275 70.7923 85.8467 72.5273 85.8467 74.8125V135.369C85.762 140.913 86.7142 144.637 88.7031 146.541C90.6921 148.445 94.3737 149.397 99.748 149.397V152H57.7266V149.397Z"/>
</mask>
<path d="M57.7266 149.397V146.397H54.7266V149.397H57.7266ZM69.0889 146.414L66.9675 144.293L66.9445 144.316L66.9219 144.339L69.0889 146.414ZM71.8184 134.607H68.8184V134.629L68.8187 134.65L71.8184 134.607ZM68.6445 67.2588L70.5468 64.939L70.5074 64.9067L70.4669 64.8757L68.6445 67.2588ZM57.7266 64.9102H54.7266V67.9602L57.7761 67.9097L57.7266 64.9102ZM57.7266 62.3076V59.3076H54.7266V62.3076H57.7266ZM158.21 62.3076H161.21V59.3076H158.21V62.3076ZM158.21 64.9102L158.16 67.9097L161.21 67.9606V64.9102H158.21ZM147.292 67.2588L145.492 64.8588L145.452 64.8891L145.412 64.9207L147.292 67.2588ZM144.182 77.6689H147.182V77.6446L147.181 77.6202L144.182 77.6689ZM144.182 134.607L147.181 134.65L147.182 134.629V134.607H144.182ZM147.038 146.414L149.159 144.293L149.136 144.27L149.113 144.247L147.038 146.414ZM158.21 149.397H161.21V146.397H158.21V149.397ZM158.21 152V155H161.21V152H158.21ZM116.252 152H113.252V155H116.252V152ZM116.252 149.397V146.397H113.252V149.397H116.252ZM127.424 146.541L129.499 148.708L129.522 148.685L129.545 148.662L127.424 146.541ZM130.153 135.369H127.153V135.392L127.154 135.415L130.153 135.369ZM130.153 74.8125L127.155 74.7025L127.153 74.7575V74.8125H130.153ZM124.821 67.7666L124.889 64.7674L124.855 64.7666H124.821V67.7666ZM86.9893 69.6074L84.4799 67.9633L84.4728 67.9742L84.4657 67.9851L86.9893 69.6074ZM85.8467 135.369L88.8463 135.415L88.8467 135.392V135.369H85.8467ZM99.748 149.397H102.748V146.397H99.748V149.397ZM99.748 152V155H102.748V152H99.748ZM57.7266 152H54.7266V155H57.7266V152ZM57.7266 152.397C60.715 152.397 63.3558 152.138 65.582 151.553C67.7966 150.972 69.7917 150.018 71.2558 148.489L66.9219 144.339C66.4818 144.799 65.631 145.337 64.0582 145.75C62.4969 146.16 60.4087 146.397 57.7266 146.397V152.397ZM71.2102 148.535C72.7112 147.034 73.5999 144.97 74.1224 142.71C74.6509 140.424 74.8623 137.687 74.8181 134.565L68.8187 134.65C68.859 137.495 68.6579 139.709 68.2766 141.358C67.8892 143.034 67.3709 143.889 66.9675 144.293L71.2102 148.535ZM74.8184 134.607V77.6689H68.8184V134.607H74.8184ZM74.8184 77.6689C74.8184 72.3089 73.7786 67.5891 70.5468 64.939L66.7423 69.5786C67.7422 70.3985 68.8184 72.6189 68.8184 77.6689H74.8184ZM70.4669 64.8757C67.4697 62.5837 62.9552 61.8233 57.677 61.9106L57.7761 67.9097C62.7388 67.8277 65.503 68.6331 66.8222 69.6419L70.4669 64.8757ZM60.7266 64.9102V62.3076H54.7266V64.9102H60.7266ZM57.7266 65.3076H158.21V59.3076H57.7266V65.3076ZM155.21 62.3076V64.9102H161.21V62.3076H155.21ZM158.26 61.9106C153.008 61.823 148.517 62.5897 145.492 64.8588L149.092 69.6588C150.468 68.6271 153.256 67.828 158.16 67.9097L158.26 61.9106ZM145.412 64.9207C142.097 67.5856 141.095 72.345 141.182 77.7177L147.181 77.6202C147.099 72.5828 148.17 70.402 149.172 69.5969L145.412 64.9207ZM141.182 77.6689V134.607H147.182V77.6689H141.182ZM141.182 134.565C141.138 137.693 141.36 140.441 141.916 142.74C142.468 145.018 143.403 147.087 144.963 148.581L149.113 144.247C148.684 143.837 148.149 142.986 147.748 141.329C147.352 139.692 147.141 137.488 147.181 134.65L141.182 134.565ZM144.917 148.535C147.806 151.425 152.615 152.397 158.21 152.397V146.397C152.887 146.397 150.248 145.381 149.159 144.293L144.917 148.535ZM155.21 149.397V152H161.21V149.397H155.21ZM158.21 149H116.252V155H158.21V149ZM119.252 152V149.397H113.252V152H119.252ZM116.252 152.397C121.826 152.397 126.61 151.474 129.499 148.708L125.349 144.374C124.26 145.417 121.596 146.397 116.252 146.397V152.397ZM129.545 148.662C131.017 147.191 131.916 145.213 132.449 143.032C132.985 140.839 133.198 138.248 133.153 135.323L127.154 135.415C127.194 138.034 126.994 140.077 126.62 141.608C126.243 143.151 125.735 143.987 125.303 144.42L129.545 148.662ZM133.153 135.369V74.8125H127.153V135.369H133.153ZM133.151 74.9225C133.248 72.2951 132.824 69.7431 131.339 67.7812C129.756 65.6886 127.402 64.8245 124.889 64.7674L124.753 70.7658C125.965 70.7934 126.361 71.1459 126.555 71.4019C126.848 71.7886 127.228 72.7173 127.155 74.7025L133.151 74.9225ZM124.821 64.7666H91.1787V70.7666H124.821V64.7666ZM91.1787 64.7666C88.5757 64.7666 86.0256 65.6041 84.4799 67.9633L89.4986 71.2515C89.561 71.1563 89.8038 70.7666 91.1787 70.7666V64.7666ZM84.4657 67.9851C83.2548 69.8689 82.8467 72.2763 82.8467 74.8125H88.8467C88.8467 72.7784 89.2003 71.7158 89.5128 71.2297L84.4657 67.9851ZM82.8467 74.8125V135.369H88.8467V74.8125H82.8467ZM82.847 135.323C82.7609 140.962 83.6561 145.862 86.6284 148.708L90.7778 144.374C89.7723 143.411 88.7631 140.863 88.8463 135.415L82.847 135.323ZM86.6284 148.708C89.5113 151.468 94.2429 152.397 99.748 152.397V146.397C94.5045 146.397 91.8728 145.422 90.7778 144.374L86.6284 148.708ZM96.748 149.397V152H102.748V149.397H96.748ZM99.748 149H57.7266V155H99.748V149ZM60.7266 152V149.397H54.7266V152H60.7266Z" fill="white" mask="url(#path-1-outside-1_2_39)"/>
<rect x="92" y="21" width="31" height="31" rx="8" stroke="white" stroke-width="2.5" stroke-linecap="round" stroke-dasharray="2 5"/>
<rect x="92" y="164" width="31" height="31" rx="8" stroke="white" stroke-width="2.5" stroke-linecap="round" stroke-dasharray="2 5"/>
</svg>
