<svg width="216" height="216" viewBox="0 0 216 216" fill="none" xmlns="http://www.w3.org/2000/svg">
<g clip-path="url(#clip0_2_54)">
<mask id="path-1-outside-1_2_54" maskUnits="userSpaceOnUse" x="27" y="64" width="75" height="102" fill="black">
<rect fill="white" x="27" y="64" width="75" height="102"/>
<path d="M59.3652 162.855L42.373 122.475L32.9004 128.285L31.4844 125.355L48.2812 115.297L62.1484 149.818L93.5449 67.9824H97.3535L61.4648 162.855H59.3652Z"/>
</mask>
<path d="M59.3652 162.855L56.6001 164.019L57.3728 165.855H59.3652V162.855ZM42.373 122.475L45.1382 121.311L43.7829 118.09L40.8044 119.917L42.373 122.475ZM32.9004 128.285L30.1993 129.591L31.6424 132.576L34.469 130.842L32.9004 128.285ZM31.4844 125.355L29.9431 122.782L27.5895 124.191L28.7833 126.661L31.4844 125.355ZM48.2812 115.297L51.065 114.179L49.7551 110.918L46.74 112.723L48.2812 115.297ZM62.1484 149.818L59.3646 150.937L62.2126 158.026L64.9494 150.893L62.1484 149.818ZM93.5449 67.9824V64.9824H91.4827L90.744 66.9078L93.5449 67.9824ZM97.3535 67.9824L100.159 69.0439L101.696 64.9824H97.3535V67.9824ZM61.4648 162.855V165.855H63.5375L64.2708 163.917L61.4648 162.855ZM62.1304 161.692L45.1382 121.311L39.6079 123.638L56.6001 164.019L62.1304 161.692ZM40.8044 119.917L31.3318 125.728L34.469 130.842L43.9417 125.032L40.8044 119.917ZM35.6014 126.98L34.1854 124.05L28.7833 126.661L30.1993 129.591L35.6014 126.98ZM33.0257 127.929L49.8225 117.871L46.74 112.723L29.9431 122.782L33.0257 127.929ZM45.4975 116.415L59.3646 150.937L64.9322 148.7L51.065 114.179L45.4975 116.415ZM64.9494 150.893L96.3459 69.057L90.744 66.9078L59.3475 148.744L64.9494 150.893ZM93.5449 70.9824H97.3535V64.9824H93.5449V70.9824ZM94.5476 66.921L58.6589 161.794L64.2708 163.917L100.159 69.0439L94.5476 66.921ZM61.4648 159.855H59.3652V165.855H61.4648V159.855Z" fill="white" mask="url(#path-1-outside-1_2_54)"/>
<rect x="29" y="66" width="31" height="31" rx="8" stroke="white" stroke-width="2.5" stroke-linecap="round" stroke-dasharray="2 5"/>
<rect x="108" y="91" width="60" height="60" rx="15" stroke="white" stroke-width="4" stroke-linecap="round" stroke-dasharray="2 5"/>
<path d="M94 66.5H92.9189L92.577 67.5257L91.577 70.5257L90.9189 72.5H93H179H180.5V71V68V66.5H179H94Z" stroke="white" stroke-width="3"/>
</g>
<defs>
<clipPath id="clip0_2_54">
<rect width="216" height="216" fill="white"/>
</clipPath>
</defs>
</svg>
