<svg width="216" height="216" viewBox="0 0 216 216" fill="none" xmlns="http://www.w3.org/2000/svg">
<mask id="path-1-outside-1_2_31" maskUnits="userSpaceOnUse" x="67" y="59" width="82" height="96" fill="black">
<rect fill="white" x="67" y="59" width="82" height="96"/>
<path d="M70.1045 148.382L114.03 108.328L70.9932 64.9102V62.3076H145.324V87H142.722C142.045 79.3828 139.632 74.2201 135.485 71.5117C131.127 68.9303 125.35 67.682 118.156 67.7666H90.2266L125.456 105.345L87.751 139.495H135.231C138.701 139.41 140.944 137.993 141.96 135.242C142.849 132.618 143.293 129.804 143.293 126.8H145.896V152H70.1045V148.382Z"/>
</mask>
<path d="M70.1045 148.382L68.0831 146.165L67.1045 147.057V148.382H70.1045ZM114.03 108.328L116.052 110.545L118.363 108.438L116.161 106.216L114.03 108.328ZM70.9932 64.9102H67.9932V66.1451L68.8625 67.0221L70.9932 64.9102ZM70.9932 62.3076V59.3076H67.9932V62.3076H70.9932ZM145.324 62.3076H148.324V59.3076H145.324V62.3076ZM145.324 87V90H148.324V87H145.324ZM142.722 87L139.733 87.2656L139.977 90H142.722V87ZM135.485 71.5117L137.126 68.9999L137.071 68.9639L137.014 68.9304L135.485 71.5117ZM118.156 67.7666V70.7666H118.174L118.192 70.7664L118.156 67.7666ZM90.2266 67.7666V64.7666H83.3019L88.038 69.8184L90.2266 67.7666ZM125.456 105.345L127.47 107.568L129.732 105.519L127.645 103.293L125.456 105.345ZM87.751 139.495L85.7371 137.272L79.9698 142.495H87.751V139.495ZM135.231 139.495V142.495H135.268L135.305 142.494L135.231 139.495ZM141.96 135.242L144.774 136.281L144.788 136.243L144.801 136.205L141.96 135.242ZM143.293 126.8V123.8H140.293V126.8H143.293ZM145.896 126.8H148.896V123.8H145.896V126.8ZM145.896 152V155H148.896V152H145.896ZM70.1045 152H67.1045V155H70.1045V152ZM72.1259 150.599L116.052 110.545L112.009 106.111L68.0831 146.165L72.1259 150.599ZM116.161 106.216L73.1238 62.7982L68.8625 67.0221L111.9 110.44L116.161 106.216ZM73.9932 64.9102V62.3076H67.9932V64.9102H73.9932ZM70.9932 65.3076H145.324V59.3076H70.9932V65.3076ZM142.324 62.3076V87H148.324V62.3076H142.324ZM145.324 84H142.722V90H145.324V84ZM145.71 86.7344C144.996 78.7073 142.386 72.4351 137.126 68.9999L133.845 74.0235C136.879 76.005 139.093 80.0583 139.733 87.2656L145.71 86.7344ZM137.014 68.9304C132.024 65.9749 125.645 64.6783 118.121 64.7668L118.192 70.7664C125.055 70.6856 130.23 71.8858 133.957 74.093L137.014 68.9304ZM118.156 64.7666H90.2266V70.7666H118.156V64.7666ZM88.038 69.8184L123.267 107.397L127.645 103.293L92.4152 65.7148L88.038 69.8184ZM123.442 103.121L85.7371 137.272L89.7649 141.719L127.47 107.568L123.442 103.121ZM87.751 142.495H135.231V136.495H87.751V142.495ZM135.305 142.494C137.419 142.443 139.418 141.979 141.119 140.904C142.857 139.806 144.063 138.206 144.774 136.281L139.146 134.203C138.841 135.029 138.418 135.513 137.913 135.833C137.371 136.175 136.514 136.463 135.158 136.496L135.305 142.494ZM144.801 136.205C145.804 133.246 146.293 130.104 146.293 126.8H140.293C140.293 129.505 139.894 131.991 139.119 134.28L144.801 136.205ZM143.293 129.8H145.896V123.8H143.293V129.8ZM142.896 126.8V152H148.896V126.8H142.896ZM145.896 149H70.1045V155H145.896V149ZM73.1045 152V148.382H67.1045V152H73.1045Z" fill="white" mask="url(#path-1-outside-1_2_31)"/>
<rect x="92" y="21" width="31" height="31" rx="8" stroke="white" stroke-width="2.5" stroke-linecap="round" stroke-dasharray="2 5"/>
<rect x="92" y="164" width="31" height="31" rx="8" stroke="white" stroke-width="2.5" stroke-linecap="round" stroke-dasharray="2 5"/>
</svg>
