<svg width="216" height="216" viewBox="0 0 216 216" fill="none" xmlns="http://www.w3.org/2000/svg">
<mask id="path-1-outside-1_1_2" maskUnits="userSpaceOnUse" x="51" y="42" width="113" height="128" fill="black">
<rect fill="white" x="51" y="42" width="113" height="128"/>
<path d="M56.4961 46.9082H158.186L159.152 77.4941H154.846C152.736 67.8848 150.041 61.6445 146.76 58.7734C143.537 55.8438 136.711 54.3789 126.281 54.3789H116.262V146.488C116.262 153.461 117.346 157.797 119.514 159.496C121.682 161.137 126.428 162.221 133.752 162.748V166H81.2812V162.748C88.8984 162.162 93.6445 160.902 95.5195 158.969C97.3945 157.035 98.332 152.172 98.332 144.379V54.3789H88.3125C78.3516 54.3789 71.5547 55.8145 67.9219 58.6855C64.3477 61.5566 61.6523 67.8262 59.8359 77.4941H55.4414L56.4961 46.9082Z"/>
</mask>
<path d="M56.4961 46.9082V42.9082H52.6316L52.4985 46.7704L56.4961 46.9082ZM158.186 46.9082L162.184 46.7818L162.061 42.9082H158.186V46.9082ZM159.152 77.4941V81.4941H163.281L163.15 77.3678L159.152 77.4941ZM154.846 77.4941L150.939 78.3518L151.629 81.4941H154.846V77.4941ZM146.76 58.7734L144.069 61.7332L144.097 61.7587L144.126 61.7837L146.76 58.7734ZM116.262 54.3789V50.3789H112.262V54.3789H116.262ZM119.514 159.496L117.046 162.644L117.073 162.665L117.1 162.686L119.514 159.496ZM133.752 162.748H137.752V159.026L134.039 158.758L133.752 162.748ZM133.752 166V170H137.752V166H133.752ZM81.2812 166H77.2812V170H81.2812V166ZM81.2812 162.748L80.9745 158.76L77.2812 159.044V162.748H81.2812ZM98.332 54.3789H102.332V50.3789H98.332V54.3789ZM67.9219 58.6855L65.4417 55.5473L65.4292 55.5571L65.4169 55.5671L67.9219 58.6855ZM59.8359 77.4941V81.4941H63.1544L63.7672 78.2327L59.8359 77.4941ZM55.4414 77.4941L51.4438 77.3563L51.3011 81.4941H55.4414V77.4941ZM56.4961 50.9082H158.186V42.9082H56.4961V50.9082ZM154.188 47.0346L155.154 77.6205L163.15 77.3678L162.184 46.7818L154.188 47.0346ZM159.152 73.4941H154.846V81.4941H159.152V73.4941ZM158.753 76.6365C157.665 71.6824 156.397 67.4542 154.914 64.0209C153.449 60.6291 151.663 57.7484 149.394 55.7631L144.126 61.7837C145.138 62.6696 146.34 64.3446 147.57 67.193C148.782 69.9999 149.917 73.6965 150.939 78.3518L158.753 76.6365ZM149.45 55.8137C147.092 53.6692 143.79 52.3666 140.062 51.5666C136.274 50.7537 131.654 50.3789 126.281 50.3789V58.3789C131.338 58.3789 135.346 58.7366 138.384 59.3885C141.482 60.0534 143.205 60.948 144.069 61.7332L149.45 55.8137ZM126.281 50.3789H116.262V58.3789H126.281V50.3789ZM112.262 54.3789V146.488H120.262V54.3789H112.262ZM112.262 146.488C112.262 150.141 112.542 153.33 113.194 155.94C113.828 158.474 114.944 160.997 117.046 162.644L121.981 156.348C121.915 156.296 121.406 155.801 120.955 154C120.524 152.274 120.262 149.808 120.262 146.488H112.262ZM117.1 162.686C118.862 164.02 121.252 164.855 123.809 165.439C126.453 166.043 129.691 166.466 133.465 166.738L134.039 158.758C130.489 158.503 127.692 158.12 125.59 157.64C123.4 157.14 122.333 156.613 121.927 156.306L117.1 162.686ZM129.752 162.748V166H137.752V162.748H129.752ZM133.752 162H81.2812V170H133.752V162ZM85.2812 166V162.748H77.2812V166H85.2812ZM81.588 166.736C85.5217 166.434 88.8794 165.947 91.5799 165.23C94.1607 164.545 96.6826 163.515 98.3911 161.753L92.6479 156.184C92.4815 156.356 91.6928 156.923 89.5275 157.498C87.4819 158.041 84.6579 158.476 80.9745 158.76L81.588 166.736ZM98.3911 161.753C100.16 159.929 101.047 157.274 101.557 154.628C102.093 151.848 102.332 148.403 102.332 144.379H94.332C94.332 148.148 94.1027 151.031 93.7012 153.114C93.2737 155.332 92.7538 156.075 92.6479 156.184L98.3911 161.753ZM102.332 144.379V54.3789H94.332V144.379H102.332ZM98.332 50.3789H88.3125V58.3789H98.332V50.3789ZM88.3125 50.3789C83.163 50.3789 78.6767 50.7479 74.9175 51.5419C71.1918 52.3288 67.9234 53.5859 65.4417 55.5473L70.4021 61.8238C71.5532 60.9141 73.4996 60.0179 76.5707 59.3692C79.6084 58.7276 83.5011 58.3789 88.3125 58.3789V50.3789ZM65.4169 55.5671C62.9312 57.5637 61.0345 60.4963 59.5449 63.9612C58.0426 67.4557 56.8456 71.7476 55.9047 76.7555L63.7672 78.2327C64.6427 73.5728 65.7015 69.8958 66.8945 67.1208C68.1003 64.3162 69.3383 62.6785 70.4269 61.804L65.4169 55.5671ZM59.8359 73.4941H55.4414V81.4941H59.8359V73.4941ZM59.439 77.632L60.4937 47.0461L52.4985 46.7704L51.4438 77.3563L59.439 77.632Z" fill="white" mask="url(#path-1-outside-1_1_2)"/>
</svg>
